<svg width="1518" height="201" viewBox="0 0 1518 201" fill="none" xmlns="http://www.w3.org/2000/svg">
<path d="M82.354 200.302C70.3536 200.302 59.2531 198.202 49.0527 194.001C39.0023 189.651 30.302 183.801 22.9517 176.451C15.7514 168.95 10.1262 160.25 6.07605 150.35C2.02589 140.299 0.000808121 129.574 0.000808121 118.173C0.000808121 106.923 2.02589 96.3476 6.07605 86.4472C10.2762 76.3968 16.0514 67.6215 23.4017 60.1212C30.752 52.6209 39.4524 46.6956 49.5028 42.3455C59.7032 37.9953 70.8036 35.8202 82.8041 35.8202C94.8045 35.8202 105.83 37.9953 115.88 42.3455C125.931 46.6956 134.556 52.6209 141.756 60.1212C149.107 67.4714 154.807 76.0968 158.857 85.9972C162.907 95.8976 164.932 106.473 164.932 117.723C164.932 129.124 162.832 139.849 158.632 149.9C154.582 159.8 148.882 168.5 141.531 176.001C134.331 183.501 125.631 189.426 115.43 193.776C105.38 198.127 94.3545 200.302 82.354 200.302ZM82.8041 168.8C89.7043 168.8 96.0046 167.525 101.705 164.975C107.555 162.275 112.58 158.675 116.78 154.175C120.981 149.525 124.206 144.199 126.456 138.199C128.706 132.049 129.831 125.524 129.831 118.623C129.831 111.723 128.631 105.198 126.231 99.0477C123.981 92.7474 120.756 87.2722 116.555 82.622C112.505 77.8219 107.555 74.0717 101.705 71.3716C95.8546 68.6715 89.4043 67.3214 82.354 67.3214C75.3038 67.3214 68.8535 68.6715 63.0033 71.3716C57.3031 73.9217 52.3529 77.5218 48.1527 82.172C44.1025 86.6722 40.8774 91.9974 38.4773 98.1477C36.2272 104.298 35.1022 110.823 35.1022 117.723C35.1022 124.774 36.2272 131.374 38.4773 137.524C40.8774 143.674 44.1775 149.075 48.3777 153.725C52.5779 158.375 57.6031 162.05 63.4533 164.75C69.3035 167.45 75.7538 168.8 82.8041 168.8ZM189.89 38.5203H221.841L297.894 137.974L297.444 38.5203H331.645V197.602H302.169L223.641 94.9975L224.091 197.602H189.89V38.5203ZM360.995 38.5203H482.05V68.8965H395.197V102.648H473.5V132.349H395.197V167.225H483.175V197.602H360.995V38.5203ZM638.816 200.302C625.465 200.302 612.865 198.202 601.014 194.001C589.164 189.651 578.513 183.126 569.063 174.426L588.414 150.8C596.364 157.55 604.539 162.575 612.94 165.875C621.49 169.175 630.565 170.826 640.166 170.826C647.816 170.826 653.666 169.25 657.716 166.1C661.917 162.8 664.017 158.825 664.017 154.175C664.017 150.725 662.967 147.875 660.867 145.625C658.917 143.224 656.366 141.274 653.216 139.774C650.066 138.124 646.616 136.849 642.866 135.949C639.266 134.899 635.816 133.999 632.515 133.249C624.115 131.299 616.465 129.124 609.565 126.724C602.664 124.324 596.739 121.324 591.789 117.723C586.839 113.973 582.939 109.473 580.088 104.223C577.388 98.8227 576.038 92.1474 576.038 84.1971C576.038 77.2968 577.388 70.9216 580.088 65.0713C582.789 59.2211 586.614 54.1209 591.564 49.7708C596.664 45.4206 602.739 42.0454 609.79 39.6454C616.84 37.0953 624.64 35.8202 633.191 35.8202C639.491 35.8202 645.266 36.1952 650.516 36.9452C655.916 37.6953 661.017 38.9703 665.817 40.7704C670.617 42.4205 675.342 44.5955 679.992 47.2957C684.643 49.8458 689.368 52.9959 694.168 56.746L681.117 74.9717C680.067 76.3218 678.942 77.2968 677.742 77.8969C676.692 78.3469 675.567 78.4969 674.367 78.3469C673.317 78.1969 672.267 77.9719 671.217 77.6718C670.317 77.2218 669.567 76.7718 668.967 76.3218C662.517 72.4216 656.366 69.6465 650.516 67.9965C644.666 66.3464 638.666 65.5214 632.515 65.5214C625.465 65.5214 620.065 67.1714 616.315 70.4716C612.565 73.6217 610.69 77.2218 610.69 81.272C610.69 84.8721 611.665 87.8722 613.615 90.2723C615.715 92.5224 618.34 94.4725 621.49 96.1226C624.64 97.6226 628.09 98.8977 631.84 99.9477C635.741 100.848 639.416 101.673 642.866 102.423C651.716 104.373 659.592 106.698 666.492 109.398C673.542 111.948 679.467 115.173 684.268 119.073C689.068 122.824 692.668 127.324 695.068 132.574C697.618 137.674 698.893 143.674 698.893 150.575C698.893 158.375 697.393 165.35 694.393 171.501C691.543 177.651 687.493 182.901 682.242 187.251C676.992 191.451 670.692 194.676 663.342 196.927C655.991 199.177 647.816 200.302 638.816 200.302ZM796.101 69.3465V197.602H761.9V69.3465H713.748V38.5203H847.853L844.028 61.9212C843.428 65.0714 842.303 67.0964 840.653 67.9965C839.153 68.8965 837.128 69.3465 834.578 69.3465H796.101ZM868.312 38.5203H937.615C957.715 38.5203 973.016 43.2455 983.516 52.6959C994.167 61.9962 999.492 74.6717 999.492 90.7224C999.492 103.323 996.192 113.673 989.592 121.774C982.991 129.724 974.291 135.424 963.491 138.874L1007.82 197.602H967.091L927.939 144.499H902.513V197.602H868.312V38.5203ZM935.59 116.598C944.59 116.598 951.64 114.498 956.74 110.298C961.991 106.098 964.616 100.248 964.616 92.7474C964.616 85.0971 962.141 79.2469 957.19 75.1967C952.24 70.9966 945.04 68.8965 935.59 68.8965H902.513V116.598H935.59ZM1027.33 38.5203H1148.39V68.8965H1061.53V102.648H1139.84V132.349H1061.53V167.225H1149.51V197.602H1027.33V38.5203ZM1285.59 162.05H1218.09L1203.91 197.602H1167.68L1232.71 45.7206C1234.96 40.1704 1239.39 37.3953 1245.99 37.3953H1268.94L1337.34 197.602H1299.76L1285.59 162.05ZM1230.01 132.349H1273.66L1252.06 77.8969L1230.01 132.349ZM1357.9 38.5203H1393.9L1438 108.948L1482.1 38.5203H1517.43V197.602H1483.23L1483.9 93.1975L1438 163.4H1437.78L1391.42 93.4225L1392.1 197.602H1357.9V38.5203Z" fill="url(#paint0_linear_40001492_3639)"/>
<defs>
<linearGradient id="paint0_linear_40001492_3639" x1="760.924" y1="-0.398438" x2="760.924" y2="228.398" gradientUnits="userSpaceOnUse">
<stop stop-color="white" stop-opacity="0.32"/>
<stop offset="1" stop-color="white" stop-opacity="0"/>
</linearGradient>
</defs>
</svg>
