<svg width="45" height="44" viewBox="0 0 45 44" fill="none" xmlns="http://www.w3.org/2000/svg">
<g clip-path="url(#clip0_1048_18446)">
<path d="M33.8476 25.3133C33.8476 17.316 27.3818 10.8331 19.4057 10.8331C11.4297 10.8331 4.96387 17.316 4.96387 25.3133C4.96387 33.3105 11.4297 39.7934 19.4057 39.7934C27.3818 39.7934 33.8476 33.3105 33.8476 25.3133Z" fill="#3379C6"/>
<path d="M19.4062 10.8331C18.665 10.8331 17.9366 10.8892 17.2256 10.9973C24.1667 12.0514 29.4864 18.0593 29.4864 25.3133C29.4864 32.5673 24.1667 38.5752 17.2256 39.6292C17.9366 39.7373 18.665 39.7934 19.4062 39.7934C27.3823 39.7934 33.8481 33.3105 33.8481 25.3133C33.8481 17.316 27.3823 10.8331 19.4062 10.8331Z" fill="#548ECF"/>
<path d="M17.5281 16.4607C15.3035 17.8549 13.6348 20.0852 14.8862 22.5948C16.1377 25.1042 18.9186 24.1283 21.491 23.7798C24.0634 23.4314 22.1167 31.3779 23.6461 33.3296C25.1756 35.2814 29.4859 31.3779 29.0689 28.8683C28.4513 25.1528 28.2347 23.8493 33.2403 21.2007L33.2537 21.1957C31.5665 15.4825 26.4592 11.2434 20.3097 10.8624L20.309 10.8842C20.309 10.8842 19.7528 15.0666 17.5281 16.4607Z" fill="#54BCA4"/>
<path d="M28.4541 14.0283C28.4553 14.0291 28.4565 14.0303 28.4577 14.0311C28.4565 14.0303 28.4553 14.0295 28.4541 14.0283Z" fill="#54BCA4"/>
<path d="M30.2207 15.7175C30.2207 15.7179 30.2211 15.7183 30.2215 15.7183C30.2211 15.7179 30.2211 15.7179 30.2207 15.7175Z" fill="#54BCA4"/>
<path d="M9.81161 31.8657C9.14358 30.8469 10.9936 28.4503 11.4105 26.6379C11.8278 24.8255 9.32486 24.9648 8.56015 24.3374C7.79544 23.71 6.75244 20.9916 5.98773 20.3642L5.86554 20.2678C5.28278 21.8389 4.96387 23.5388 4.96387 25.3133C4.96387 30.0996 7.28015 34.3428 10.8499 36.979L10.8543 36.6755C10.8543 36.6755 11.4105 34.3055 9.81161 31.8657Z" fill="#54BCA4"/>
<path d="M29.0692 28.8683C29.0662 28.8502 29.0631 28.8324 29.0601 28.8142C28.7838 29.9304 28.3783 30.9956 27.8604 31.9926C28.6818 31.0231 29.2307 29.8411 29.0692 28.8683Z" fill="#54BCA4"/>
<path d="M20.311 10.8623L20.3104 10.8842C20.3104 10.8842 20.264 11.2333 20.1445 11.7627C25.2088 13.6795 28.9165 18.3678 29.4268 23.9832C30.0649 23.1104 31.2321 22.2638 33.2416 21.2007L33.255 21.1956C31.5678 15.4825 26.4606 11.2433 20.311 10.8623Z" fill="#33AF92"/>
<path d="M19.3863 44C18.3634 44 17.3332 43.9161 16.3036 43.7459C11.382 42.9332 7.07139 40.2526 4.16596 36.1981C1.26054 32.1436 0.108102 27.2002 0.921151 22.279C0.979898 21.9224 1.31761 21.6814 1.6731 21.7402C2.02961 21.7989 2.27097 22.1356 2.21189 22.4921C1.45625 27.0686 2.52778 31.6656 5.22978 35.4361C7.93177 39.2066 11.9399 41.6992 16.5171 42.4551C25.9659 44.0161 34.9208 37.5987 36.4815 28.1512C37.2371 23.5747 36.1656 18.9777 33.4636 15.2072C30.7619 11.4367 26.7534 8.94421 22.1766 8.18823C21.8201 8.12948 21.5787 7.79278 21.6375 7.43628C21.6965 7.07977 22.0339 6.83874 22.3894 6.89749C27.3113 7.7102 31.622 10.3907 34.5271 14.4452C37.4325 18.4997 38.5849 23.4431 37.7722 28.3644C36.9595 33.2857 34.2787 37.596 30.2238 40.5011C27.0169 42.7985 23.2545 44 19.3863 44Z" fill="#33AF92"/>
<path d="M15.4149 15.8027C8.43109 14.6178 4.09863 5.8246 4.09863 5.8246C4.09863 5.8246 11.0894 -1.04738 18.0732 0.137283C25.057 1.32195 29.3894 10.1151 29.3894 10.1151C29.3894 10.1151 22.3986 16.9874 15.4149 15.8027Z" fill="#54BCA4"/>
<path d="M18.0726 0.137273C16.7389 -0.0889847 15.4055 -0.020839 14.1201 0.236638C20.8122 1.7392 24.9402 10.1151 24.9402 10.1151C24.9402 10.1151 20.364 14.613 14.9177 15.7034C15.0819 15.7403 15.247 15.7742 15.4142 15.8027C22.398 16.9874 29.3888 10.1151 29.3888 10.1151C29.3888 10.1151 25.0563 1.32193 18.0726 0.137273Z" fill="#33AF92"/>
<path d="M28.9947 9.38495L22.165 8.23285L15.7855 0.0184326C15.2765 0.0483093 14.7723 0.113434 14.2748 0.206757L20.2582 7.91092L15.1084 7.04214L10.7141 1.35684C10.3019 1.54282 9.90109 1.7402 9.51471 1.94498L13.2063 6.72122L4.6908 5.28445C4.30844 5.61847 4.09863 5.82458 4.09863 5.82458C4.09863 5.82458 4.23895 6.10892 4.50818 6.58057L12.9774 8.00928L8.28036 11.6411C8.58282 11.9527 8.90005 12.2605 9.23172 12.5593L14.7331 8.30569L20.1851 9.22549L12.7703 14.9622C13.2305 15.177 13.7062 15.363 14.1966 15.5127L21.9407 9.52191L28.7748 10.6747C29.1709 10.3293 29.3894 10.1151 29.3894 10.1151C29.3894 10.1151 29.2541 9.84116 28.9947 9.38495Z" fill="#009B77"/>
<path d="M34.1399 7.26739C36.0134 2.83423 42.5047 1.34174 42.5047 1.34174C42.5047 1.34174 45.9587 7.03677 44.0852 11.4699C42.212 15.9031 35.7204 17.3956 35.7204 17.3956C35.7204 17.3956 32.2664 11.7006 34.1399 7.26739Z" fill="#54BCA4"/>
<path d="M42.5038 1.34174C42.5038 1.34174 41.0278 1.68146 39.2802 2.51733C40.1768 4.41669 41.5981 8.27145 40.2463 11.4699C39.2664 13.7889 37.0226 15.3032 35.1055 16.22C35.4516 16.9532 35.7198 17.3956 35.7198 17.3956C35.7198 17.3956 42.2111 15.9031 44.0846 11.4699C45.9578 7.03677 42.5038 1.34174 42.5038 1.34174Z" fill="#33AF92"/>
<path d="M44.6151 7.81357L39.6234 9.90762L42.9007 2.0722C42.6661 1.60895 42.5039 1.34174 42.5039 1.34174C42.5039 1.34174 42.1951 1.4129 41.6926 1.57001L38.3054 9.6676L36.205 4.4996C35.8492 4.81348 35.5135 5.15454 35.209 5.52414L37.589 11.3803L35.3533 16.7252C35.5715 17.1512 35.7196 17.3956 35.7196 17.3956C35.7196 17.3956 36.0553 17.3184 36.5951 17.1472L38.9036 11.6284L44.6131 9.23355C44.651 8.75922 44.649 8.28354 44.6151 7.81357Z" fill="#009B77"/>
</g>
<defs>
<clipPath id="clip0_1048_18446">
<rect width="44" height="44" fill="white" transform="translate(0.666992)"/>
</clipPath>
</defs>
</svg>
