<svg width="24" height="24" viewBox="0 0 24 24" fill="none" xmlns="http://www.w3.org/2000/svg">
<path d="M12.6665 15.9982H11.3323C10.5954 15.9982 9.9981 15.4009 9.9981 14.6641L1.32593 14.6641V19.8087C1.32593 21.0201 2.3079 22.0021 3.51924 22.0021H20.4795C21.6908 22.0021 22.6728 21.0201 22.6728 19.8087V14.6641H14.0006C14.0006 15.4009 13.4033 15.9982 12.6665 15.9982Z" fill="black"/>
<path d="M18.0032 6.00449V2.85452C18.0032 2.38366 17.6215 2.00195 17.1506 2.00195H6.84812C6.37727 2.00195 5.99556 2.38366 5.99556 2.85452V6.00449H3.51924C2.3079 6.00449 1.32593 6.98647 1.32593 8.1978V13.3425H9.9981C9.9981 12.6056 10.5954 12.0083 11.3323 12.0083H12.6665C13.4033 12.0083 14.0006 12.6056 14.0006 13.3425L22.6728 13.3425V8.1978C22.6728 6.98647 21.6908 6.00449 20.4795 6.00449H18.0032ZM7.32974 3.33613H16.669V6.00449H7.32974V3.33613Z" fill="black"/>
</svg>
