<svg fill="none" height="24" viewBox="0 0 24 24" width="24" xmlns="http://www.w3.org/2000/svg"><path clip-rule="evenodd" d="m15 1.25h-4.0564c-1.83777-.00002-3.29341-.00003-4.43262.15314-1.17242.15762-2.12137.48974-2.86974 1.2381-.74836.74837-1.08048 1.69732-1.2381 2.86974-.15317 1.13921-.15316 2.59484-.15314 4.43259v6.05643c0 1.8722 1.37205 3.424 3.16551 3.7047.13797.764.40202 1.4161.93284 1.947.60192.6019 1.35979.8608 2.2599.9818.86697.1165 1.96925.1165 3.33685.1165h3.1098c1.3676 0 2.4699 0 3.3369-.1165.9001-.121 1.6579-.3799 2.2599-.9818.6019-.602.8608-1.3598.9818-2.2599.1165-.867.1165-1.9693.1165-3.3369v-5.1098c0-1.36756 0-2.46988-.1165-3.33685-.121-.90011-.3799-1.65798-.9818-2.2599-.5309-.53082-1.183-.79487-1.947-.93284-.2807-1.79346-1.8325-3.16551-3.7047-3.16551zm2.1293 3.02117c-.3028-.88494-1.1417-1.52117-2.1293-1.52117h-4c-1.90682 0-3.26149.00159-4.28915.13976-1.00609.13526-1.58574.38893-2.00895.81214s-.67688 1.00286-.81214 2.00895c-.13817 1.02766-.13976 2.38233-.13976 4.28915v6c0 .9876.63624 1.8265 1.52117 2.1293-.02119-.6099-.02118-1.2996-.02117-2.0744v-5.1098c-.00002-1.36756-.00004-2.46988.11652-3.33685.12102-.90011.37991-1.65798.98183-2.2599s1.35979-.86081 2.2599-.98183c.86697-.11656 1.96925-.11654 3.33685-.11652h3.1098c.7748-.00001 1.4645-.00002 2.0744.02117zm-9.72029 2.13784c.27676-.27676.66534-.45721 1.39911-.55586.75535-.10156 1.75648-.10315 3.19188-.10315h3c1.4354 0 2.4365.00159 3.1919.10315.7338.09865 1.1223.2791 1.3991.55586s.4572.66534.5559 1.39911c.1015.75535.1031 1.75646.1031 3.19188v5c0 1.4354-.0016 2.4365-.1031 3.1919-.0987.7338-.2791 1.1223-.5559 1.3991s-.6653.4572-1.3991.5559c-.7554.1015-1.7565.1031-3.1919.1031h-3c-1.4354 0-2.43653-.0016-3.19188-.1031-.73377-.0987-1.12235-.2791-1.39911-.5559s-.45721-.6653-.55586-1.3991c-.10156-.7554-.10315-1.7565-.10315-3.1919v-5c0-1.43542.00159-2.43653.10315-3.19188.09865-.73377.2791-1.12235.55586-1.39911z" fill="rgb(0,0,0)" fill-rule="evenodd"/></svg>