<svg fill="none" height="512" viewBox="0 0 24 24" width="512" xmlns="http://www.w3.org/2000/svg"><path clip-rule="evenodd" d="m13.4222 10.1287h4.9778l-3.7333 5.0292-4.0889 5.2631v-6.5497h-4.97779l4.11428-5.14611 3.70791-5.14615zm-4.98875-2.35058 3.68485-5.11404c.4034-.55991 1.1274-.79812 1.7906-.58916.6632.20895 1.1133.81711 1.1133 1.50412v4.97071h3.3778c.6028 0 1.1544.33433 1.427.86487.2726.53055.2199 1.16728-.1363 1.64718l-3.7333 5.0291c-.0069.0093-.0139.0185-.021.0276l-4.0888 5.2631c-.4172.537-1.1346.752-1.7838.5346-.64924-.2173-1.08601-.8187-1.08601-1.4952v-4.9707h-3.37778c-.61309 0-1.17227-.3458-1.43973-.8902-.26745-.5444-.19614-1.1918.18361-1.6668z" fill="rgb(0,0,0)" fill-rule="evenodd"/></svg>