<svg width="24" height="24" viewBox="0 0 24 24" fill="none" xmlns="http://www.w3.org/2000/svg">
<path d="M17.9194 4.45508C16.344 2.87292 14.2452 2.00157 12.0096 2.00157H12C7.49809 1.90943 3.54856 5.87408 3.64125 10.3743C3.75909 13.552 6.81611 17.5876 9.19673 20.6881C9.89586 21.5233 10.9145 22 12.0089 22C13.1416 22 14.1934 21.4896 14.8943 20.5996C16.6604 18.405 20.4738 13.1265 20.3587 10.3742C20.3588 8.13701 19.4925 6.03489 17.9194 4.45508ZM13.667 19.6329C12.8597 20.6978 11.1614 20.6997 10.3538 19.6347C7.12573 15.5243 5.20356 12.1012 5.20356 10.3743C5.20356 6.61907 8.25242 3.56401 12 3.56401H12.0096C15.7519 3.56401 18.7964 6.61911 18.7964 10.3743C18.7964 12.12 16.9268 15.4946 13.667 19.6329ZM12.0439 13.6803C10.2132 13.6803 8.72379 12.191 8.72379 10.3603C8.90616 5.95572 15.1823 5.95701 15.364 10.3603C15.364 12.191 13.8746 13.6803 12.0439 13.6803ZM12.0439 8.60257C11.0747 8.60257 10.2862 9.39107 10.2862 10.3603C10.3827 12.6921 13.7054 12.6914 13.8016 10.3603C13.8016 9.39107 13.0131 8.60257 12.0439 8.60257Z" fill="black"/>
</svg>
