<svg width="44" height="44" viewBox="0 0 44 44" fill="none" xmlns="http://www.w3.org/2000/svg">
<path d="M19.4637 8.38397V24.8438L14.0127 35.7417C13.6374 36.407 12.9463 36.8336 12.1828 36.872H7.43131C6.73175 36.872 6.41185 36.3729 6.73175 35.7417L12.1487 24.8438H2.36835C1.66888 24.8438 1.10156 24.2765 1.10156 23.577V8.38397C1.10156 7.68448 1.66888 7.11719 2.36835 7.11719H18.1969C18.8964 7.11719 19.4637 7.68448 19.4637 8.38397Z" fill="#FFB700"/>
<path d="M42.9012 8.38397V24.8438L37.4544 35.7417C37.0749 36.407 36.3838 36.8336 35.6203 36.872H30.8731C30.1692 36.872 29.8536 36.3729 30.1692 35.7417L35.5904 24.8438H25.8058C25.1064 24.8438 24.5391 24.2765 24.5391 23.577V8.38397C24.5391 7.68448 25.1064 7.11719 25.8058 7.11719H41.6344C42.3339 7.11719 42.9012 7.68448 42.9012 8.38397Z" fill="#FFB700"/>
</svg>
