<svg width="17" height="21" viewBox="0 0 17 21" fill="none" xmlns="http://www.w3.org/2000/svg">
<g clip-path="url(#clip0_3211_17929)">
<path d="M13.7892 2.36244C12.8461 1.59022 11.7434 1.03693 10.5605 0.742484C9.37772 0.448035 8.14429 0.419763 6.94922 0.659707C5.4126 0.974744 3.99893 1.72485 2.87661 2.82066C1.75428 3.91648 0.970602 5.31181 0.618928 6.84046C0.267255 8.3691 0.362408 9.96662 0.893053 11.4427C1.4237 12.9188 2.36747 14.2112 3.61194 15.1661C5.03279 16.206 6.24253 17.5071 7.17649 18.9997L7.81285 20.0579C7.89368 20.1923 8.0079 20.3035 8.14442 20.3807C8.28093 20.458 8.43511 20.4985 8.59195 20.4985C8.74878 20.4985 8.90296 20.458 9.03948 20.3807C9.17599 20.3035 9.29021 20.1923 9.37104 20.0579L9.98104 19.0415C10.7943 17.6119 11.9032 16.3722 13.2338 15.4052C14.277 14.6874 15.1392 13.737 15.7523 12.6289C16.3654 11.5209 16.7127 10.2855 16.7666 9.02032C16.8206 7.75512 16.5798 6.49468 16.0632 5.33847C15.5467 4.18225 14.7685 3.16189 13.7901 2.35789L13.7892 2.36244ZM8.59104 12.3179C7.87183 12.3179 7.16878 12.1046 6.57078 11.7051C5.97278 11.3055 5.5067 10.7376 5.23147 10.0731C4.95624 9.40865 4.88423 8.6775 5.02454 7.97212C5.16485 7.26673 5.51118 6.61879 6.01974 6.11023C6.52829 5.60168 7.17623 5.25535 7.88162 5.11504C8.587 4.97473 9.31815 5.04674 9.98261 5.32197C10.6471 5.5972 11.215 6.06328 11.6146 6.66128C12.0141 7.25927 12.2274 7.96233 12.2274 8.68154C12.2274 9.64596 11.8443 10.5709 11.1623 11.2528C10.4804 11.9348 9.55546 12.3179 8.59104 12.3179Z" fill="#8D8D8D"/>
<rect x="4" y="5" width="9" height="8" fill="#8D8D8D"/>
</g>
<defs>
<clipPath id="clip0_3211_17929">
<rect width="17" height="21" fill="white"/>
</clipPath>
</defs>
</svg>
