<svg width="24" height="24" viewBox="0 0 24 24" fill="none" xmlns="http://www.w3.org/2000/svg">
<path d="M19.4989 7.76172V9.75034C19.4989 12.6453 17.1439 15.0003 14.2489 15.0003H5.31641C5.67416 17.1277 7.51991 18.7503 9.74891 18.7503H20.2489L22.4989 21.0003V12.0003C22.4989 10.0417 21.2457 8.38009 19.4989 7.76172Z" fill="#E8A700"/>
<path d="M6.81641 14.9961H5.31641C5.67416 17.1235 7.51991 18.7461 9.74891 18.7461H11.2489C9.01991 18.7461 7.17416 17.1235 6.81641 14.9961Z" fill="#B58200"/>
<path d="M6 3C3.51488 3 1.5 5.01488 1.5 7.5V16.5L3.75 14.25H14.25C16.7351 14.25 18.75 12.2351 18.75 9.75V7.5C18.75 5.01488 16.7351 3 14.25 3H6Z" fill="#FFB700"/>
<path d="M3 7.5C3 5.01488 5.01488 3 7.5 3H6C3.51488 3 1.5 5.01488 1.5 7.5V16.5L3 15V7.5Z" fill="#E8A700"/>
<path d="M8.24609 9.75C7.83172 9.75 7.49609 9.41438 7.49609 9C7.49609 8.58562 7.83172 8.25 8.24609 8.25C8.66047 8.25 8.99609 8.58562 8.99609 9C8.99609 9.41438 8.66047 9.75 8.24609 9.75Z" fill="#F0F0F0"/>
<path d="M10.5 9.75C10.0856 9.75 9.75 9.41438 9.75 9C9.75 8.58562 10.0856 8.25 10.5 8.25C10.9144 8.25 11.25 8.58562 11.25 9C11.25 9.41438 10.9144 9.75 10.5 9.75Z" fill="#F0F0F0"/>
<path d="M12.7461 9.75C12.3317 9.75 11.9961 9.41438 11.9961 9C11.9961 8.58562 12.3317 8.25 12.7461 8.25C13.1605 8.25 13.4961 8.58562 13.4961 9C13.4961 9.41438 13.1605 9.75 12.7461 9.75Z" fill="#F0F0F0"/>
</svg>
