<svg width="24" height="24" viewBox="0 0 24 24" fill="none" xmlns="http://www.w3.org/2000/svg">
<path d="M19.5696 19.575C14.534 20.0372 9.46671 20.0372 4.43113 19.575C3.15313 19.4508 1.92565 18.2734 1.7629 16.9929C1.27765 12.949 1.27695 8.86159 1.76082 4.81751C1.92358 3.53702 3.15064 2.36172 4.42906 2.23583C5.53865 2.13395 6.6492 2.05472 7.76073 1.99812C7.96633 1.98661 8.17172 2.0243 8.35985 2.10806C8.54798 2.19182 8.71341 2.31925 8.84243 2.47975C9.49551 3.27695 10.1776 4.08988 10.8816 4.91069C10.9713 5.01491 11.0824 5.09849 11.2075 5.15568C11.3325 5.21287 11.4684 5.24232 11.6059 5.24199C14.369 5.23454 17.1311 5.30591 19.8922 5.4561C21.2307 5.53644 22.4379 6.66494 22.5166 7.94791C22.6907 10.9654 22.5972 13.9924 22.237 16.9933C22.0751 18.2746 20.848 19.4508 19.5696 19.575Z" fill="#E8A700"/>
<path d="M11.9997 8.14458C9.36804 8.14458 6.73707 8.21581 4.1068 8.35827C2.76917 8.43696 1.56364 9.56546 1.4833 10.8488C1.31019 13.8637 1.4013 16.0544 1.76242 19.066C1.92559 20.3461 3.15265 21.5222 4.43107 21.6481C6.9498 21.8792 9.47281 21.9947 12.0001 21.9947C14.5274 21.9947 17.0504 21.8792 19.5691 21.6481C20.8476 21.5239 22.0746 20.3461 22.2374 19.066C22.5989 16.0544 22.69 13.8637 22.5186 10.8488C22.4399 9.56504 21.2348 8.43696 19.8942 8.35662C17.2642 8.21305 14.6327 8.14237 11.9997 8.14458Z" fill="#FFB700"/>
<path d="M1.39844 13.7539C1.40258 14.817 1.4502 15.8386 1.5409 16.9257C3.0604 17.6312 4.71589 17.9956 6.39118 17.9933C12.1476 17.9933 16.9159 13.7725 17.7731 8.25717C15.8502 8.18208 13.9258 8.14453 12.0001 8.14453C9.36849 8.14453 6.73753 8.21576 4.10726 8.35822C2.76962 8.43691 1.56409 9.56541 1.48375 10.8488C1.43033 11.7764 1.40216 12.6258 1.39844 13.4454L1.39844 13.7539Z" fill="#FFC533"/>
<path d="M15.1678 15.3887C15.1139 15.3349 15.05 15.2922 14.9797 15.263C14.9093 15.2339 14.8339 15.2189 14.7578 15.2189C14.6816 15.2189 14.6062 15.2339 14.5359 15.263C14.4655 15.2922 14.4016 15.3349 14.3478 15.3887L12.5823 17.1538V11.3767C12.5823 11.2229 12.5213 11.0754 12.4125 10.9667C12.3038 10.858 12.1563 10.7969 12.0026 10.7969C11.8488 10.7969 11.7013 10.858 11.5926 10.9667C11.4839 11.0754 11.4228 11.2229 11.4228 11.3767V17.1538L9.65777 15.3887C9.60393 15.3349 9.54001 15.2922 9.46966 15.2631C9.39932 15.2339 9.32392 15.2189 9.24778 15.2189C9.17164 15.2189 9.09624 15.2339 9.0259 15.2631C8.95555 15.2922 8.89163 15.3349 8.83779 15.3887C8.78395 15.4426 8.74124 15.5065 8.7121 15.5768C8.68297 15.6472 8.66797 15.7226 8.66797 15.7987C8.66797 15.8749 8.68297 15.9503 8.7121 16.0206C8.74124 16.091 8.78395 16.1549 8.83779 16.2087L11.5926 18.9635C11.6464 19.0173 11.7103 19.0601 11.7807 19.0892C11.851 19.1183 11.9264 19.1333 12.0026 19.1333C12.0787 19.1333 12.1541 19.1183 12.2245 19.0892C12.2948 19.0601 12.3587 19.0173 12.4126 18.9635L15.1673 16.2087C15.2212 16.1549 15.264 16.091 15.2931 16.0207C15.3223 15.9503 15.3373 15.875 15.3374 15.7988C15.3374 15.7227 15.3225 15.6473 15.2934 15.5769C15.2642 15.5065 15.2216 15.4426 15.1678 15.3887Z" fill="white"/>
</svg>
