<svg width="24" height="24" viewBox="0 0 24 24" fill="none" xmlns="http://www.w3.org/2000/svg">
<path d="M18.9613 12.7871C20.6316 12.7922 21.9859 14.1707 21.9961 15.8758V18.898C21.9859 20.6047 20.6332 21.9859 18.9613 21.9961H16.0008C14.3305 21.9855 12.9801 20.6031 12.9754 18.898V15.8758C12.9754 14.1699 14.3297 12.7871 16.0008 12.7871H18.9613ZM6.24649 12.7871C6.3997 12.7709 6.55435 12.7987 6.69235 12.8672C6.83036 12.9357 6.94601 13.042 7.02578 13.1738C7.10722 13.307 7.15031 13.4601 7.15031 13.6162C7.15031 13.7723 7.10722 13.9254 7.02578 14.0586C6.94601 14.1904 6.83036 14.2968 6.69235 14.3652C6.55435 14.4337 6.3997 14.4615 6.24649 14.4453H5.03086C4.25547 14.4453 3.62461 15.084 3.62032 15.8758V18.8602C3.63985 19.6453 4.26172 20.2758 5.03086 20.2906H8.01172C8.19725 20.2916 8.38108 20.2553 8.55232 20.1839C8.72357 20.1126 8.87872 20.0075 9.0086 19.875C9.27456 19.6039 9.42315 19.2391 9.42227 18.8594V14.3789L9.40977 14.2676C9.40269 14.1216 9.43385 13.9764 9.50018 13.8462C9.5665 13.716 9.66568 13.6054 9.78789 13.5254C9.92491 13.4364 10.0858 13.3913 10.2491 13.3961C10.4125 13.4009 10.5704 13.4554 10.702 13.5523C10.8349 13.6511 10.9359 13.7868 10.9921 13.9426C11.0484 14.0983 11.0575 14.2672 11.0184 14.4281V18.8887C11.0184 20.5996 9.65977 21.9867 7.9836 21.9867H5.03086C3.36914 21.9516 2.03047 20.5848 1.9961 18.8887V15.8758C1.99474 15.0583 2.31409 14.2729 2.88555 13.6883C3.16497 13.4026 3.49872 13.1757 3.86715 13.0209C4.23558 12.8662 4.63125 12.7867 5.03086 12.7871H6.24649ZM18.9613 14.4453H16.0008C15.227 14.4453 14.5992 15.0855 14.5992 15.8758V18.898C14.5959 19.2771 14.7425 19.6421 15.007 19.9137C15.1362 20.0462 15.2908 20.1514 15.4615 20.2229C15.6323 20.2944 15.8157 20.3307 16.0008 20.3297H18.9613C19.1464 20.3307 19.3298 20.2943 19.5006 20.2229C19.6713 20.1514 19.8259 20.0462 19.9551 19.9137C20.2196 19.6421 20.3662 19.2771 20.3629 18.898V15.8758C20.3633 15.4979 20.216 15.1348 19.9523 14.8641C19.8234 14.7318 19.6693 14.6266 19.4991 14.5547C19.3289 14.4828 19.1461 14.4456 18.9613 14.4453ZM18.9613 1.99609C20.6191 2.03516 21.9523 3.40234 21.9867 5.09414V8.10703C21.9982 8.92288 21.6897 9.71077 21.1273 10.302C20.8524 10.5911 20.5225 10.8224 20.157 10.9824C19.7915 11.1424 19.3978 11.2278 18.9988 11.2336H17.7734C17.5719 11.2077 17.3867 11.1092 17.2524 10.9566C17.1182 10.804 17.0442 10.6077 17.0442 10.4045C17.0442 10.2013 17.1182 10.005 17.2524 9.8524C17.3867 9.6998 17.5719 9.60133 17.7734 9.57539H18.9613C19.1481 9.57399 19.3326 9.53513 19.504 9.46112C19.6755 9.38711 19.8303 9.27946 19.9594 9.14453C20.2234 8.86828 20.3682 8.49928 20.3625 8.11719V5.09414C20.3527 4.3082 19.7305 3.67578 18.9613 3.66367H16.0008C15.227 3.66367 14.5992 4.30391 14.5992 5.09414V9.61328L14.5898 9.71719C14.5608 9.91523 14.4613 10.0961 14.3096 10.2267C14.1579 10.3573 13.9642 10.4288 13.7641 10.4281C13.6568 10.4254 13.5512 10.4012 13.4535 10.3568C13.3558 10.3124 13.268 10.2489 13.1953 10.1699C13.0461 10.0083 12.967 9.79406 12.9754 9.57422V5.09414C12.9713 4.27659 13.2883 3.49012 13.8582 2.90391C14.1367 2.61727 14.4697 2.38928 14.8377 2.23337C15.2057 2.07746 15.6011 1.99678 16.0008 1.99609L18.9613 1.99609ZM7.99141 1.99609C9.66524 2.00117 11.0195 3.38516 11.0262 5.09414V8.11641C11.0275 8.9339 10.7082 9.71932 10.1367 10.3039C9.85733 10.5896 9.52359 10.8166 9.15515 10.9713C8.78671 11.1261 8.39103 11.2056 7.99141 11.2051H5.03086C3.36055 11.2 2.00625 9.82148 1.9961 8.11641V5.09414C2.00625 3.3875 3.35899 2.00625 5.03086 1.99609H7.99141ZM7.99141 3.66367H5.03086C4.8438 3.66008 4.65795 3.69444 4.48454 3.76467C4.31112 3.83489 4.15374 3.93953 4.02188 4.07227C3.75196 4.34378 3.6008 4.71129 3.60157 5.09414V8.11641C3.59755 8.30833 3.63174 8.49914 3.70216 8.67772C3.77257 8.85631 3.8778 9.01911 4.01172 9.15664C4.14408 9.29214 4.30279 9.3991 4.47807 9.47091C4.65335 9.54273 4.84148 9.57789 5.03086 9.57422H7.99141C8.17785 9.57281 8.36212 9.53406 8.53333 9.46026C8.70455 9.38646 8.85924 9.27911 8.98828 9.14453C9.25228 8.86823 9.39718 8.49929 9.3918 8.11719V5.09414C9.38672 4.30625 8.76211 3.66875 7.99024 3.66367H7.99141Z" fill="white"/>
</svg>
