<svg width="24" height="24" viewBox="0 0 24 24" fill="none" xmlns="http://www.w3.org/2000/svg">
<path d="M12.0025 2H11.9975C6.48375 2 2 6.485 2 12C2 14.1875 2.705 16.215 3.90375 17.8613L2.6575 21.5763L6.50125 20.3475C8.0825 21.395 9.96875 22 12.0025 22C17.5162 22 22 17.5137 22 12C22 6.48625 17.5162 2 12.0025 2Z" fill="#4CAF50"/>
<path d="M17.8187 16.1256C17.5775 16.8069 16.62 17.3719 15.8562 17.5369C15.3337 17.6481 14.6512 17.7369 12.3537 16.7844C9.415 15.5669 7.5225 12.5806 7.375 12.3869C7.23375 12.1931 6.1875 10.8056 6.1875 9.37063C6.1875 7.93563 6.91625 7.23688 7.21 6.93688C7.45125 6.69063 7.85 6.57812 8.2325 6.57812C8.35625 6.57812 8.4675 6.58438 8.5675 6.58938C8.86125 6.60188 9.00875 6.61938 9.2025 7.08313C9.44375 7.66438 10.0312 9.09938 10.1012 9.24688C10.1725 9.39438 10.2437 9.59438 10.1437 9.78813C10.05 9.98813 9.9675 10.0769 9.82 10.2469C9.6725 10.4169 9.5325 10.5469 9.385 10.7294C9.25 10.8881 9.0975 11.0581 9.2675 11.3519C9.4375 11.6394 10.025 12.5981 10.89 13.3681C12.0062 14.3619 12.9112 14.6794 13.235 14.8144C13.4762 14.9144 13.7637 14.8906 13.94 14.7031C14.1637 14.4619 14.44 14.0619 14.7212 13.6681C14.9212 13.3856 15.1737 13.3506 15.4387 13.4506C15.7087 13.5444 17.1375 14.2506 17.4312 14.3969C17.725 14.5444 17.9187 14.6144 17.99 14.7381C18.06 14.8619 18.06 15.4431 17.8187 16.1256Z" fill="#FAFAFA"/>
</svg>
