<svg width="32" height="32" viewBox="0 0 32 32" fill="none" xmlns="http://www.w3.org/2000/svg">
<g clip-path="url(#clip0_40000690_4018)">
<path d="M26.2195 10.831C25.9741 9.90729 25.2512 9.17979 24.3337 8.93271C22.6699 8.48438 15.9987 8.48438 15.9987 8.48438C15.9987 8.48438 9.32745 8.48438 7.6637 8.93271C6.7462 9.17979 6.02328 9.90729 5.77786 10.831C5.33203 12.5056 5.33203 15.9994 5.33203 15.9994C5.33203 15.9994 5.33203 19.4931 5.77786 21.1677C6.02328 22.0915 6.7462 22.819 7.6637 23.066C9.32745 23.5144 15.9987 23.5144 15.9987 23.5144C15.9987 23.5144 22.6699 23.5144 24.3337 23.066C25.2512 22.819 25.9741 22.0915 26.2195 21.1677C26.6654 19.4931 26.6654 15.9994 26.6654 15.9994C26.6654 15.9994 26.6654 12.5056 26.2195 10.831ZM13.817 19.1715V12.8273L19.3924 15.9994L13.817 19.1715Z" fill="white"/>
</g>
<defs>
<clipPath id="clip0_40000690_4018">
<rect width="21.3333" height="21.3333" fill="white" transform="translate(5.33203 5.33203)"/>
</clipPath>
</defs>
</svg>
