<svg width="128" height="128" viewBox="0 0 128 128" fill="none" xmlns="http://www.w3.org/2000/svg">
<path d="M22 62.0009H14V49.6939C14 49.2769 14.259 48.9039 14.649 48.7579L20.649 46.5079C21.303 46.2629 22 46.7459 22 47.4439V62.0009Z" fill="#FFB700"/>
<path d="M36 53V115H10V61L36 53Z" fill="#FFB700"/>
<path d="M36 53V63L35.02 63.3L10 71V61L36 53Z" fill="#FFC533"/>
<path d="M32.578 72.513L18.705 76.783C18.286 76.912 18 77.3 18 77.739V83.186C18 83.859 18.651 84.34 19.294 84.142L30.643 80.649C31.375 80.424 32.085 81.07 31.919 81.817C31.564 83.416 31.18 85.022 30.764 86.619C30.589 87.291 30.074 87.824 29.41 88.028L18.706 91.323C18.286 91.452 18 91.84 18 92.278V97.645C18 98.318 18.651 98.799 19.294 98.601L23.867 97.194C25.503 96.691 26.98 98.347 26.291 99.913C22.471 108.6 17.212 115 10 115H36V93.46V86V79V71.46V53C36 53 35.551 60.825 33.967 70.913C33.849 71.667 33.307 72.289 32.578 72.513Z" fill="#E8A700"/>
<path d="M35.9995 53V63L35.0195 63.3C35.7595 57.15 35.9995 53 35.9995 53Z" fill="#E8A700"/>
<path d="M84 11V115H36V28L84 11Z" fill="#FFDE8A"/>
<path d="M84 21V29L47 42.1V34.1L84 21Z" fill="#FFC533"/>
<path d="M84 37.9004V45.9004L47 59.0004V51.0004L84 37.9004Z" fill="#FFC533"/>
<path d="M84 54.8008V62.8008L47 75.9008V67.9008L84 54.8008Z" fill="#FFC533"/>
<path d="M84 72V80L47 93.1V85.1L84 72Z" fill="#FFC533"/>
<path d="M69 93.6309V115.001H51V100.001L59 97.1709L61 96.4609L69 93.6309Z" fill="#789AF9"/>
<path d="M69 93.6309V115.001H51V100.001L59 97.1709L61 96.4609L69 93.6309Z" fill="#FFC533"/>
<path d="M61 96.4609V115.001H59V97.1709L61 96.4609Z" fill="#E8A700"/>
<path d="M84 11L99 26V115H84V11Z" fill="#ECEAFD"/>
<path d="M110 60V115H84V68L110 60Z" fill="#FFB700"/>
<path d="M90.9999 77.3463C90.3589 77.3463 89.7659 76.9313 89.5669 76.2863C89.3229 75.4943 89.7669 74.6553 90.5589 74.4113L102.559 70.7193C103.351 70.4753 104.191 70.9193 104.434 71.7123C104.678 72.5043 104.234 73.3433 103.442 73.5873L91.4419 77.2793C91.2949 77.3243 91.1469 77.3463 90.9999 77.3463Z" fill="#ECEAFD"/>
<path d="M90.9999 86.5002C90.3589 86.5002 89.7659 86.0852 89.5669 85.4402C89.3229 84.6482 89.7669 83.8092 90.5589 83.5652L102.559 79.8732C103.351 79.6302 104.191 80.0732 104.434 80.8662C104.678 81.6582 104.234 82.4972 103.442 82.7412L91.4419 86.4332C91.2949 86.4792 91.1469 86.5002 90.9999 86.5002Z" fill="#ECEAFD"/>
<path d="M90.9999 95.6545C90.3589 95.6545 89.7659 95.2395 89.5669 94.5945C89.3229 93.8025 89.7669 92.9635 90.5589 92.7195L102.559 89.0275C103.351 88.7845 104.191 89.2275 104.434 90.0205C104.678 90.8125 104.234 91.6515 103.442 91.8955L91.4419 95.5875C91.2949 95.6335 91.1469 95.6545 90.9999 95.6545Z" fill="#ECEAFD"/>
<path d="M120 69V115H110V60L120 69Z" fill="#FFC533"/>
<path d="M22 111V115H4V109C4 105.69 6.69 103 10 103C12.84 103 15.23 104.98 15.84 107.64C16.47 107.23 17.21 107 18 107C20.21 107 22 108.79 22 111Z" fill="#009B77"/>
<path d="M106 111V115H124V109C124 105.69 121.31 103 118 103C115.16 103 112.77 104.98 112.16 107.64C111.53 107.23 110.79 107 110 107C107.79 107 106 108.79 106 111Z" fill="#009B77"/>
</svg>
