<svg width="128" height="128" viewBox="0 0 128 128" fill="none" xmlns="http://www.w3.org/2000/svg">
<path d="M42.0822 62.7118C42.0822 67.4562 38.2316 71.3067 33.4872 71.3067C31.1408 71.3067 29.0179 70.3699 27.4708 68.8486C25.9237 70.3699 23.8007 71.3067 21.4543 71.3067C16.7099 71.3067 12.8594 67.4562 12.8594 62.7118C12.8594 59.6176 14.4924 56.9188 16.942 55.4061C14.4924 53.8934 12.8594 51.186 12.8594 48.1004C12.8594 44.078 15.6269 40.7087 19.3657 39.7719C19.0563 38.878 18.8758 37.924 18.8758 36.927C18.8758 32.1826 22.7264 28.332 27.4708 28.332C32.2152 28.332 36.0657 32.1826 36.0657 36.927C36.0657 37.924 35.8852 38.878 35.5758 39.7719C39.3146 40.7087 42.0822 44.078 42.0822 48.1004C42.0822 51.186 40.4491 53.8934 37.9996 55.4061C40.4491 56.9188 42.0822 59.6176 42.0822 62.7118Z" fill="#009B77"/>
<path d="M27.4735 39.5059C26.9982 39.5059 26.614 39.8901 26.614 40.3654V50.9174L21.8833 48.2142C21.4708 47.9762 20.9456 48.1223 20.711 48.534C20.4755 48.9457 20.619 49.4708 21.0307 49.7063L26.614 52.8968V68.849C26.614 69.3243 26.9982 69.7085 27.4735 69.7085C27.9488 69.7085 28.333 69.3243 28.333 68.849V40.3654C28.333 39.8901 27.9488 39.5059 27.4735 39.5059Z" fill="#B0E0D5"/>
<path d="M83.3422 55.8348C92.8359 55.8348 100.532 48.1387 100.532 38.6449C100.532 29.1512 92.8359 21.4551 83.3422 21.4551C73.8485 21.4551 66.1523 29.1512 66.1523 38.6449C66.1523 48.1387 73.8485 55.8348 83.3422 55.8348Z" fill="#FFB700"/>
<path d="M101.95 28.7605C101.653 28.7605 101.364 28.6067 101.205 28.3308C100.968 27.9191 101.109 27.3939 101.52 27.1567L105.241 25.008C105.651 24.7707 106.178 24.9108 106.415 25.3225C106.653 25.7342 106.512 26.2594 106.101 26.4966L102.379 28.6453C102.244 28.7235 102.096 28.7605 101.95 28.7605Z" fill="#FFDE8A"/>
<path d="M94.0819 20.8963C93.9358 20.8963 93.7879 20.8593 93.653 20.7811C93.2413 20.5439 93.1003 20.0179 93.3384 19.607L95.4872 15.8854C95.7244 15.4737 96.2512 15.3328 96.6612 15.5708C97.0729 15.8081 97.2139 16.3341 96.9758 16.7449L94.8271 20.4665C94.668 20.7416 94.3793 20.8963 94.0819 20.8963Z" fill="#FFDE8A"/>
<path d="M83.34 18.0165C82.8647 18.0165 82.4805 17.6323 82.4805 17.157V12.8595C82.4805 12.3842 82.8647 12 83.34 12C83.8153 12 84.1995 12.3842 84.1995 12.8595V17.157C84.1995 17.6323 83.8153 18.0165 83.34 18.0165Z" fill="#FFDE8A"/>
<path d="M72.595 20.8959C72.2977 20.8959 72.0089 20.742 71.8499 20.4661L69.7011 16.7445C69.4639 16.3328 69.6049 15.8077 70.0157 15.5705C70.4257 15.3332 70.9517 15.4733 71.1898 15.885L73.3385 19.6066C73.5757 20.0183 73.4348 20.5435 73.0239 20.7807C72.889 20.8589 72.7412 20.8959 72.595 20.8959Z" fill="#FFDE8A"/>
<path d="M64.7293 28.7609C64.5832 28.7609 64.4353 28.7239 64.3004 28.6457L60.5788 26.497C60.1671 26.2598 60.0261 25.7337 60.2642 25.3229C60.5014 24.9112 61.0283 24.7703 61.4383 25.0083L65.1599 27.1571C65.5716 27.3943 65.7125 27.9203 65.4745 28.3311C65.3146 28.607 65.0258 28.7609 64.7293 28.7609Z" fill="#FFDE8A"/>
<path d="M61.8523 39.5041H57.5548C57.0795 39.5041 56.6953 39.1199 56.6953 38.6446C56.6953 38.1693 57.0795 37.7852 57.5548 37.7852H61.8523C62.3276 37.7852 62.7118 38.1693 62.7118 38.6446C62.7118 39.1199 62.3276 39.5041 61.8523 39.5041Z" fill="#FFDE8A"/>
<path d="M105.671 52.3957C105.525 52.3957 105.377 52.3587 105.242 52.2805L101.52 50.1317C101.108 49.8945 100.968 49.3685 101.206 48.9577C101.443 48.546 101.969 48.405 102.38 48.6431L106.101 50.7918C106.513 51.0291 106.654 51.5551 106.416 51.9659C106.257 52.2418 105.968 52.3957 105.671 52.3957Z" fill="#FFDE8A"/>
<path d="M109.126 39.5041H104.828C104.353 39.5041 103.969 39.1199 103.969 38.6446C103.969 38.1693 104.353 37.7852 104.828 37.7852H109.126C109.601 37.7852 109.985 38.1693 109.985 38.6446C109.985 39.1199 109.601 39.5041 109.126 39.5041Z" fill="#FFDE8A"/>
<path d="M113.418 81.6199H107.402V116H60.9891V81.6199H54.9727L84.1954 48.0996L113.418 81.6199Z" fill="#FFCF54"/>
<path d="M107.408 93.6526V91.9336H99.5782C99.1055 91.9336 98.7188 92.3204 98.7188 92.7931V105.685C98.7188 106.158 99.1055 106.545 99.5782 106.545H107.408V104.826H100.438V102.248H107.408V100.529H100.438V97.95H107.408V96.2311H100.438V93.6526H107.408Z" fill="#E8A700"/>
<path d="M99.6679 109.984H73.883C72.9333 109.984 72.1641 109.214 72.1641 108.265V89.3557C72.1641 88.406 72.9333 87.6367 73.883 87.6367H99.6679C100.618 87.6367 101.387 88.406 101.387 89.3557V108.265C101.387 109.214 100.618 109.984 99.6679 109.984Z" fill="#FFB700"/>
<g clip-path="url(#clip0_40000582_18295)">
<path d="M87.8438 103.315C87.9782 102.486 87.415 101.705 86.5858 101.571C85.7566 101.436 84.9755 102 84.841 102.829C84.7066 103.658 85.2698 104.439 86.099 104.573C86.9282 104.708 87.7094 104.145 87.8438 103.315Z" fill="white"/>
<path d="M94.0599 95.3603C91.8678 93.1682 89.0487 92.166 86.3488 92.166C83.6488 92.166 80.8298 93.1682 78.6376 95.3603C78.0318 95.9668 78.0346 96.906 78.632 97.5059C79.378 98.2602 80.3548 97.96 80.7921 97.508C82.277 96.0251 84.2502 95.2084 86.3488 95.2084C88.4474 95.2084 90.4206 96.0251 91.9054 97.508C92.3428 97.96 93.3196 98.2602 94.0656 97.5059C94.663 96.906 94.6658 95.9668 94.0599 95.3603Z" fill="white"/>
<path d="M86.3479 96.8594C84.8354 96.8594 83.2125 97.4217 81.9549 98.679C81.3413 99.2925 81.3535 100.236 81.961 100.837C82.5642 101.436 83.5026 101.434 84.1056 100.831C84.7045 100.232 85.5008 99.9019 86.3479 99.9019C87.1949 99.9019 87.9912 100.232 88.5901 100.831C89.1931 101.434 90.1316 101.436 90.7347 100.837C91.3422 100.236 91.3544 99.2925 90.7409 98.679C89.4833 97.4217 87.8604 96.8594 86.3479 96.8594Z" fill="white"/>
</g>
<path d="M72.1682 81.6199H66.1518V116H19.7391V81.6199H13.7227L42.9454 48.0996L72.1682 81.6199Z" fill="#EAE8FB"/>
<path d="M72.1682 81.6199H66.1518V116H19.7391V81.6199H13.7227L42.9454 48.0996L72.1682 81.6199Z" fill="#FFDE8A"/>
<path d="M51.5375 116H34.3477V90.2151C34.3477 89.2653 35.1169 88.4961 36.0666 88.4961H49.8185C50.7683 88.4961 51.5375 89.2653 51.5375 90.2151V116Z" fill="#FFB555"/>
<path d="M47.2425 104.826H45.5236C45.0483 104.826 44.6641 104.442 44.6641 103.967C44.6641 103.492 45.0483 103.107 45.5236 103.107H47.2425C47.7178 103.107 48.102 103.492 48.102 103.967C48.102 104.442 47.7178 104.826 47.2425 104.826Z" fill="#EAE8FB"/>
<path d="M50.6779 81.6196H35.207V72.1651C35.207 67.8926 38.6699 64.4297 42.9425 64.4297C47.215 64.4297 50.6779 67.8926 50.6779 72.1651V81.6196Z" fill="#FFE9B0"/>
<path d="M42.9426 63.5684C38.2033 63.5684 34.3477 67.424 34.3477 72.1633V81.6177C34.3477 82.093 34.7318 82.4772 35.2071 82.4772H50.678C51.1533 82.4772 51.5375 82.093 51.5375 81.6177V72.1633C51.5375 67.424 47.6818 63.5684 42.9426 63.5684ZM49.8185 72.1633V73.0228H43.8021V65.3467C47.1885 65.7721 49.8185 68.6634 49.8185 72.1633ZM42.0831 65.3467V73.0228H36.0666V72.1633C36.0666 68.6634 38.6967 65.7721 42.0831 65.3467ZM36.0666 74.7418H42.0831V80.7582H36.0666V74.7418ZM43.8021 80.7582V74.7418H49.8185V80.7582H43.8021Z" fill="#FFC533"/>
<path d="M42.9414 48.0996H84.1971L113.42 81.6199H72.1642L42.9414 48.0996Z" fill="#FFB700"/>
<path d="M116.002 74.7424H74.7459L66.3744 65.288L64.8531 63.569L57.238 54.9741L55.7167 53.2551L48.772 45.4165C48.3336 44.9266 48.1016 44.6602 48.1016 44.6602H89.3573L96.9724 53.2551L98.4937 54.9741L106.109 63.569L107.63 65.288L116.002 74.7424Z" fill="#FFCF54"/>
<path d="M107.628 65.288L106.107 63.569H96.0767L88.4615 54.9741H98.4918L96.9705 53.2551H86.9402L79.3337 44.6602H77.0303L84.6454 53.2551H70.6099L63.0033 44.6602H60.6999L68.315 53.2551H55.7148L57.2361 54.9741H69.8363L77.4514 63.569H64.8513L66.3726 65.288H78.9727L87.3442 74.7424H89.6476L81.2676 65.288H95.3031L103.675 74.7424H105.969L97.598 65.288H107.628ZM79.7463 63.569L72.1312 54.9741H86.1667L93.7818 63.569H79.7463Z" fill="#E8A700"/>
<path d="M115.139 116.858H12.8595C12.3842 116.858 12 116.473 12 115.998C12 115.523 12.3842 115.139 12.8595 115.139H115.139C115.615 115.139 115.999 115.523 115.999 115.998C115.999 116.473 115.615 116.858 115.139 116.858Z" fill="#54BCA4"/>
<defs>
<clipPath id="clip0_40000582_18295">
<rect width="16.3304" height="16.3304" fill="white" transform="translate(78.1836 90.2148)"/>
</clipPath>
</defs>
</svg>
