<svg width="30" height="30" viewBox="0 0 30 30" fill="none" xmlns="http://www.w3.org/2000/svg">
<path d="M14.3008 5.98438H5.74063C5.28634 5.98438 4.91797 6.35274 4.91797 6.80703C4.91797 7.26132 5.28634 7.62969 5.74063 7.62969H14.2999C14.7542 7.62969 15.1226 7.26132 15.1226 6.80703C15.1226 6.35274 14.7551 5.98438 14.3008 5.98438Z" fill="#D50040"/>
<path d="M9.88773 9.58203H5.74063C5.28634 9.58203 4.91797 9.9504 4.91797 10.4047C4.91797 10.859 5.28634 11.2273 5.74063 11.2273H9.88773C10.342 11.2273 10.7104 10.859 10.7104 10.4047C10.7104 9.9504 10.342 9.58203 9.88773 9.58203Z" fill="#D50040"/>
<path d="M23.0166 18.7949C23.5608 18.7949 24.002 18.3538 24.002 17.8096C24.002 17.2654 23.5608 16.8242 23.0166 16.8242C22.4724 16.8242 22.0312 17.2654 22.0312 17.8096C22.0312 18.3538 22.4724 18.7949 23.0166 18.7949Z" fill="#FFB700"/>
<path d="M18.2432 17.8096C18.2432 18.3534 18.6837 18.7949 19.2276 18.7949C19.7715 18.7949 20.213 18.3544 20.213 17.8096C20.213 17.2648 19.7724 16.8242 19.2276 16.8242C18.6837 16.8242 18.2432 17.2657 18.2432 17.8096Z" fill="#FFB700"/>
<path d="M15.4375 18.7949C15.9817 18.7949 16.4229 18.3538 16.4229 17.8096C16.4229 17.2654 15.9817 16.8242 15.4375 16.8242C14.8933 16.8242 14.4521 17.2654 14.4521 17.8096C14.4521 18.3538 14.8933 18.7949 15.4375 18.7949Z" fill="#FFB700"/>
<path d="M25.1184 10.6094H21.4073C20.953 10.6094 20.5846 10.9777 20.5846 11.432C20.5846 11.8863 20.953 12.2547 21.4073 12.2547H25.1193C25.9356 12.2547 26.5992 12.9192 26.5992 13.7355V21.8798C26.5992 22.696 25.9346 23.3596 25.1193 23.3596H22.2574C22.0343 23.3596 21.8214 23.451 21.6669 23.6101C21.5124 23.7691 21.4283 23.9858 21.4356 24.2088L21.5088 26.1932L17.9521 23.5242C17.8105 23.4172 17.6368 23.3587 17.4585 23.3587H13.3453C12.5244 23.3587 11.8563 22.6942 11.8563 21.8788V19.5498C11.8563 19.0955 11.4879 18.7272 11.0336 18.7272C10.5793 18.7272 10.2109 19.0955 10.2109 19.5498V21.8816C10.2109 23.6055 11.6177 25.0077 13.3462 25.0077H17.1852L20.5152 27.5058C20.8086 27.7316 21.1568 27.8468 21.5078 27.8468C21.7647 27.8468 22.0225 27.7855 22.2629 27.6603C22.8323 27.3651 23.1705 26.7837 23.1449 26.1503L23.1084 25.0077H25.1202C26.8441 25.0077 28.2463 23.6055 28.2463 21.8816V13.7373C28.2445 12.0134 26.8423 10.6094 25.1184 10.6094Z" fill="#FFB700"/>
<path d="M15.9069 15.7997C17.6317 15.7997 19.0357 14.3957 19.0357 12.67V4.53118C19.0357 2.80634 17.6317 1.40234 15.9069 1.40234H4.13469C2.40986 1.40234 1.00586 2.80634 1.00586 4.53118V12.67C1.00586 14.3957 2.40986 15.7997 4.13561 15.7997H6.13923L6.10267 16.9432C6.08348 17.5803 6.42259 18.1589 6.98748 18.4524C7.2288 18.5776 7.48839 18.6388 7.74616 18.6388C8.0935 18.6388 8.4381 18.5273 8.7306 18.3079L12.0678 15.7997H15.9069ZM11.2982 14.319L7.74616 16.9962L7.81014 15.0036C7.81745 14.7806 7.73427 14.5648 7.57888 14.4049C7.42349 14.2449 7.21143 14.1544 6.9884 14.1544H4.13469C3.3157 14.1544 2.65117 13.489 2.65117 12.6709V4.53118C2.65117 3.71309 3.31661 3.04857 4.13469 3.04857H15.9069C16.725 3.04857 17.3895 3.71401 17.3895 4.53118V12.67C17.3895 13.489 16.7241 14.1535 15.9069 14.1535H11.7927C11.6145 14.1535 11.4417 14.212 11.2982 14.319Z" fill="#FFB700"/>
</svg>
