<svg fill="none" height="512" viewBox="0 0 24 24" width="512" xmlns="http://www.w3.org/2000/svg"><g clip-rule="evenodd" fill="rgb(0,0,0)" fill-rule="evenodd"><path d="m2 17.1282c0-1.5577 1.26279-2.8205 2.82051-2.8205 1.55773 0 2.82052 1.2628 2.82052 2.8205v2.0513c0 1.5577-1.26279 2.8205-2.82052 2.8205-1.55772 0-2.82051-1.2628-2.82051-2.8205zm2.82051-1.282c-.70805 0-1.28205.5739-1.28205 1.282v2.0513c0 .708.574 1.282 1.28205 1.282.70806 0 1.28205-.574 1.28205-1.282v-2.0513c0-.7081-.57399-1.282-1.28205-1.282z"/><path d="m9.17949 10.9744c0-1.55777 1.26281-2.82055 2.82051-2.82055s2.8205 1.26278 2.8205 2.82055v8.2051c0 1.5577-1.2628 2.8205-2.8205 2.8205s-2.82051-1.2628-2.82051-2.8205zm2.82051-1.28209c-.7081 0-1.2821.57399-1.2821 1.28209v8.2051c0 .708.574 1.282 1.2821 1.282s1.2821-.574 1.2821-1.282v-8.2051c0-.7081-.574-1.28209-1.2821-1.28209z"/><path d="m16.359 4.82051c0-1.55772 1.2628-2.82051 2.8205-2.82051s2.8205 1.26279 2.8205 2.82051v14.35899c0 1.5577-1.2628 2.8205-2.8205 2.8205s-2.8205-1.2628-2.8205-2.8205zm2.8205-1.28205c-.7081 0-1.2821.574-1.2821 1.28205v14.35899c0 .708.574 1.282 1.2821 1.282.708 0 1.282-.574 1.282-1.282v-14.35899c0-.70805-.574-1.28205-1.282-1.28205z"/></g></svg>