<svg width="20" height="20" viewBox="0 0 20 20" fill="none" xmlns="http://www.w3.org/2000/svg">
<path fill-rule="evenodd" clip-rule="evenodd" d="M14.4913 3.125C14.1878 3.125 13.8763 3.18976 13.578 3.3118C13.289 3.43001 13.0336 3.59994 12.8082 3.82527L4.05825 12.5669C4.05832 12.5668 4.05818 12.567 4.05825 12.5669C3.84299 12.7823 3.70839 13.0496 3.66906 13.3417L3.66834 13.3471L3.16838 16.8312L6.65948 16.3304C6.97678 16.2885 7.26283 16.1527 7.47383 15.9419C7.47403 15.9418 7.47368 15.9421 7.47383 15.9419L16.1731 7.19265L16.1744 7.1914C16.3923 6.9735 16.5701 6.7095 16.6878 6.4217L16.6901 6.4161L16.6925 6.41055C16.8149 6.12705 16.8746 5.8203 16.8746 5.5083C16.8746 5.2048 16.8099 4.89331 16.6878 4.59499C16.5674 4.30058 16.397 4.04145 16.181 3.83182L16.1743 3.82532C15.9564 3.60744 15.6925 3.42954 15.4047 3.3118L15.3991 3.30951L15.3935 3.30712C15.11 3.18471 14.8033 3.125 14.4913 3.125ZM13.1047 2.15487C13.5397 1.97691 14.0115 1.875 14.4913 1.875C14.9607 1.875 15.4353 1.96456 15.8835 2.15716C16.3254 2.33881 16.7249 2.60889 17.055 2.93814C17.404 3.27784 17.6658 3.68419 17.8448 4.1217C18.0227 4.55671 18.1246 5.0285 18.1246 5.5083C18.1246 5.9777 18.0351 6.45235 17.8425 6.90055C17.6603 7.3436 17.3893 7.74415 17.0588 8.07475C17.0589 8.0746 17.0586 8.07495 17.0588 8.07475L8.35953 16.824L8.35823 16.8253C7.93688 17.2467 7.39128 17.4938 6.82683 17.5692L3.07738 18.1071C2.90989 18.1408 2.7643 18.1209 2.70943 18.1134C2.70461 18.1128 2.7005 18.1123 2.69713 18.1119L2.6493 18.1059L2.60295 18.0926C2.44768 18.0482 2.30357 17.9652 2.18373 17.8509C2.01822 17.7017 1.95043 17.519 1.92582 17.4527C1.92472 17.4497 1.92371 17.447 1.92278 17.4445L1.91394 17.4209L1.90703 17.3967C1.87691 17.2913 1.84055 17.1082 1.89602 16.8979L2.43024 13.1749C2.43037 13.174 2.4305 13.1731 2.43063 13.1721C2.50846 12.5988 2.77376 12.0837 3.17437 11.6831L11.9244 2.94139C11.9244 2.94132 11.9243 2.94146 11.9244 2.94139C12.2656 2.60016 12.6604 2.33662 13.1047 2.15487Z" fill="#8D8D8D"/>
<path fill-rule="evenodd" clip-rule="evenodd" d="M14.6349 5.37593C14.8781 5.62083 14.8768 6.01653 14.6319 6.25983L13.3653 7.51813C13.1204 7.76138 12.7247 7.76008 12.4814 7.51518C12.2381 7.27033 12.2394 6.87458 12.4843 6.63133L13.751 5.37303C13.9959 5.12973 14.3916 5.13103 14.6349 5.37593Z" fill="#8D8D8D"/>
</svg>
