<svg width="24" height="24" viewBox="0 0 24 24" fill="none" xmlns="http://www.w3.org/2000/svg">
<path d="M22 18.3634C22 18.6045 21.9042 18.8358 21.7337 19.0062C21.5632 19.1767 21.332 19.2725 21.0909 19.2725H10.1818C9.94071 19.2725 9.70948 19.1767 9.53899 19.0062C9.36851 18.8358 9.27273 18.6045 9.27273 18.3634C9.27273 16.9168 9.8474 15.5294 10.8703 14.5065C11.8933 13.4835 13.2806 12.9089 14.7273 12.9089H16.5455C17.9921 12.9089 19.3795 13.4835 20.4024 14.5065C21.4253 15.5294 22 16.9168 22 18.3634ZM15.6364 4.72705C14.9172 4.72705 14.2141 4.94032 13.6161 5.33989C13.0181 5.73946 12.552 6.30738 12.2768 6.97184C12.0016 7.6363 11.9296 8.36745 12.0699 9.07283C12.2102 9.77822 12.5565 10.4262 13.0651 10.9347C13.5736 11.4433 14.2216 11.7896 14.9269 11.9299C15.6323 12.0702 16.3635 11.9982 17.0279 11.723C17.6924 11.4477 18.2603 10.9817 18.6599 10.3837C19.0595 9.78567 19.2727 9.08262 19.2727 8.36341C19.2727 7.39899 18.8896 6.47407 18.2077 5.79212C17.5257 5.11017 16.6008 4.72705 15.6364 4.72705ZM7.45455 4.72705C6.73534 4.72705 6.03229 4.94032 5.43429 5.33989C4.83629 5.73946 4.37021 6.30738 4.09498 6.97184C3.81976 7.6363 3.74774 8.36745 3.88805 9.07283C4.02836 9.77822 4.37469 10.4262 4.88325 10.9347C5.3918 11.4433 6.03974 11.7896 6.74513 11.9299C7.45051 12.0702 8.18166 11.9982 8.84612 11.723C9.51058 11.4477 10.0785 10.9817 10.4781 10.3837C10.8776 9.78567 11.0909 9.08262 11.0909 8.36341C11.0909 7.39899 10.7078 6.47407 10.0258 5.79212C9.34389 5.11017 8.41897 4.72705 7.45455 4.72705ZM7.45455 18.3634C7.45319 17.4085 7.64132 16.4628 8.00804 15.5812C8.37476 14.6995 8.91277 13.8993 9.59091 13.2271C9.03594 13.0175 8.44775 12.9097 7.85455 12.9089H7.05455C5.71473 12.9113 4.43049 13.4446 3.4831 14.392C2.53571 15.3394 2.0024 16.6236 2 17.9634V18.3634C2 18.6045 2.09578 18.8358 2.26627 19.0062C2.43675 19.1767 2.66799 19.2725 2.90909 19.2725H7.61818C7.51234 18.981 7.457 18.6735 7.45455 18.3634Z" fill="black"/>
</svg>
