<svg width="24" height="24" viewBox="0 0 24 24" fill="none" xmlns="http://www.w3.org/2000/svg">
<path fill-rule="evenodd" clip-rule="evenodd" d="M12.0952 2C16.5633 2 20.1905 5.62714 20.1905 10.0952C20.1905 12.4219 19.0295 14.8167 17.5719 16.8276C15.5367 19.6362 12.9914 21.6838 12.9914 21.6838V21.6843C12.4681 22.1052 11.7224 22.1052 11.1991 21.6843V21.6838C11.1991 21.6838 8.65381 19.6362 6.61857 16.8276C5.16095 14.8167 4 12.4219 4 10.0952C4 5.62714 7.62714 2 12.0952 2ZM12.0952 6.7619C13.9348 6.7619 15.4286 8.25571 15.4286 10.0952C15.4286 11.9348 13.9348 13.4286 12.0952 13.4286C10.2557 13.4286 8.7619 11.9348 8.7619 10.0952C8.7619 8.25571 10.2557 6.7619 12.0952 6.7619Z" fill="#D50040"/>
</svg>
