<svg width="36" height="36" viewBox="0 0 36 36" fill="none" xmlns="http://www.w3.org/2000/svg">
<path fill-rule="evenodd" clip-rule="evenodd" d="M16.1295 7.31553L15.3045 9.85503H12.633C11.8215 9.85503 11.1015 10.3785 10.8495 11.151C10.599 11.9235 10.8735 12.7695 11.532 13.2465L13.692 14.817L12.867 17.3565C12.6165 18.129 12.891 18.975 13.548 19.452C14.205 19.9305 15.0945 19.9305 15.753 19.452L17.913 17.883L20.073 19.452C20.73 19.9305 21.621 19.9305 22.278 19.452C22.935 18.975 23.2095 18.129 22.959 17.3565L22.134 14.817L24.294 13.2465C24.951 12.7695 25.2255 11.9235 24.975 11.151C24.723 10.3785 24.0045 9.85503 23.1915 9.85503H20.5215L19.6965 7.31553C19.4445 6.54303 18.7245 6.01953 17.913 6.01953C17.1 6.01953 16.38 6.54303 16.1295 7.31553ZM17.913 9.10803L18.6345 11.328C18.7845 11.7915 19.2165 12.105 19.704 12.105H22.0365L20.1495 13.476C19.755 13.7625 19.59 14.271 19.7415 14.7345L20.4615 16.9545L18.5745 15.582C18.18 15.2955 17.646 15.2955 17.2515 15.582L15.363 16.9545L16.0845 14.7345C16.236 14.271 16.071 13.7625 15.6765 13.476L13.788 12.105H16.122C16.6095 12.105 17.0415 11.7915 17.1915 11.328L17.913 9.10803Z" fill="#FFB700"/>
<path fill-rule="evenodd" clip-rule="evenodd" d="M29.625 13.5C29.625 7.0845 24.4155 1.875 18 1.875C11.5845 1.875 6.375 7.0845 6.375 13.5C6.375 19.9155 11.5845 25.125 18 25.125C24.4155 25.125 29.625 19.9155 29.625 13.5ZM27.375 13.5C27.375 18.6735 23.1735 22.875 18 22.875C12.8265 22.875 8.625 18.6735 8.625 13.5C8.625 8.3265 12.8265 4.125 18 4.125C23.1735 4.125 27.375 8.3265 27.375 13.5Z" fill="#FFB700"/>
<path fill-rule="evenodd" clip-rule="evenodd" d="M7.875 19.5V30.3885C7.875 31.329 8.3775 32.196 9.192 32.664C10.008 33.1335 11.0115 33.129 11.823 32.6565L17.055 29.604C17.6385 29.2635 18.3615 29.2635 18.945 29.604L24.177 32.6565C24.9885 33.129 25.992 33.1335 26.808 32.664C27.6225 32.196 28.125 31.329 28.125 30.3885C28.125 26.4645 28.125 19.5 28.125 19.5C28.125 18.879 27.621 18.375 27 18.375C26.379 18.375 25.875 18.879 25.875 19.5V30.3885C25.875 30.522 25.803 30.6465 25.6875 30.714C25.5705 30.78 25.4265 30.78 25.311 30.7125L20.079 27.66C18.7935 26.9115 17.2065 26.9115 15.921 27.66L10.689 30.7125C10.5735 30.78 10.4295 30.78 10.3125 30.714C10.197 30.6465 10.125 30.522 10.125 30.3885V19.5C10.125 18.879 9.621 18.375 9 18.375C8.379 18.375 7.875 18.879 7.875 19.5Z" fill="#FFB700"/>
</svg>
