<svg width="36" height="36" viewBox="0 0 36 36" fill="none" xmlns="http://www.w3.org/2000/svg">
<path fill-rule="evenodd" clip-rule="evenodd" d="M5.40293 16.5948C7.50593 23.1378 15.8144 28.4283 18.0224 29.7378C20.2379 28.4148 28.6064 23.0658 30.6419 16.6008C31.9784 12.4218 30.7379 7.12833 25.8089 5.53983C23.4209 4.77333 20.6354 5.23983 18.7124 6.72783C18.3104 7.03683 17.7524 7.04283 17.3474 6.73683C15.3104 5.20533 12.6494 4.75683 10.2239 5.53983C5.30243 7.12683 4.06643 12.4203 5.40293 16.5948ZM18.0239 32.1618C17.8379 32.1618 17.6534 32.1168 17.4854 32.0253C17.0159 31.7688 5.95643 25.6728 3.26093 17.2818L3.25943 17.2803C1.56743 11.9973 3.45143 5.35833 9.53393 3.39783C12.3899 2.47383 15.5024 2.88033 18.0194 4.46883C20.4584 2.92683 23.6984 2.50083 26.4974 3.39783C32.5859 5.36133 34.4759 11.9988 32.7854 17.2803C30.1769 25.5753 19.0364 31.7628 18.5639 32.0223C18.3959 32.1153 18.2099 32.1618 18.0239 32.1618Z" fill="#FFB700"/>
<path fill-rule="evenodd" clip-rule="evenodd" d="M26.898 14.3466C26.3175 14.3466 25.8255 13.9011 25.7775 13.3131C25.6785 12.0801 24.8535 11.0391 23.679 10.6596C23.0865 10.4676 22.7625 9.83309 22.953 9.24359C23.1465 8.65259 23.775 8.33159 24.369 8.51759C26.4135 9.17909 27.846 10.9896 28.0215 13.1301C28.071 13.7496 27.6105 14.2926 26.991 14.3421C26.9595 14.3451 26.9295 14.3466 26.898 14.3466Z" fill="#FFB700"/>
</svg>
