<svg width="36" height="36" viewBox="0 0 36 36" fill="none" xmlns="http://www.w3.org/2000/svg">
<path fill-rule="evenodd" clip-rule="evenodd" d="M34.125 24.75V6.75C34.125 5.2995 32.949 4.125 31.5 4.125C26.379 4.125 9.621 4.125 4.5 4.125C3.051 4.125 1.875 5.2995 1.875 6.75V24.75C1.875 26.2005 3.051 27.375 4.5 27.375H31.5C32.949 27.375 34.125 26.2005 34.125 24.75ZM31.875 6.75V24.75C31.875 24.957 31.707 25.125 31.5 25.125H4.5C4.293 25.125 4.125 24.957 4.125 24.75V6.75C4.125 6.543 4.293 6.375 4.5 6.375H31.5C31.707 6.375 31.875 6.543 31.875 6.75Z" fill="#FFB700"/>
<path fill-rule="evenodd" clip-rule="evenodd" d="M25.5 29.625H10.5C9.879 29.625 9.375 30.129 9.375 30.75C9.375 31.371 9.879 31.875 10.5 31.875H25.5C26.121 31.875 26.625 31.371 26.625 30.75C26.625 30.129 26.121 29.625 25.5 29.625Z" fill="#FFB700"/>
<path fill-rule="evenodd" clip-rule="evenodd" d="M13.8749 18.3756V20.2506C13.8749 20.8716 14.3789 21.3756 14.9999 21.3756C15.6209 21.3756 16.1249 20.8716 16.1249 20.2506V18.3756H16.4999C17.1209 18.3756 17.6249 17.8716 17.6249 17.2506C17.6249 16.6296 17.1209 16.1256 16.4999 16.1256H16.1249V11.2506C16.1249 10.7661 15.8144 10.3371 15.3554 10.1826C14.8964 10.0296 14.3909 10.1886 14.0999 10.5756L9.59994 16.5756C9.34494 16.9161 9.30294 17.3721 9.49344 17.7531C9.68394 18.1341 10.0739 18.3756 10.4999 18.3756H13.8749ZM13.8749 16.1256V14.6256L12.7499 16.1256H13.8749Z" fill="#FFB700"/>
<path fill-rule="evenodd" clip-rule="evenodd" d="M18.375 11.25V20.25C18.375 20.871 18.879 21.375 19.5 21.375C20.121 21.375 20.625 20.871 20.625 20.25V11.25C20.625 10.629 20.121 10.125 19.5 10.125C18.879 10.125 18.375 10.629 18.375 11.25Z" fill="#FFB700"/>
<path fill-rule="evenodd" clip-rule="evenodd" d="M24.771 19.1746L21.1395 15.7501L24.771 12.3256C25.224 11.8996 25.245 11.1871 24.819 10.7356C24.393 10.2841 23.6805 10.2631 23.229 10.6891L18.729 14.9311C18.5025 15.1441 18.375 15.4396 18.375 15.7501C18.375 16.0606 18.5025 16.3561 18.729 16.5691L23.229 20.8111C23.6805 21.2371 24.393 21.2161 24.819 20.7646C25.245 20.3131 25.224 19.6006 24.771 19.1746Z" fill="#FFB700"/>
</svg>
