<svg width="36" height="36" viewBox="0 0 36 36" fill="none" xmlns="http://www.w3.org/2000/svg">
<path fill-rule="evenodd" clip-rule="evenodd" d="M27.375 8.25V9C27.375 9.0255 27.3765 9.051 27.378 9.0765V9.087L27.381 9.1155L27.3825 9.129C27.408 9.3945 27.5115 9.5895 27.6465 9.732C27.852 9.972 28.158 10.125 28.5 10.125C28.5 10.125 29.625 10.0455 29.625 8.991V8.25C29.625 7.1565 29.19 6.1065 28.4175 5.3325C27.6435 4.56 26.5935 4.125 25.5 4.125C20.5935 4.125 10.9065 4.125 6 4.125C4.9065 4.125 3.8565 4.56 3.0825 5.3325C2.31 6.1065 1.875 7.1565 1.875 8.25V21.75C1.875 22.8435 2.31 23.8935 3.0825 24.6675C3.8565 25.44 4.9065 25.875 6 25.875H18C18.621 25.875 19.125 25.371 19.125 24.75C19.125 24.129 18.621 23.625 18 23.625C18 23.625 10.377 23.625 6 23.625C5.502 23.625 5.0265 23.427 4.674 23.076C4.323 22.7235 4.125 22.248 4.125 21.75C4.125 18.084 4.125 11.916 4.125 8.25C4.125 7.752 4.323 7.2765 4.674 6.924C5.0265 6.573 5.502 6.375 6 6.375H25.5C25.998 6.375 26.4735 6.573 26.826 6.924C27.177 7.2765 27.375 7.752 27.375 8.25Z" fill="#FFB700"/>
<path fill-rule="evenodd" clip-rule="evenodd" d="M18.1322 29.625H8.86816C8.24866 29.625 7.74316 30.129 7.74316 30.75C7.74466 31.371 8.24866 31.875 8.86966 31.875H18.1322C18.7517 31.875 19.2557 31.371 19.2572 30.75C19.2572 30.129 18.7517 29.625 18.1322 29.625Z" fill="#FFB700"/>
<path fill-rule="evenodd" clip-rule="evenodd" d="M34.125 15.75C34.125 14.6565 33.69 13.6065 32.9175 12.8325C32.1435 12.06 31.0935 11.625 30 11.625H25.5C24.4065 11.625 23.3565 12.06 22.5825 12.8325C21.81 13.6065 21.375 14.6565 21.375 15.75V26.25C21.375 27.3435 21.81 28.3935 22.5825 29.1675C23.3565 29.94 24.4065 30.375 25.5 30.375H30C31.0935 30.375 32.1435 29.94 32.9175 29.1675C33.69 28.3935 34.125 27.3435 34.125 26.25V15.75ZM31.875 15.75V26.25C31.875 26.748 31.677 27.2235 31.326 27.576C30.9735 27.927 30.498 28.125 30 28.125H25.5C25.002 28.125 24.5265 27.927 24.174 27.576C23.823 27.2235 23.625 26.748 23.625 26.25V15.75C23.625 15.252 23.823 14.7765 24.174 14.424C24.5265 14.073 25.002 13.875 25.5 13.875H30C30.498 13.875 30.9735 14.073 31.326 14.424C31.677 14.7765 31.875 15.252 31.875 15.75Z" fill="#FFB700"/>
<path fill-rule="evenodd" clip-rule="evenodd" d="M27 17.625H28.5C29.121 17.625 29.625 17.121 29.625 16.5C29.625 15.879 29.121 15.375 28.5 15.375H27C26.379 15.375 25.875 15.879 25.875 16.5C25.875 17.121 26.379 17.625 27 17.625Z" fill="#FFB700"/>
</svg>
