<svg width="36" height="36" viewBox="0 0 36 36" fill="none" xmlns="http://www.w3.org/2000/svg">
<path fill-rule="evenodd" clip-rule="evenodd" d="M28.5706 7.34845C25.6246 9.56245 21.9646 10.8734 18.0001 10.8734C14.0341 10.8734 10.3726 9.56095 7.42661 7.34695C6.93011 6.97345 6.22361 7.07395 5.85011 7.56895C5.47811 8.06545 5.57711 8.77195 6.07361 9.14545C9.39761 11.6429 13.5271 13.1234 18.0001 13.1234C22.4716 13.1234 26.5996 11.6444 29.9221 9.14845C30.4186 8.77495 30.5191 8.06845 30.1456 7.57345C29.7721 7.07695 29.0671 6.97645 28.5706 7.34845Z" fill="#FFB700"/>
<path fill-rule="evenodd" clip-rule="evenodd" d="M29.9221 26.8461C26.5996 24.3516 22.4716 22.8711 18.0001 22.8711C13.5271 22.8711 9.39761 24.3516 6.07361 26.8491C5.57711 27.2226 5.47811 27.9291 5.85011 28.4256C6.22361 28.9221 6.93011 29.0211 7.42661 28.6491C10.3726 26.4336 14.0341 25.1211 18.0001 25.1211C21.9646 25.1211 25.6246 26.4321 28.5706 28.6461C29.0671 29.0181 29.7721 28.9176 30.1456 28.4226C30.5191 27.9261 30.4186 27.2196 29.9221 26.8461Z" fill="#FFB700"/>
<path fill-rule="evenodd" clip-rule="evenodd" d="M18.001 34.125C19.984 34.125 21.871 32.919 23.359 30.738C25.3195 27.8625 26.626 23.2305 26.626 18C26.626 12.7695 25.3195 8.1375 23.359 5.262C21.871 3.081 19.984 1.875 18.001 1.875C16.018 1.875 14.131 3.081 12.643 5.262C10.6825 8.1375 9.37598 12.7695 9.37598 18C9.37598 23.2305 10.6825 27.8625 12.643 30.738C14.131 32.919 16.018 34.125 18.001 34.125ZM18.001 31.875C16.672 31.875 15.499 30.9315 14.503 29.4705C12.739 26.8845 11.626 22.704 11.626 18C11.626 13.296 12.739 9.1155 14.503 6.5295C15.499 5.0685 16.672 4.125 18.001 4.125C19.33 4.125 20.503 5.0685 21.499 6.5295C23.263 9.1155 24.376 13.296 24.376 18C24.376 22.704 23.263 26.8845 21.499 29.4705C20.503 30.9315 19.33 31.875 18.001 31.875Z" fill="#FFB700"/>
<path fill-rule="evenodd" clip-rule="evenodd" d="M3 19.125H33C33.621 19.125 34.125 18.621 34.125 18C34.125 17.379 33.621 16.875 33 16.875H3C2.379 16.875 1.875 17.379 1.875 18C1.875 18.621 2.379 19.125 3 19.125Z" fill="#FFB700"/>
<path fill-rule="evenodd" clip-rule="evenodd" d="M17.9824 1.875C9.08292 1.875 1.85742 9.1005 1.85742 18C1.85742 26.8995 9.08292 34.125 17.9824 34.125C26.8819 34.125 34.1074 26.8995 34.1074 18C34.1074 9.1005 26.8819 1.875 17.9824 1.875ZM17.9824 4.125C25.6399 4.125 31.8574 10.3425 31.8574 18C31.8574 25.6575 25.6399 31.875 17.9824 31.875C10.3234 31.875 4.10742 25.6575 4.10742 18C4.10742 10.3425 10.3234 4.125 17.9824 4.125Z" fill="#FFB700"/>
</svg>
