<svg fill="none" height="24" viewBox="0 0 24 24" width="24" xmlns="http://www.w3.org/2000/svg"><g clip-rule="evenodd" fill="rgb(0,0,0)" fill-rule="evenodd"><path d="m11.7418 5.77789c.0549-.09949.1369-.19684.2582-.27789v.5c-.159 0-.2675.00001-.3415.00002l.3415-.00002zm-.2418.43825v12.70396c-.1433-.1084-.3017-.2222-.4726-.3361-.7749-.5166-1.87711-1.084-3.0274-1.084-1.12742 0-2.46969.5508-3.47361 1.0528-.38848.1942-.73971.3882-1.02639.5543v-12.83345c.07103-.04436.15751-.09756.25725-.1574.30461-.18277.73063-.42617 1.21636-.66904.99608-.49804 2.1538-.94721 3.02639-.94721.84971 0 1.74756.43263 2.4727.91603.3544.23627.6507.47328.8582.6511.066.05656.1227.10689.1691.14901zm-8.77415-.63429.00752-.00497.02768-.01815c.02393-.01561.0587-.0381.10333-.0665.08921-.05677.21795-.13723.37837-.23348.32039-.19223.76937-.44883 1.28364-.70596 1.00392-.50196 2.3462-1.05279 3.47361-1.05279 1.15029 0 2.2525.56737 3.0274 1.08397.3955.26373.7242.52672.9543.7239.1152.09882.2064.18169.2696.24066.0316.0295.0563.05307.0735.06971l.0201.01965.0058.00571.0018.00179.0009.00086c0 .00005.0317.15897-.0119.35377.1585.00002.1585.00007.1585.00014v13.99964c0 .0001 0 .0002-.5.0002l.5-.0002c0 .2023-.1218.3847-.3086.4621s-.4017.0347-.5447-.1081l-.0032-.0032-.0141-.0138c-.0131-.0126-.0334-.032-.0604-.0572-.054-.0504-.1347-.1238-.2381-.2125-.2075-.1778-.5038-.4148-.8582-.6511-.72514-.4834-1.62299-.916-2.4727-.916-.87259 0-2.03032.4492-3.0264.9472-.48573.2429-.91174.4863-1.21635.669-.15208.0913-.27334.1671-.356.2197-.04132.0263-.07295.0468-.09394.0604l-.02334.0153-.00545.0036-.00112.0008c.00004 0-.00005 0-.2774-.416h-.5c0-.0001 0 .0001 0 0v-13.9933"/><path d="m12.2582 5.77789c-.0549-.09949-.1369-.19684-.2582-.27789v.5c.1591 0 .2675.00001.3415.00002 0-.00001 0 0 0 0l-.3415-.00002zm.2418.43825v12.70396c.1434-.1084.3018-.2222.4727-.3361.7749-.5166 1.877-1.084 3.0273-1.084 1.1274 0 2.4697.5508 3.4736 1.0528.3885.1942.7397.3882 1.0264.5543v-12.83345c-.071-.04436-.1575-.09756-.2572-.1574-.3046-.18277-.7307-.42617-1.2164-.66904-.9961-.49804-2.1538-.94721-3.0264-.94721-.8497 0-1.7475.43263-2.4726.91603-.3545.23627-.6508.47328-.8583.6511-.0659.05656-.1227.10689-.1691.14901zm8.7742-.63429-.0076-.00497-.0276-.01815c-.024-.01561-.0587-.0381-.1034-.0665-.0892-.05677-.2179-.13723-.3783-.23348-.3204-.19223-.7694-.44883-1.2837-.70596-1.0039-.50196-2.3462-1.05279-3.4736-1.05279-1.1503 0-2.2524.56737-3.0273 1.08397-.3956.26373-.7243.52672-.9543.7239-.1153.09882-.2065.18169-.2697.24066-.0316.0295-.0563.05307-.0735.06971l-.0201.01965-.0058.00571-.0018.00179-.0009.00086c0 .00005-.0317.15897.0119.35377-.1585.00002-.1585.00007-.1585.00014v13.99964c0 .0001 0 .0002.5.0002l-.5-.0002c0 .2023.1218.3847.3087.4621.1867.0774.4017.0347.5446-.1081l.0032-.0032.0142-.0138c.013-.0126.0333-.032.0603-.0572.054-.0504.1347-.1238.2381-.2125.2075-.1778.5038-.4148.8583-.6511.7251-.4834 1.6229-.916 2.4726-.916.8726 0 2.0303.4492 3.0264.9472.4857.2429.9118.4863 1.2164.669.1521.0913.2733.1671.356.2197.0413.0263.0729.0468.0939.0604l.0234.0153.0054.0036.0011.0008s.0001 0 .2774-.416h.5c0-.0001 0 .0001 0 0v-13.9933"/></g></svg>