<svg width="24" height="24" viewBox="0 0 24 24" fill="none" xmlns="http://www.w3.org/2000/svg">
<path d="M19.2727 2H4.72727C4.00396 2 3.31026 2.28734 2.7988 2.7988C2.28734 3.31026 2 4.00396 2 4.72727L2 19.2727C2 19.996 2.28734 20.6897 2.7988 21.2012C3.31026 21.7127 4.00396 22 4.72727 22H19.2727C19.996 22 20.6897 21.7127 21.2012 21.2012C21.7127 20.6897 22 19.996 22 19.2727V4.72727C22 4.00396 21.7127 3.31026 21.2012 2.7988C20.6897 2.28734 19.996 2 19.2727 2ZM8.81818 17.8273C8.81833 17.8827 8.80754 17.9377 8.78642 17.989C8.7653 18.0402 8.73427 18.0868 8.6951 18.1261C8.65594 18.1654 8.60941 18.1965 8.55819 18.2178C8.50697 18.2391 8.45205 18.25 8.39659 18.25H6.6C6.54444 18.2502 6.48941 18.2393 6.43805 18.2181C6.3867 18.1969 6.34004 18.1658 6.30075 18.1265C6.26147 18.0872 6.23034 18.0406 6.20915 17.9892C6.18795 17.9379 6.17712 17.8828 6.17727 17.8273V10.2955C6.17727 10.1833 6.22181 10.0758 6.30109 9.99654C6.38036 9.91726 6.48789 9.87273 6.6 9.87273H8.39659C8.50851 9.87303 8.61574 9.9177 8.69477 9.99694C8.7738 10.0762 8.81818 10.1835 8.81818 10.2955V17.8273ZM7.49773 9.15909C7.1606 9.15909 6.83104 9.05912 6.55073 8.87182C6.27042 8.68453 6.05195 8.41831 5.92293 8.10685C5.79392 7.79538 5.76016 7.45265 5.82593 7.12201C5.8917 6.79136 6.05405 6.48763 6.29243 6.24925C6.53082 6.01086 6.83454 5.84852 7.16519 5.78275C7.49584 5.71698 7.83856 5.75074 8.15003 5.87975C8.46149 6.00876 8.72771 6.22724 8.91501 6.50755C9.1023 6.78786 9.20227 7.11742 9.20227 7.45455C9.20227 7.90662 9.02269 8.34018 8.70302 8.65984C8.38336 8.97951 7.9498 9.15909 7.49773 9.15909ZM18.2091 17.8568C18.2092 17.9079 18.1993 17.9585 18.1798 18.0057C18.1603 18.0529 18.1317 18.0958 18.0956 18.132C18.0595 18.1681 18.0166 18.1967 17.9694 18.2162C17.9221 18.2357 17.8715 18.2456 17.8205 18.2455H15.8886C15.8376 18.2456 15.787 18.2357 15.7397 18.2162C15.6925 18.1967 15.6496 18.1681 15.6135 18.132C15.5774 18.0958 15.5488 18.0529 15.5293 18.0057C15.5098 17.9585 15.4999 17.9079 15.5 17.8568V14.3284C15.5 13.8011 15.6545 12.0193 14.1216 12.0193C12.9341 12.0193 12.692 13.2386 12.6443 13.7864V17.8614C12.6443 17.9635 12.6042 18.0615 12.5325 18.1342C12.4608 18.2069 12.3634 18.2485 12.2614 18.25H10.3955C10.3445 18.25 10.294 18.2399 10.2469 18.2204C10.1998 18.2009 10.157 18.1722 10.121 18.1361C10.0851 18.1 10.0565 18.0571 10.0371 18.01C10.0177 17.9629 10.0078 17.9123 10.008 17.8614V10.2625C10.0078 10.2115 10.0177 10.161 10.0371 10.1139C10.0565 10.0667 10.0851 10.0239 10.121 9.98776C10.157 9.95166 10.1998 9.92301 10.2469 9.90347C10.294 9.88392 10.3445 9.87386 10.3955 9.87386H12.2614C12.3644 9.87386 12.4633 9.91481 12.5362 9.98769C12.6091 10.0606 12.65 10.1594 12.65 10.2625V10.9193C13.0909 10.2568 13.7443 9.74773 15.1386 9.74773C18.2273 9.74773 18.2068 12.6318 18.2068 14.2159L18.2091 17.8568Z" fill="#2F2F2F"/>
</svg>
