<svg width="356" height="80" viewBox="0 0 356 80" fill="none" xmlns="http://www.w3.org/2000/svg">
<g clip-path="url(#clip0_40001603_3540)">
<path d="M0 50.1489H7.72726C13.6575 50.1489 17.7457 52.0695 17.7457 57.3483C17.7457 61.2793 15.4545 63.2336 11.8604 64.1321V64.2107C15.7465 64.5364 18.487 67.0748 18.487 71.0844C18.487 77.2168 13.4104 78.6881 7.60371 78.6881H0V50.1377V50.1489ZM4.08826 75.3411H7.15445C10.8384 75.3411 14.1517 74.5662 14.1517 70.7138C14.1517 66.2998 10.2656 65.6821 6.75012 65.6821H4.08826V75.3299V75.3411ZM4.08826 62.3351H6.33455C10.2993 62.3351 13.6575 61.9644 13.6575 57.7526C13.6575 54.3607 10.7485 53.4959 8.37868 53.4959H4.08826V62.3351Z" fill="white"/>
<path d="M34.9747 50.1494H39.2652L51.3278 78.6998H46.8689L43.9599 71.5005H29.9767L27.0678 78.6998H22.7773L34.9635 50.1494H34.9747ZM36.9852 53.9906L31.302 68.1422H42.6683L36.9852 53.9906Z" fill="white"/>
<path d="M57.5957 50.1494H63.1553L75.757 73.129H75.8356V50.1494H79.9239V78.6998H74.69L61.7626 55.226H61.684V78.6998H57.5957V50.1494Z" fill="white"/>
<path d="M110.81 55.2144C108.811 53.9115 106.643 53.2489 102.959 53.2489C96.3777 53.2489 91.9975 58.0335 91.9975 64.4129C91.9975 71.1181 96.827 75.577 102.757 75.577C105.576 75.577 106.318 75.2962 107.34 75.0828V66.4122H101.331V63.0539H111.428V77.902C109.878 78.4298 107.171 79.1711 102.712 79.1711C93.6709 79.1711 87.6621 73.3644 87.6621 64.2894C87.6621 55.2144 94.0416 49.6436 102.757 49.6436C106.924 49.6436 108.766 50.2613 111.147 51.07L110.821 55.2031L110.81 55.2144Z" fill="white"/>
<path d="M182.915 49.6533C191.586 49.6533 196.663 55.9542 196.663 64.4227C196.663 72.8912 191.631 79.1921 182.915 79.1921C174.2 79.1921 169.168 73.1046 169.168 64.4227C169.168 55.7408 174.245 49.6533 182.915 49.6533ZM182.915 75.5868C189.497 75.5868 192.327 70.1058 192.327 64.4227C192.327 58.7396 189.216 53.2137 182.915 53.2586C176.614 53.2137 173.503 58.616 173.503 64.4227C173.503 70.2294 176.322 75.5868 182.915 75.5868Z" fill="white"/>
<path d="M204.796 50.1489H208.885V75.094H220.824V78.6881H204.785V50.1377L204.796 50.1489Z" fill="white"/>
<path d="M248.386 66.8731C248.386 74.8924 244.331 79.1828 237.3 79.1828C230.269 79.1828 226.215 74.8924 226.215 66.8731V50.1494H230.303V66.3452C230.303 71.8262 232.022 75.5887 237.3 75.5887C242.579 75.5887 244.298 71.8262 244.298 66.3452V50.1494H248.386V66.8731Z" fill="white"/>
<path d="M258.256 50.1489H273.43V53.743H262.344V62.088H272.935V65.6821H262.344V78.6881H258.256V50.1377V50.1489Z" fill="white"/>
<path d="M296.208 54.4379C294.119 53.618 292.974 53.2474 290.851 53.2474C288.56 53.2474 285.864 54.0673 285.864 57.0549C285.864 62.5358 298.129 61.2667 298.129 70.6786C298.129 76.7661 293.423 79.1809 287.695 79.1809C285.684 79.1809 283.73 78.6081 281.843 78.0016L282.248 74.1941C283.64 74.7669 286.089 75.5868 288.178 75.5868C290.514 75.5868 293.782 74.2727 293.782 70.9257C293.782 64.5463 281.518 66.3096 281.518 57.4255C281.518 52.3489 285.527 49.6533 290.682 49.6533C292.558 49.6533 294.816 49.979 296.781 50.6754L296.208 54.4379Z" fill="white"/>
<path d="M307.428 50.1489H323.421V53.743H311.516V62.088H322.354V65.6821H311.516V75.094H323.421V78.6881H307.428V50.1377V50.1489Z" fill="white"/>
<path d="M332.879 50.1494H338.438L351.04 73.129H351.119V50.1494H355.207V78.6998H349.973L337.046 55.226H336.967V78.6998H332.879V50.1494Z" fill="white"/>
<path d="M152.288 78.2711C152.288 78.2711 149.053 75.0365 148.244 74.2278C147.57 74.8904 146.897 75.5531 145.627 76.8223C143.123 79.3269 137.945 80.6747 134.104 76.8447C130.207 72.9474 131.689 67.7023 134.081 65.31C135.014 64.3778 136.114 63.2883 136.698 62.7155C136.204 62.1764 133.745 60.2558 133.745 56.7853C133.745 53.3148 136.642 49.6533 140.877 49.6533C143.965 49.6533 145.706 51.5514 145.931 51.7648C145.717 51.9782 143.381 54.3032 143.055 54.6289C142.741 54.3032 142.022 53.7303 140.888 53.7303C139.551 53.7303 137.833 54.8198 137.833 56.7853C137.833 58.0208 138.653 58.8519 138.765 58.953C140.124 60.312 148.244 68.466 148.244 68.466L151.131 65.5796L154.006 68.466L151.12 71.3413L155.163 75.3846L152.299 78.2599L152.288 78.2711ZM139.585 65.602C139.585 65.602 138.372 66.815 136.99 68.1965C135.598 69.5892 135.193 72.15 136.99 73.947C138.787 75.744 141.337 75.3397 142.741 73.9695C144.134 72.588 145.38 71.3301 145.38 71.3301L139.585 65.602Z" fill="white"/>
<path d="M121.739 6.61477H121.806L125.827 16.0829H117.707L121.728 6.61477H121.739ZM120.941 0.886719L110.541 25.1692H113.888L116.438 19.1491H127.13L129.679 25.1692H133.094L122.682 0.886719H120.941Z" fill="white"/>
<path d="M137.462 23.5745C136.462 22.5412 135.855 21.1934 135.855 19.0033V9.66992H138.91V18.8797C138.91 20.2949 139.236 21.0362 139.753 21.5528C140.359 22.1593 141.202 22.5187 142.168 22.5187C143.133 22.5187 144.032 22.1369 144.616 21.5528C145.133 21.0362 145.458 20.3286 145.458 18.8797V9.66992H148.513V19.0033C148.513 21.1934 147.896 22.5412 146.874 23.5745C145.717 24.7313 144.077 25.4389 142.168 25.4389C140.258 25.4389 138.596 24.7313 137.462 23.5745Z" fill="white"/>
<path d="M165.102 17.3639C165.102 14.4661 162.979 12.2423 160.205 12.2423C157.431 12.2423 155.308 14.4661 155.308 17.3639C155.308 20.2616 157.431 22.4854 160.205 22.4854C162.979 22.4854 165.102 20.2616 165.102 17.3639ZM167.764 0V25.0574H164.799V23.4738C163.507 24.698 161.8 25.4393 159.868 25.4393C155.488 25.4393 152.107 21.834 152.107 17.3526C152.107 12.8713 155.488 9.26597 159.868 9.26597C161.733 9.26597 163.406 9.97355 164.698 11.1641V0H167.753H167.764Z" fill="white"/>
<path d="M172.977 9.65929H176.032V25.0576H172.977V9.65929ZM172.359 5.12177C172.359 3.96493 173.359 2.99902 174.516 2.99902C175.673 2.99902 176.639 3.96493 176.639 5.12177C176.639 6.27861 175.673 7.27822 174.516 7.27822C173.359 7.27822 172.359 6.27861 172.359 5.12177Z" fill="white"/>
<path d="M192.351 17.363C192.351 14.4316 190.228 12.2078 187.454 12.2078C184.68 12.2078 182.557 14.4316 182.557 17.363C182.557 20.2944 184.68 22.5183 187.454 22.5183C190.228 22.5183 192.351 20.2944 192.351 17.363ZM179.367 17.363C179.367 12.8817 182.871 9.27637 187.454 9.27637C192.036 9.27637 195.541 12.8817 195.541 17.363C195.541 21.8444 192.025 25.4497 187.454 25.4497C182.883 25.4497 179.367 21.8444 179.367 17.363Z" fill="white"/>
<path d="M222.17 17.3639C222.17 14.4661 220.047 12.2423 217.273 12.2423C214.499 12.2423 212.376 14.4661 212.376 17.3639C212.376 20.2616 214.499 22.4854 217.273 22.4854C220.047 22.4854 222.17 20.2616 222.17 17.3639ZM225.36 17.3639C225.36 21.8452 221.979 25.4505 217.599 25.4505C215.667 25.4505 213.96 24.7092 212.668 23.485V25.0687H209.703V0H212.758V11.1753C214.05 9.98478 215.723 9.2772 217.588 9.2772C221.968 9.2772 225.349 12.8825 225.349 17.3639" fill="white"/>
<path d="M227.629 9.43555H230.987L236.457 19.2968H236.524L241.455 9.43555H244.667L232.638 33.0104H229.46L234.941 22.4191L227.629 9.43555Z" fill="white"/>
</g>
<defs>
<clipPath id="clip0_40001603_3540">
<rect width="355.207" height="79.2493" fill="white"/>
</clipPath>
</defs>
</svg>
