<svg width="213" height="80" viewBox="0 0 213 80" fill="none" xmlns="http://www.w3.org/2000/svg">
<g clip-path="url(#clip0_40001603_3581)">
<path d="M0 41.2765H6.09239C17.4566 41.2765 26.7266 32.0092 26.7266 20.6396C26.7266 9.26997 17.4566 0 6.09239 0H0V41.2738V41.2765ZM58.7143 0H52.6246C41.2577 0 31.9904 9.26729 31.9904 20.6396C31.9904 32.0118 41.2577 41.2765 52.6273 41.2765H58.717V0H58.7143Z" fill="white"/>
<path d="M85.8655 0H70.959V41.2765H85.8655C97.2431 41.2765 106.502 32.0172 106.502 20.6396C106.502 9.25925 97.2431 0 85.8655 0ZM85.8628 35.0178H77.2149V6.25864H85.8628C93.7867 6.25864 100.244 12.7157 100.244 20.6396C100.244 28.5607 93.7867 35.0178 85.8628 35.0178Z" fill="white"/>
<path d="M123.977 12.7139C116.088 12.7139 109.674 19.128 109.674 27.0143C109.674 34.9007 116.085 41.3148 123.977 41.3148C131.869 41.3148 138.277 34.9007 138.277 27.0143C138.277 19.128 131.863 12.7139 123.977 12.7139ZM123.977 35.5844C119.193 35.5844 115.356 31.6936 115.356 26.9607C115.356 22.2279 119.244 18.3397 123.977 18.3397C128.71 18.3397 132.598 22.2279 132.598 26.9607C132.598 31.7445 128.707 35.5844 123.977 35.5844Z" fill="white"/>
<path d="M148.582 0.00585938H142.326V41.3252H148.582V0.00585938Z" fill="white"/>
<path d="M168.289 12.7162C165.251 12.7162 162.433 13.6708 160.113 15.2931V0.00585938H153.844V41.3252H160.113V38.7402C162.433 40.3626 165.251 41.3199 168.289 41.3199C176.175 41.3199 182.592 34.903 182.592 27.0167C182.592 19.1304 176.175 12.7162 168.289 12.7162ZM168.289 35.5841C164.465 35.5841 161.247 33.0957 160.113 29.6767C159.829 28.8213 159.668 27.9096 159.668 26.9631C159.668 26.0165 159.829 25.0941 160.113 24.2413C161.258 20.8036 164.5 18.3393 168.289 18.3393C173.022 18.3393 176.913 22.2302 176.913 26.9631C176.913 31.7469 173.022 35.5841 168.289 35.5841Z" fill="white"/>
<path d="M205.514 12.7214L197.365 31.0469L189.21 12.7214H182.375L193.943 38.724L193.712 39.2281L193.629 39.4078L191.125 45.0658L191.109 45.1087C190.358 46.79 188.379 47.5515 186.7 46.8007L185.802 46.4039L184.054 50.3296L183.276 52.0699L183.284 52.0752L185.451 53.0406C189.519 54.856 194.316 53.0111 196.137 48.9325C196.153 48.8977 210.952 15.8266 212.344 12.7188H205.508L205.514 12.7214Z" fill="white"/>
<path d="M3.05927 60.0527H0.101562L7.5213 79.0888H9.99633L17.467 60.0527H14.5924L8.86741 75.6457H8.78697L3.05927 60.0527Z" fill="white"/>
<path d="M24.5905 60.0527H21.9277V79.0861H24.5905V60.0527Z" fill="white"/>
<path d="M40.2663 63.8738C39.9043 63.3804 39.4163 62.9755 38.7996 62.6644C38.1828 62.3507 37.4883 62.1952 36.7187 62.1978C36.3084 62.1978 35.8928 62.2568 35.4745 62.3721C35.0562 62.4848 34.6754 62.6671 34.3375 62.9165C33.997 63.1659 33.7208 63.4742 33.5063 63.8443C33.2971 64.2117 33.1898 64.6541 33.1925 65.1663C33.1925 65.6623 33.2944 66.078 33.4928 66.4105C33.6913 66.743 33.9567 67.0219 34.2919 67.2525C34.6244 67.4804 35.0186 67.6762 35.4745 67.8371C35.925 67.9953 36.4103 68.1615 36.9225 68.3305C37.5392 68.5155 38.164 68.7246 38.7996 68.9633C39.4324 69.1993 40.0062 69.513 40.5211 69.9045C41.0359 70.296 41.4569 70.784 41.7841 71.3713C42.1139 71.9585 42.2775 72.7067 42.2828 73.613C42.2882 74.5542 42.1166 75.3694 41.7707 76.0639C41.4221 76.7584 40.9608 77.335 40.379 77.7908C39.7998 78.2493 39.1321 78.5872 38.3732 78.8125C37.6116 79.0377 36.8313 79.153 36.0269 79.1584C34.8819 79.1637 33.7744 78.9465 32.7018 78.5068C31.6319 78.0697 30.7443 77.4127 30.0391 76.5466L32.0046 74.868C32.4363 75.4981 33.0129 76.0103 33.7315 76.3991C34.4528 76.7906 35.2305 76.9837 36.0671 76.9783C36.4961 76.9783 36.9198 76.914 37.3489 76.7933C37.7779 76.6726 38.164 76.4822 38.5126 76.2248C38.8639 75.9674 39.1481 75.6429 39.368 75.2568C39.5879 74.8706 39.6952 74.4067 39.6925 73.8597C39.6925 73.3127 39.5718 72.8542 39.3385 72.4868C39.1052 72.1194 38.7942 71.8084 38.3973 71.5563C38.0031 71.2989 37.5473 71.0844 37.0244 70.9074C36.5042 70.7304 35.9464 70.5481 35.3672 70.3657C34.7853 70.1968 34.2115 69.9903 33.6484 69.7436C33.0799 69.4969 32.5758 69.1832 32.128 68.7997C31.6801 68.4189 31.3208 67.9443 31.0446 67.3812C30.7684 66.8181 30.629 66.1182 30.6236 65.2816C30.6183 64.3752 30.8006 63.5976 31.1626 62.9433C31.5273 62.2944 32.0046 61.7527 32.5919 61.3237C33.1791 60.8919 33.8468 60.5782 34.5896 60.3771C35.3297 60.176 36.0778 60.0741 36.8313 60.0714C37.8905 60.066 38.8827 60.2484 39.8078 60.6211C40.7329 60.9912 41.4784 61.4953 42.0442 62.1228L40.2583 63.8765L40.2663 63.8738Z" fill="white"/>
<path d="M50.862 60.0527H48.1992V79.0861H50.862V60.0527Z" fill="white"/>
<path d="M75.5756 65.6732C75.0876 64.5013 74.4145 63.5038 73.5618 62.6726C72.7037 61.8413 71.6874 61.1977 70.5076 60.7365C69.3277 60.2726 68.046 60.042 66.6596 60.042C65.2733 60.042 63.9969 60.2726 62.8251 60.7365C61.6506 61.1977 60.6396 61.8413 59.7842 62.6726C58.9288 63.5038 58.2638 64.5013 57.7838 65.6732C57.3038 66.845 57.0625 68.1401 57.0625 69.5587C57.0625 70.9772 57.3012 72.2509 57.7838 73.4227C58.2611 74.5945 58.9288 75.6028 59.7842 76.4501C60.6396 77.2948 61.6532 77.9571 62.8251 78.4237C63.9969 78.8957 65.2733 79.129 66.6596 79.129C68.046 79.129 69.3277 78.893 70.5076 78.4237C71.6874 77.9571 72.7037 77.2948 73.5618 76.4501C74.4145 75.6028 75.0876 74.5945 75.5756 73.4227C76.0663 72.2509 76.3077 70.9638 76.3077 69.5587C76.3077 68.1536 76.0663 66.845 75.5756 65.6732ZM73.0738 72.4064C72.7466 73.2967 72.2854 74.069 71.6874 74.7286C71.0895 75.3856 70.3628 75.9058 69.5074 76.2812C68.652 76.6593 67.7 76.847 66.6596 76.847C65.6192 76.847 64.6753 76.6593 63.836 76.2812C62.9994 75.9058 62.2834 75.3883 61.6801 74.7286C61.0821 74.069 60.6209 73.294 60.2937 72.4064C59.9693 71.5188 59.8057 70.5669 59.8057 69.5587C59.8057 68.5504 59.9666 67.6307 60.2937 66.7511C60.6182 65.8716 61.0767 65.0966 61.6666 64.4289C62.2566 63.7612 62.9752 63.2357 63.8226 62.8495C64.6699 62.4661 65.6165 62.273 66.6569 62.273C67.6974 62.273 68.6707 62.4661 69.5154 62.8495C70.3628 63.2357 71.0841 63.7612 71.6848 64.4289C72.2827 65.0966 72.744 65.8689 73.0711 66.7511C73.3956 67.6307 73.5591 68.5692 73.5591 69.5587C73.5591 70.5481 73.3956 71.5188 73.0711 72.4064H73.0738Z" fill="white"/>
<path d="M95.8914 75.2703H95.9451V60.0527H98.6051V79.0888H95.2479L85.1922 63.5494H85.1386V79.0888H82.4785V60.0527H85.9457L95.8914 75.2703Z" fill="white"/>
<path d="M108.211 69.4999C108.227 69.9772 108.031 70.4572 107.704 70.8004C106.972 71.5164 105.808 71.5164 105.076 70.8004C104.746 70.4572 104.553 69.9799 104.569 69.4999C104.569 69.036 104.749 68.5882 105.076 68.2611C105.763 67.529 106.913 67.5129 107.645 68.2021L107.704 68.2611C108.034 68.5909 108.211 69.0387 108.211 69.4999Z" fill="white"/>
<path d="M121.994 60.0977H119.559L111.252 79.249H114.228L116.148 74.5429H125.236L127.183 79.249H130.21L121.989 60.0977H121.994ZM117.098 72.1913L120.694 63.2082L124.265 72.1913H117.098Z" fill="white"/>
<path d="M139.653 79.249H136.974V62.452H130.836V60.0977H145.793V62.452H139.653V79.249Z" fill="white"/>
<path d="M161.124 74.8111H161.18L166.836 60.0977H170.997V79.249H168.321V63.235H168.265L161.91 79.249H160.204L153.876 63.235H153.822V79.249H151.227V60.0977H155.391L161.124 74.8111Z" fill="white"/>
<path d="M195.006 65.7532C194.518 64.5787 193.843 63.5785 192.99 62.7446C192.132 61.9133 191.11 61.2671 189.93 60.8032C188.745 60.3419 187.461 60.1113 186.072 60.1113C184.683 60.1113 183.401 60.3419 182.229 60.8032C181.052 61.2671 180.038 61.9133 179.18 62.7446C178.322 63.5785 177.654 64.5787 177.174 65.7532C176.694 66.9277 176.453 68.2256 176.453 69.6495C176.453 71.0733 176.692 72.347 177.174 73.5215C177.657 74.6961 178.322 75.707 179.18 76.557C180.038 77.4044 181.052 78.064 182.229 78.536C183.401 79.0052 184.683 79.2412 186.072 79.2412C187.461 79.2412 188.745 79.0052 189.93 78.536C191.113 78.064 192.132 77.4044 192.99 76.557C193.845 75.707 194.518 74.6961 195.006 73.5215C195.495 72.347 195.741 71.0572 195.741 69.6495C195.741 68.2417 195.495 66.9277 195.006 65.7532ZM192.987 69.6468C192.987 70.6577 192.821 71.6123 192.499 72.5026C192.169 73.3928 191.708 74.1705 191.108 74.8301C190.507 75.4898 189.778 76.01 188.919 76.3854C188.061 76.7635 187.112 76.9512 186.066 76.9512C185.021 76.9512 184.077 76.7635 183.235 76.3854C182.398 76.01 181.677 75.4898 181.076 74.8301C180.478 74.1678 180.014 73.3928 179.687 72.5026C179.363 71.6123 179.199 70.6604 179.199 69.6468C179.199 68.6332 179.363 67.7161 179.687 66.8312C180.014 65.949 180.473 65.1713 181.063 64.5036C181.653 63.8359 182.377 63.3077 183.224 62.9215C184.071 62.5381 185.021 62.3423 186.066 62.3423C187.112 62.3423 188.086 62.5354 188.933 62.9215C189.783 63.3077 190.504 63.8359 191.108 64.5036C191.708 65.1713 192.169 65.949 192.499 66.8312C192.821 67.7161 192.987 68.6519 192.987 69.6468Z" fill="white"/>
<path d="M210.251 63.9378C209.889 63.4417 209.401 63.0342 208.784 62.7177C208.167 62.3986 207.473 62.2404 206.703 62.2404C206.29 62.2404 205.874 62.2967 205.453 62.4094C205.035 62.5193 204.652 62.7016 204.308 62.9483C203.965 63.195 203.686 63.5034 203.472 63.8735C203.257 64.2435 203.153 64.6833 203.153 65.1981C203.153 65.713 203.252 66.1125 203.448 66.445C203.646 66.7775 203.911 67.0618 204.247 67.2924C204.579 67.523 204.973 67.7214 205.429 67.8823C205.885 68.0459 206.365 68.2121 206.883 68.3864C207.499 68.5741 208.124 68.7887 208.76 69.0273C209.393 69.2687 209.969 69.5851 210.481 69.9793C210.996 70.3761 211.417 70.8668 211.742 71.4568C212.069 72.0494 212.23 72.7975 212.23 73.7066C212.23 74.6156 212.053 75.4683 211.704 76.1601C211.353 76.8546 210.883 77.4285 210.302 77.8843C209.72 78.3402 209.047 78.6754 208.282 78.9006C207.518 79.1205 206.738 79.2331 205.931 79.2331C204.78 79.2331 203.673 79.0133 202.598 78.5654C201.528 78.1203 200.64 77.458 199.938 76.5838L201.916 74.9132C202.345 75.5488 202.919 76.0636 203.638 76.4551C204.359 76.8493 205.137 77.045 205.979 77.045C206.405 77.045 206.834 76.986 207.263 76.8654C207.69 76.7447 208.081 76.557 208.433 76.2996C208.781 76.0422 209.071 75.7204 209.291 75.3342C209.513 74.9508 209.626 74.4842 209.626 73.9318C209.626 73.3794 209.51 72.9262 209.277 72.5562C209.044 72.1888 208.733 71.8751 208.339 71.6177C207.947 71.3602 207.486 71.143 206.963 70.9634C206.44 70.781 205.888 70.5987 205.306 70.411C204.724 70.2394 204.147 70.0275 203.584 69.7781C203.019 69.5314 202.512 69.2123 202.067 68.8289C201.619 68.4428 201.259 67.9654 200.986 67.3997C200.712 66.8365 200.576 66.134 200.576 65.2947C200.576 64.383 200.758 63.6053 201.125 62.9537C201.495 62.3048 201.975 61.7631 202.568 61.3341C203.158 60.9077 203.828 60.594 204.571 60.3955C205.319 60.1998 206.07 60.1006 206.824 60.1006C207.885 60.1006 208.88 60.2883 209.805 60.6664C210.728 61.0445 211.476 61.5486 212.042 62.1814L210.245 63.9298L210.251 63.9378Z" fill="white"/>
</g>
<defs>
<clipPath id="clip0_40001603_3581">
<rect width="212.349" height="79.2493" fill="white"/>
</clipPath>
</defs>
</svg>
