<svg xmlns="http://www.w3.org/2000/svg" viewBox="0 0 89.46 26.97"><defs><style>.cls-1{fill:#100906;}.cls-2{fill:#dd1800;}</style></defs><g id="Layer_2" data-name="Layer 2"><g id="Layer_1-2" data-name="Layer 1"><path class="cls-1" d="M72.16,9.09V18l7.69-4.44Z"/><path class="cls-2" d="M89.17,11.74a3.6,3.6,0,0,1-1.24,1.55l-.14.09-5.06,2.93L76,20.2h0l-.85.49L74,21.34l-.07,0h0l-1.77,1-1.11.64a2,2,0,0,1-.81.18H70V25a1.94,1.94,0,0,0,1.92,1.72,1.82,1.82,0,0,0,.81-.18h0l.06,0,.07,0,.21-.11,13.59-7.85a5.75,5.75,0,0,0,2.78-4.93h0A5.89,5.89,0,0,0,89.17,11.74Z"/><path class="cls-2" d="M68.32,25V5.55a1.94,1.94,0,0,1,.37-.94l-.36-.2-1.11-.64a1.85,1.85,0,0,0-.81-.18,1.93,1.93,0,0,0-1.92,1.69v.06c0,.14,0,.28,0,.42h0V21.31h0c0,.14,0,.27,0,.41v.09c0,.14,0,.27,0,.4s0,0,0,.06a3.4,3.4,0,0,0,.07.34.29.29,0,0,0,0,.09c0,.12.06.25.1.37l0,.08.12.32s0,0,0,.06a3.54,3.54,0,0,0,.16.34l0,.09a3.47,3.47,0,0,0,.18.33l0,0,.2.3,0,.07c.08.11.15.21.23.3l0,.05c.07.09.15.17.23.26l0,.05.27.26.06.05.29.23,0,0a3.62,3.62,0,0,0,.32.22l.07.05.33.19,0,0,.33.16.08,0,.35.15h0a4.36,4.36,0,0,0,.73.2,3.54,3.54,0,0,1-.72-1.8Z"/><path class="cls-2" d="M86.94,8.78h0l-.26-.17L73.09.76,72.88.65,72.81.6,72.44.44h0l-.25-.1a5.75,5.75,0,0,0-3.84,0h0l-.35.14-.08,0-.33.17h0l-.33.2-.07,0-.32.22,0,0-.29.23-.06.05-.27.27a.12.12,0,0,0,0,.05s-.09.1-.14.15a3.57,3.57,0,0,1,.46,0,3.63,3.63,0,0,1,1.52.34l.07,0,.07,0,1.11.64.86.5,11.8,6.82.07,0h0L84.81,12a2.08,2.08,0,0,1,.65.79l1.48-.85a1.92,1.92,0,0,0,0-3.13Z"/><path class="cls-1" d="M6.52,17.8c-4,0-6-1.3-6-3.85V7.14c0-2.56,2-3.86,6-3.86h5.61c4,0,6,1.3,6,3.86V14c0,2.55-2,3.85-6,3.85ZM6.59,5.9a5,5,0,0,0-2.34.4c-.43.24-.63.51-.63.84V14c0,.31.21.58.64.83a4.94,4.94,0,0,0,2.33.41h5.46a5,5,0,0,0,2.34-.41c.43-.25.64-.52.64-.83V7.14c0-.33-.21-.6-.64-.84a5,5,0,0,0-2.34-.4Z"/><path class="cls-1" d="M6.52,17.53Q.8,17.53.8,14V7.14c0-2.4,1.91-3.59,5.72-3.59h5.61c3.81,0,5.71,1.19,5.71,3.59V14q0,3.59-5.71,3.58Zm5.53-2.08A5.25,5.25,0,0,0,14.52,15,1.25,1.25,0,0,0,15.29,14V7.14a1.23,1.23,0,0,0-.77-1.07,5.25,5.25,0,0,0-2.47-.44H6.59a5.28,5.28,0,0,0-2.47.44,1.25,1.25,0,0,0-.77,1.07V14A1.27,1.27,0,0,0,4.12,15a5.28,5.28,0,0,0,2.47.44Z"/><path class="cls-1" d="M39,17.88l-.47,0a1.21,1.21,0,0,1-.42-.13,2.05,2.05,0,0,1-.36-.22c-.13-.09-.27-.21-.44-.35L25.78,7.42v9.29a1,1,0,0,1-.47,1,2.86,2.86,0,0,1-2.15,0,1,1,0,0,1-.47-1V4.38a1,1,0,0,1,.44-.95,2,2,0,0,1,1-.22,2.86,2.86,0,0,1,1.11.18,3.62,3.62,0,0,1,.87.59l11.39,9.7V4.38a1,1,0,0,1,.47-1,2.27,2.27,0,0,1,1.07-.2,2.33,2.33,0,0,1,1.09.2,1,1,0,0,1,.47,1V16.71a1,1,0,0,1-.47,1A2.42,2.42,0,0,1,39,17.88Z"/><path class="cls-1" d="M39,17.61a2.76,2.76,0,0,1-.44,0,.9.9,0,0,1-.33-.09,2.21,2.21,0,0,1-.33-.21c-.11-.08-.26-.19-.42-.33l-12-10.11v9.86a.75.75,0,0,1-.33.73,2.2,2.2,0,0,1-1,.17,2.15,2.15,0,0,1-.95-.17.75.75,0,0,1-.33-.73V4.38a.78.78,0,0,1,.31-.73,1.85,1.85,0,0,1,.91-.18,2.47,2.47,0,0,1,1,.17,3.43,3.43,0,0,1,.81.54L37.81,14.26V4.38a.77.77,0,0,1,.32-.74,2.77,2.77,0,0,1,1.91,0,.76.76,0,0,1,.33.74V16.71a.75.75,0,0,1-.33.73A2.28,2.28,0,0,1,39,17.61Z"/><path class="cls-1" d="M51.2,17.8c-4,0-6-1.3-6-3.85V7.14c0-2.56,2-3.86,6-3.86h2.87a.85.85,0,0,1,.82.4,1.88,1.88,0,0,1,.18.91,1.88,1.88,0,0,1-.18.91.85.85,0,0,1-.82.4h-2.8a5,5,0,0,0-2.34.4c-.43.24-.63.51-.63.84v2.2H60.55a.86.86,0,0,1,.84.4,1.85,1.85,0,0,1,.18.91,1.91,1.91,0,0,1-.18.91.88.88,0,0,1-.84.39H48.3v2c0,.31.21.58.64.83a4.94,4.94,0,0,0,2.33.41h9.22a.88.88,0,0,1,.84.39,1.91,1.91,0,0,1,.18.91,2,2,0,0,1-.17.9.87.87,0,0,1-.85.41Z"/><path class="cls-1" d="M48,11.69V14A1.27,1.27,0,0,0,48.8,15a5.28,5.28,0,0,0,2.47.44h9.22a.64.64,0,0,1,.61.26,1.63,1.63,0,0,1,.15.78,1.59,1.59,0,0,1-.15.77c-.09.19-.3.27-.61.27H51.2q-5.72,0-5.72-3.58V7.14c0-2.4,1.91-3.59,5.72-3.59h2.87a.62.62,0,0,1,.59.26,1.72,1.72,0,0,1,.14.78,1.72,1.72,0,0,1-.14.78.6.6,0,0,1-.59.26h-2.8a5.28,5.28,0,0,0-2.47.44A1.25,1.25,0,0,0,48,7.14V9.61H60.55c.31,0,.51.08.61.26a1.6,1.6,0,0,1,.14.78,1.6,1.6,0,0,1-.14.78.65.65,0,0,1-.61.26Z"/><path class="cls-1" d="M2.13,22.5C.9,22.5.28,22.12.28,21.34V21.1c0-.77.62-1.16,1.85-1.16h.62A.2.2,0,0,1,3,20a.8.8,0,0,1,0,.5.2.2,0,0,1-.2.09H2.11a1.52,1.52,0,0,0-.78.14.38.38,0,0,0-.22.34v.24a.41.41,0,0,0,.22.35,1.64,1.64,0,0,0,.78.14H3.58c1.23,0,1.84.39,1.84,1.16v.31c0,.77-.61,1.16-1.84,1.16h-3a.22.22,0,0,1-.2-.08.57.57,0,0,1,0-.26.55.55,0,0,1,0-.25.22.22,0,0,1,.2-.08H3.6a1.59,1.59,0,0,0,.77-.14.4.4,0,0,0,.23-.35V23a.39.39,0,0,0-.23-.34,1.46,1.46,0,0,0-.77-.15Z"/><path class="cls-1" d="M12.42,20.62v3.57a.25.25,0,0,1-.1.24.66.66,0,0,1-.31.06.63.63,0,0,1-.31-.06.25.25,0,0,1-.11-.24V20.62H9.72a.2.2,0,0,1-.2-.09.8.8,0,0,1,0-.5.2.2,0,0,1,.2-.09h4.59a.19.19,0,0,1,.19.09.65.65,0,0,1,0,.5.19.19,0,0,1-.19.09Z"/><path class="cls-1" d="M20.15,20.23a.26.26,0,0,1,.29-.29H24a4.37,4.37,0,0,1,.76.07,2.07,2.07,0,0,1,.58.21,1,1,0,0,1,.36.31.72.72,0,0,1,.13.42v.79a.67.67,0,0,1-.13.41.94.94,0,0,1-.36.32,2.07,2.07,0,0,1-.58.21,4.37,4.37,0,0,1-.76.07H22.34l.21.08.29.11.4.15.6.24,1.5.6a.3.3,0,0,1,.2.28.25.25,0,0,1-.11.23.65.65,0,0,1-.31.07h-.25l-.13,0-.11-.05L21,22.82v1.37a.25.25,0,0,1-.11.24.63.63,0,0,1-.31.06.61.61,0,0,1-.3-.06.25.25,0,0,1-.11-.24Zm.83.39v1.47h2.89a3.89,3.89,0,0,0,.53,0,1.52,1.52,0,0,0,.33-.09.51.51,0,0,0,.18-.12.3.3,0,0,0,.05-.16V21a.3.3,0,0,0-.05-.15.52.52,0,0,0-.18-.13,1.59,1.59,0,0,0-.33-.08,3.89,3.89,0,0,0-.53,0Z"/><path class="cls-1" d="M32.29,22.57v.73a.4.4,0,0,0,.25.34,1.62,1.62,0,0,0,.8.15h3a.2.2,0,0,1,.19.08.55.55,0,0,1,.05.25.52.52,0,0,1-.05.25.19.19,0,0,1-.19.09h-3c-1.23,0-1.84-.39-1.84-1.16V21.1c0-.77.61-1.16,1.84-1.16h.93a.19.19,0,0,1,.19.09.65.65,0,0,1,0,.5.19.19,0,0,1-.19.09h-.9a1.63,1.63,0,0,0-.8.14.38.38,0,0,0-.25.34v.8h4a.22.22,0,0,1,.2.08.57.57,0,0,1,0,.26.55.55,0,0,1,0,.25.22.22,0,0,1-.2.08Z"/><path class="cls-1" d="M45.19,19.92a.67.67,0,0,1,.3.06.58.58,0,0,1,.19.16L48.39,24a.24.24,0,0,1,0,.14.28.28,0,0,1,0,.13.57.57,0,0,1-.11.11.52.52,0,0,1-.15.07l-.16,0a.33.33,0,0,1-.15,0,.22.22,0,0,1-.12-.09L47,23.3H43.51l-.69,1.07a.22.22,0,0,1-.12.09.4.4,0,0,1-.15,0l-.16,0a.61.61,0,0,1-.14-.07l-.11-.11a.2.2,0,0,1,0-.13.25.25,0,0,1,0-.14l2.56-3.88a.46.46,0,0,1,.18-.16A.71.71,0,0,1,45.19,19.92Zm-1.25,2.7h2.57l-1.32-1.94Z"/><path class="cls-1" d="M60.74,20.17A.72.72,0,0,1,61,20a.76.76,0,0,1,.27-.05c.3,0,.46.15.46.43v3.81a.25.25,0,0,1-.11.24.83.83,0,0,1-.62,0,.25.25,0,0,1-.11-.24v-3l-2.48,3a.87.87,0,0,1-.22.18.61.61,0,0,1-.28.06.67.67,0,0,1-.3-.06.73.73,0,0,1-.22-.18l-2.49-3v3a.25.25,0,0,1-.11.24.63.63,0,0,1-.31.06.61.61,0,0,1-.3-.06c-.08,0-.11-.12-.11-.24V20.38a.39.39,0,0,1,.45-.43.65.65,0,0,1,.5.22l2.86,3.46Z"/><path class="cls-1" d="M0,25.82H.5a.32.32,0,0,1,.23.09.29.29,0,0,1,.1.23.33.33,0,0,1-.09.23.3.3,0,0,1-.24.09H.15v.47H0ZM.58,26a.25.25,0,0,0-.13,0H.15v.39h.3a.28.28,0,0,0,.16-.05.16.16,0,0,0,.06-.15A.15.15,0,0,0,.58,26Z"/><path class="cls-1" d="M1.93,26a.59.59,0,0,1,.11.38.66.66,0,0,1-.12.41.51.51,0,0,1-.43.2.51.51,0,0,1-.4-.17A.64.64,0,0,1,1,26.38.68.68,0,0,1,1.07,26a.49.49,0,0,1,.43-.21A.52.52,0,0,1,1.93,26Zm-.13.71a.6.6,0,0,0,.09-.33.5.5,0,0,0-.1-.31.36.36,0,0,0-.28-.12.38.38,0,0,0-.28.11.48.48,0,0,0-.11.35.55.55,0,0,0,.09.32.35.35,0,0,0,.3.12A.33.33,0,0,0,1.8,26.69Z"/><path class="cls-1" d="M2.3,25.82l.2.91.26-.91h.16l.25.91.21-.91h.16l-.29,1.11H3.09L2.84,26l-.26.92H2.42l-.29-1.11Z"/><path class="cls-1" d="M3.7,25.82h.8V26H3.84v.34h.61v.12H3.84v.38h.67v.13H3.7Z"/><path class="cls-1" d="M4.73,25.82h.51a.54.54,0,0,1,.2,0,.25.25,0,0,1,.16.26.43.43,0,0,1,0,.17.4.4,0,0,1-.12.1.18.18,0,0,1,.1.07.34.34,0,0,1,0,.14v.15a.22.22,0,0,0,0,.09.1.1,0,0,0,0,.07v0H5.46l0,0a.34.34,0,0,0,0-.09v-.19c0-.07,0-.12-.08-.14a.24.24,0,0,0-.13,0H4.88v.47H4.73Zm.49.51a.25.25,0,0,0,.16,0,.18.18,0,0,0,.06-.15c0-.08,0-.14-.08-.16a.21.21,0,0,0-.12,0H4.88v.38Z"/><path class="cls-1" d="M5.85,25.82h.8V26H6v.34H6.6v.12H6v.38h.67v.13H5.85Z"/><path class="cls-1" d="M6.87,25.82h.45a.43.43,0,0,1,.35.17.6.6,0,0,1,.11.37.79.79,0,0,1-.07.32.4.4,0,0,1-.4.25H6.87Zm.42,1h.12a.3.3,0,0,0,.14-.11.48.48,0,0,0,.06-.18.45.45,0,0,0,0-.11.49.49,0,0,0-.08-.32A.29.29,0,0,0,7.28,26H7v.85Z"/><path class="cls-1" d="M8.41,25.82h.48a.32.32,0,0,1,.28.12.3.3,0,0,1,.05.16.24.24,0,0,1-.06.17.35.35,0,0,1-.09.07.4.4,0,0,1,.13.07.26.26,0,0,1,.07.2.26.26,0,0,1-.07.19.37.37,0,0,1-.32.13H8.41Zm.42.47.15,0a.16.16,0,0,0,.09-.15A.14.14,0,0,0,9,26l-.15,0H8.56v.34Zm.05.51a.21.21,0,0,0,.2-.08.16.16,0,0,0,0-.12A.16.16,0,0,0,9,26.44a.33.33,0,0,0-.15,0h-.3v.39Z"/><path class="cls-1" d="M9.36,25.82h.17l.32.54.32-.54h.18l-.42.67v.44H9.78v-.44Z"/><path class="cls-1" d="M10.89,25.82h.78V26H11v.34h.55v.13H11v.5h-.15Z"/><path class="cls-1" d="M11.86,25.82H12v1.11h-.15Z"/><path class="cls-1" d="M12.27,25.82h.51a.54.54,0,0,1,.2,0,.25.25,0,0,1,.16.26.43.43,0,0,1,0,.17.4.4,0,0,1-.12.1.18.18,0,0,1,.1.07.34.34,0,0,1,0,.14v.15s0,.07,0,.09a.1.1,0,0,0,0,.07v0H13l0,0v-.28c0-.07,0-.12-.08-.14a.24.24,0,0,0-.13,0h-.34v.47h-.15Zm.49.51a.24.24,0,0,0,.16,0,.18.18,0,0,0,.07-.15A.15.15,0,0,0,12.9,26a.21.21,0,0,0-.12,0h-.36v.38Z"/><path class="cls-1" d="M13.47,26.57a.53.53,0,0,0,0,.16.3.3,0,0,0,.26.11l.15,0a.19.19,0,0,0,.13-.17.14.14,0,0,0-.06-.13.46.46,0,0,0-.17-.07l-.15,0a.55.55,0,0,1-.2-.08.21.21,0,0,1-.1-.2.32.32,0,0,1,.1-.25.41.41,0,0,1,.28-.09.45.45,0,0,1,.29.08.32.32,0,0,1,.12.27H14A.26.26,0,0,0,14,26a.25.25,0,0,0-.22-.08c-.09,0-.15,0-.18.05a.18.18,0,0,0-.06.13.11.11,0,0,0,.07.12.51.51,0,0,0,.19.06l.15,0a.34.34,0,0,1,.17.07.25.25,0,0,1,.1.22.29.29,0,0,1-.13.27.58.58,0,0,1-.3.08.46.46,0,0,1-.32-.11.38.38,0,0,1-.11-.29Z"/><path class="cls-1" d="M15.21,25.82V26h-.37v1h-.15V26h-.38v-.14Z"/><path class="cls-1" d="M15.75,25.82H16l.31.94.32-.94h.22v1.11h-.15V26l-.31.93h-.15L15.89,26v.93h-.14Z"/><path class="cls-1" d="M17.06,25.82h.8V26H17.2v.34h.61v.12H17.2v.38h.67v.13h-.81Z"/><path class="cls-1" d="M18.08,25.82h.45a.43.43,0,0,1,.35.17.6.6,0,0,1,.11.37.66.66,0,0,1-.07.32.4.4,0,0,1-.4.25h-.44Zm.42,1h.12a.3.3,0,0,0,.14-.11.48.48,0,0,0,.06-.18.45.45,0,0,0,0-.11.49.49,0,0,0-.08-.32A.28.28,0,0,0,18.5,26h-.27v.85Z"/><path class="cls-1" d="M19.23,25.82h.15v1.11h-.15Z"/><path class="cls-1" d="M20,25.82h.17l.4,1.11h-.17l-.11-.33H19.8l-.12.33h-.15Zm.25.66L20,26l-.18.49Z"/></g></g></svg>