<svg width="292" height="80" viewBox="0 0 292 80" fill="none" xmlns="http://www.w3.org/2000/svg">
<g clip-path="url(#clip0_40001603_3566)">
<path d="M0.119141 0H5.57139C6.49865 0 7.33936 0.210178 8.11825 0.618169C8.90951 1.02616 9.52768 1.59488 9.98512 2.33668C10.4549 3.06612 10.6898 3.89447 10.6898 4.82172C10.6898 5.74897 10.4549 6.57732 9.98512 7.30676C9.52768 8.0362 8.90951 8.61728 8.11825 9.02527C7.33936 9.43326 6.48628 9.64344 5.57139 9.64344H2.57945V15.751H0.119141V0ZM5.60848 7.2944C6.15247 7.2944 6.62228 7.18313 7.01791 6.94822C7.41354 6.70095 7.71026 6.37951 7.92044 6.0086C8.13061 5.62534 8.22952 5.22971 8.22952 4.82172C8.22952 4.41373 8.13061 4.0181 7.92044 3.63483C7.71026 3.25157 7.41354 2.94249 7.01791 2.70758C6.62228 2.47268 6.15247 2.36141 5.60848 2.36141H2.57945V7.30676L5.60848 7.2944Z" fill="white"/>
<path d="M17.286 16.0967C16.161 16.0967 15.1472 15.8371 14.257 15.3302C13.3668 14.7985 12.6621 14.0815 12.1676 13.1789C11.673 12.2764 11.4258 11.2626 11.4258 10.1499C11.4258 9.03721 11.673 8.02341 12.1676 7.12088C12.6621 6.20599 13.3668 5.50128 14.257 4.99438C15.1472 4.46276 16.161 4.20312 17.286 4.20312C18.4111 4.20312 19.4249 4.46276 20.3151 4.99438C21.2052 5.52601 21.9099 6.24308 22.4045 7.14561C22.899 8.0605 23.1463 9.06193 23.1463 10.1623C23.1463 11.275 22.899 12.2888 22.4045 13.1913C21.9099 14.0938 21.2052 14.8233 20.3151 15.3425C19.4249 15.8371 18.4111 16.0967 17.286 16.0967ZM17.286 13.8713C17.9042 13.8713 18.4729 13.7229 19.0045 13.4262C19.5362 13.1171 19.9442 12.6844 20.2532 12.1281C20.5747 11.5593 20.7354 10.8917 20.7354 10.1252C20.7354 9.35866 20.5747 8.7034 20.2532 8.14704C19.9442 7.59069 19.5238 7.17034 19.0045 6.87362C18.4729 6.56453 17.9042 6.41617 17.286 6.41617C16.6679 6.41617 16.0991 6.56453 15.5675 6.87362C15.0359 7.17034 14.6155 7.59069 14.2941 8.14704C13.985 8.7034 13.8366 9.35866 13.8366 10.1252C13.8366 10.8917 13.985 11.5593 14.2941 12.1281C14.6155 12.6844 15.0359 13.1171 15.5675 13.4262C16.0991 13.7229 16.6679 13.8713 17.286 13.8713Z" fill="white"/>
<path d="M23.9082 4.52441H26.5292L28.7917 12.5483H28.8783L31.4128 4.52441H33.8978L36.4076 12.5483H36.4941L38.7566 4.52441H41.3282L37.7428 15.738H35.196L32.6244 7.68944H32.5626L30.0157 15.738H27.5059L23.9082 4.52441Z" fill="white"/>
<path d="M47.7835 16.098C46.6831 16.098 45.6941 15.8384 44.8163 15.3315C43.9508 14.8246 43.2708 14.1199 42.7763 13.2173C42.2941 12.3024 42.0469 11.2886 42.0469 10.1636C42.0469 9.08795 42.2818 8.09888 42.7516 7.19635C43.2338 6.2691 43.9014 5.53966 44.7545 4.99567C45.6075 4.45168 46.5719 4.17969 47.6599 4.17969C48.7849 4.17969 49.7616 4.42696 50.5776 4.92149C51.4183 5.41603 52.0489 6.09601 52.4692 6.96145C52.9143 7.82689 53.1245 8.80359 53.1245 9.89157C53.1245 10.1017 53.0997 10.349 53.0627 10.6581H44.4701C44.5566 11.6966 44.9275 12.5002 45.5704 13.0813C46.2257 13.6377 46.9922 13.922 47.8577 13.922C48.55 13.922 49.1435 13.7737 49.638 13.4646C50.1573 13.1431 50.5652 12.7104 50.8743 12.1664L52.9143 13.1308C52.3827 14.058 51.7027 14.7751 50.8496 15.3067C49.9965 15.826 48.9704 16.098 47.7835 16.098ZM50.6642 8.81596C50.6394 8.42033 50.5158 8.03706 50.2933 7.6538C50.0707 7.25817 49.7369 6.92436 49.2795 6.66473C48.8344 6.4051 48.3027 6.2691 47.6475 6.2691C46.8686 6.2691 46.2133 6.504 45.6693 6.97381C45.1377 7.43126 44.7792 8.04943 44.569 8.81596H50.6642Z" fill="white"/>
<path d="M55.3268 4.52457H57.6388V6.18127H57.75C57.9973 5.61255 58.43 5.14274 59.0482 4.77184C59.6664 4.38858 60.3216 4.20312 61.0016 4.20312C61.5456 4.20312 62.003 4.27731 62.3616 4.42567V6.92307C61.7187 6.68817 61.1376 6.5769 60.6183 6.5769C60.062 6.5769 59.5675 6.72526 59.1224 7.02198C58.702 7.3187 58.3558 7.71433 58.1086 8.20886C57.8613 8.69103 57.7377 9.22266 57.7377 9.8161V15.7505H55.3145V4.52457H55.3268Z" fill="white"/>
<path d="M68.68 16.098C67.5796 16.098 66.5906 15.8384 65.7128 15.3315C64.8473 14.8246 64.1673 14.1199 63.6728 13.2173C63.1906 12.3024 62.9434 11.2886 62.9434 10.1636C62.9434 9.08795 63.1783 8.09888 63.6481 7.19635C64.1302 6.2691 64.7979 5.53966 65.6509 4.99567C66.504 4.45168 67.4684 4.17969 68.5563 4.17969C69.6814 4.17969 70.6581 4.42696 71.4741 4.92149C72.3148 5.41603 72.9453 6.09601 73.3657 6.96145C73.8108 7.82689 74.021 8.80359 74.021 9.89157C74.021 10.1017 73.9962 10.349 73.9591 10.6581H65.3666C65.4531 11.6966 65.824 12.5002 66.4669 13.0813C67.1222 13.6377 67.8887 13.922 68.7541 13.922C69.4465 13.922 70.0399 13.7737 70.5345 13.4646C71.0414 13.1431 71.4617 12.7104 71.7708 12.1664L73.8108 13.1308C73.2791 14.058 72.5992 14.7751 71.7461 15.3067C70.8807 15.826 69.8669 16.098 68.68 16.098ZM71.5606 8.81596C71.5359 8.42033 71.4123 8.03706 71.1897 7.6538C70.9672 7.25817 70.6334 6.92436 70.1759 6.66473C69.7309 6.4051 69.1992 6.2691 68.544 6.2691C67.7651 6.2691 67.1098 6.504 66.5658 6.97381C66.0342 7.43126 65.6757 8.04943 65.4655 8.81596H71.5606Z" fill="white"/>
<path d="M81.1157 16.0971C80.1019 16.0971 79.187 15.8375 78.371 15.3306C77.555 14.8237 76.8998 14.119 76.4176 13.2165C75.9478 12.3139 75.7129 11.2878 75.7129 10.138C75.7129 8.98818 75.9478 7.97438 76.4176 7.08422C76.8998 6.16933 77.555 5.46462 78.371 4.95772C79.187 4.45082 80.1019 4.19119 81.1157 4.19119C81.9069 4.19119 82.6117 4.36427 83.2422 4.72281C83.8727 5.06899 84.3549 5.50171 84.6763 6.02097H84.7876L84.6763 4.43845V0H87.0996V15.7386H84.7876V14.2921H84.6763C84.3549 14.7866 83.8727 15.2193 83.2422 15.5655C82.624 15.9117 81.9069 16.0971 81.1157 16.0971ZM81.4742 13.8717C82.0553 13.8717 82.5993 13.7234 83.1062 13.4143C83.6255 13.1052 84.0334 12.6725 84.3425 12.0914C84.6516 11.5227 84.8 10.8674 84.8 10.138C84.8 9.40853 84.6516 8.76564 84.3425 8.20929C84.0334 7.64057 83.6255 7.19549 83.1062 6.8864C82.6117 6.57732 82.0677 6.42896 81.4742 6.42896C80.8808 6.42896 80.3368 6.57732 79.8299 6.8864C79.323 7.19549 78.9026 7.62821 78.5936 8.20929C78.2845 8.75328 78.1361 9.39617 78.1361 10.138C78.1361 10.8674 78.2845 11.5227 78.5936 12.0914C78.9026 12.6601 79.3106 13.1052 79.8299 13.4143C80.3368 13.7234 80.8808 13.8717 81.4742 13.8717Z" fill="white"/>
<path d="M101.06 16.0971C100.269 16.0971 99.5517 15.924 98.9212 15.5655C98.2906 15.2193 97.8085 14.7866 97.487 14.2921H97.3758V15.7386H95.0762V0H97.4994V4.41373L97.3881 5.99624H97.4994C97.8208 5.48934 98.303 5.05662 98.9336 4.69809C99.5641 4.33955 100.281 4.16646 101.072 4.16646C102.086 4.16646 103.001 4.42609 103.817 4.93299C104.633 5.43989 105.288 6.15696 105.746 7.05949C106.228 7.94966 106.475 8.97582 106.475 10.1132C106.475 11.2507 106.228 12.2768 105.746 13.1917C105.276 14.0819 104.633 14.7866 103.817 15.3059C102.976 15.8375 102.061 16.0971 101.06 16.0971ZM100.702 13.8717C101.283 13.8717 101.839 13.7234 102.346 13.4143C102.865 13.1052 103.273 12.6725 103.582 12.0914C103.891 11.5227 104.04 10.8674 104.04 10.138C104.04 9.40853 103.891 8.76564 103.582 8.20929C103.273 7.64057 102.865 7.19549 102.346 6.8864C101.839 6.57732 101.283 6.42896 100.702 6.42896C100.12 6.42896 99.5641 6.57732 99.0572 6.8864C98.5626 7.19549 98.1547 7.62821 97.8456 8.20929C97.5365 8.76564 97.3881 9.40853 97.3881 10.138C97.3881 10.8674 97.5365 11.5227 97.8456 12.0914C98.1547 12.6601 98.5626 13.1052 99.0572 13.4143C99.5641 13.7234 100.12 13.8717 100.702 13.8717Z" fill="white"/>
<path d="M111.665 15.1198L107.004 4.52441H109.711L112.877 12.1526H112.963L116.042 4.52441H118.7L111.776 20.4855H109.229L111.665 15.1198Z" fill="white"/>
<path d="M182.731 63.2143C182.731 57.8239 186.662 53.5585 191.62 53.5585C196.578 53.5585 200.2 57.7003 200.2 63.2143C200.2 68.7284 196.516 72.9814 191.62 72.9814C186.712 72.9938 182.731 68.6789 182.731 63.2143ZM165.682 78.2729H172.63V48.2917H165.682V78.2729ZM164.594 38.2774C164.594 40.8613 166.708 42.9507 169.193 42.9507C171.678 42.9507 173.73 40.849 173.73 38.2774C173.73 35.8789 171.678 33.8389 169.193 33.8389C166.708 33.8389 164.594 35.8789 164.594 38.2774ZM137.332 63.1649C137.332 57.7744 141.326 53.5709 146.457 53.5709C151.6 53.5709 155.581 57.7621 155.581 63.1649C155.581 68.5553 151.526 72.9938 146.457 72.9938C141.388 72.9938 137.332 68.6171 137.332 63.1649ZM130.261 63.1649C130.261 72.1531 137.394 79.2373 146.457 79.2373C155.519 79.2373 162.653 72.1654 162.653 63.1649C162.653 54.1643 155.643 47.3397 146.457 47.3397C137.271 47.3274 130.261 54.2261 130.261 63.1649ZM111.456 78.2729H118.404V62.5591C118.404 56.3279 121.73 53.5709 127.293 53.5709C128.32 53.5709 129.111 53.6327 129.828 53.8058V47.7477C129.098 47.5128 127.837 47.3274 126.44 47.3274C117.007 47.3274 111.456 53.2 111.456 62.5591V78.2729ZM83.6012 63.2143C83.6012 57.8239 87.5328 53.5585 92.4905 53.5585C97.4482 53.5585 101.071 57.7003 101.071 63.2143C101.071 68.7284 97.3864 72.9814 92.4905 72.9814C87.5822 72.9938 83.6012 68.6789 83.6012 63.2143ZM76.5294 63.2143C76.5294 71.9058 83.5394 79.2249 91.8229 79.2249C95.2722 79.2249 98.4125 77.8402 100.279 75.5654H100.588V78.2606H107.537V31.4404H100.588V50.752H100.279C98.462 48.5884 95.3217 47.3397 91.8229 47.3397C83.4776 47.3274 76.5294 54.5847 76.5294 63.2143ZM46.0536 78.2729H53.0018V60.7046C53.0018 56.5134 55.8454 53.5709 59.777 53.5709C63.7085 53.5709 66.5521 56.5134 66.5521 60.7046V78.2729H73.5003V60.7046C73.5003 53.3854 67.6401 47.3397 59.777 47.3397C51.9139 47.3397 46.0536 53.3978 46.0536 60.7046V78.2729ZM14.1437 60.2842L21.6359 38.9945H21.9945L29.4867 60.2842H14.1437ZM0 78.2729H7.86311L11.7947 67.1212H31.8604L35.792 78.2729H43.6427L26.1733 31.4404H17.4695L0 78.2729ZM190.94 79.2249C194.39 79.2249 197.53 77.8402 199.409 75.5654H199.706V78.2606H206.654V31.4404H199.706V50.752H199.409C197.592 48.5884 194.451 47.3397 190.94 47.3397C182.595 47.3397 175.647 54.597 175.647 63.2267C175.647 71.8563 182.669 79.2249 190.94 79.2249Z" fill="white"/>
<path d="M287.178 31.4248L272.317 73.9178H271.501L256.64 31.4248H251.93L269.127 79.2464H270.45H273.38H274.678L291.888 31.4248H287.178Z" fill="white"/>
<path d="M249.147 31.4248H218.152V35.3316H231.703V79.2216H235.597V35.3316H249.147V31.4248Z" fill="white"/>
</g>
<defs>
<clipPath id="clip0_40001603_3566">
<rect width="291.9" height="79.2493" fill="white"/>
</clipPath>
</defs>
</svg>
