<svg width="52" height="52" viewBox="0 0 52 52" fill="none" xmlns="http://www.w3.org/2000/svg">
<rect x="0.65" y="0.65" width="50.7" height="50.7" rx="25.35" fill="white"/>
<rect x="0.65" y="0.65" width="50.7" height="50.7" rx="25.35" stroke="#DEDEDE" stroke-width="1.3"/>
<path d="M31.7453 32.8428C33.5604 30.2837 34.6003 27.256 34.7407 24.1217C34.7407 18.7383 31.054 14.8281 25.9778 14.8281C20.9016 14.8281 17.2148 18.7383 17.2148 24.1217C17.2148 26.5097 18.36 29.7077 20.2103 32.5425C20.9547 33.7046 21.8518 34.7614 22.8776 35.6846H17.7874V37.1719H34.1682V35.6846H29.2176C30.1847 34.8559 31.035 33.8999 31.7453 32.8428ZM21.4602 31.7256C19.7914 29.184 18.7091 26.2025 18.7091 24.1287C18.7091 19.5971 21.7883 16.3154 25.9778 16.3154C30.1672 16.3154 33.2465 19.5971 33.2465 24.1217C33.111 26.9568 32.1634 29.6933 30.5164 32.0049C29.826 33.0609 28.9756 34.0031 27.9957 34.7979C27.428 35.288 26.7238 35.5926 25.9778 35.6707C25.2353 35.5588 24.5467 35.2169 24.0087 34.6931C23.021 33.8316 22.1627 32.8321 21.4602 31.7256Z" fill="#2F2F2F"/>
<path d="M25.9779 25.9495C26.6221 25.9495 27.2519 25.7585 27.7875 25.4006C28.3232 25.0427 28.7407 24.5339 28.9872 23.9388C29.2337 23.3436 29.2982 22.6887 29.1726 22.0568C29.0469 21.425 28.7367 20.8446 28.2811 20.3891C27.8256 19.9335 27.2452 19.6233 26.6134 19.4976C25.9815 19.372 25.3266 19.4365 24.7314 19.683C24.1363 19.9295 23.6276 20.347 23.2696 20.8827C22.9117 21.4183 22.7207 22.0481 22.7207 22.6923C22.7226 23.5556 23.0664 24.3829 23.6768 24.9934C24.2873 25.6038 25.1146 25.9476 25.9779 25.9495ZM25.9779 20.9445C26.3179 20.9445 26.6502 21.0453 26.9329 21.2342C27.2156 21.4231 27.4359 21.6915 27.566 22.0056C27.6961 22.3197 27.7301 22.6653 27.6638 22.9987C27.5975 23.3322 27.4338 23.6384 27.1934 23.8788C26.953 24.1192 26.6467 24.2829 26.3133 24.3493C25.9798 24.4156 25.6342 24.3815 25.3201 24.2514C25.006 24.1213 24.7376 23.901 24.5487 23.6184C24.3598 23.3357 24.259 23.0034 24.259 22.6634C24.259 22.2075 24.4401 21.7703 24.7625 21.448C25.0848 21.1256 25.522 20.9445 25.9779 20.9445Z" fill="#2F2F2F"/>
</svg>
