<svg width="52" height="52" viewBox="0 0 52 52" fill="none" xmlns="http://www.w3.org/2000/svg">
<rect x="0.65" y="0.65" width="50.7" height="50.7" rx="25.35" fill="white"/>
<rect x="0.65" y="0.65" width="50.7" height="50.7" rx="25.35" stroke="#DEDEDE" stroke-width="1.3"/>
<path fill-rule="evenodd" clip-rule="evenodd" d="M21.5313 25.2529C21.6791 25.2529 21.8235 25.2967 21.9464 25.3788C22.0692 25.4609 22.165 25.5776 22.2215 25.7141C22.2781 25.8507 22.2929 26.0009 22.2641 26.1458C22.2352 26.2907 22.1641 26.4239 22.0596 26.5283C21.9551 26.6328 21.822 26.704 21.6771 26.7328C21.5321 26.7616 21.3819 26.7468 21.2454 26.6903C21.1089 26.6337 20.9922 26.538 20.9101 26.4151C20.828 26.2923 20.7842 26.1478 20.7842 26C20.7842 25.9019 20.8035 25.8048 20.8411 25.7141C20.8786 25.6235 20.9336 25.5411 21.003 25.4718C21.0724 25.4024 21.1547 25.3473 21.2454 25.3098C21.336 25.2723 21.4332 25.2529 21.5313 25.2529Z" fill="#2F2F2F"/>
<path fill-rule="evenodd" clip-rule="evenodd" d="M26 25.2529C26.1478 25.2529 26.2923 25.2967 26.4151 25.3788C26.538 25.4609 26.6337 25.5776 26.6903 25.7141C26.7468 25.8507 26.7616 26.0009 26.7328 26.1458C26.704 26.2907 26.6328 26.4239 26.5283 26.5283C26.4239 26.6328 26.2907 26.704 26.1458 26.7328C26.0009 26.7616 25.8507 26.7468 25.7141 26.6903C25.5776 26.6337 25.4609 26.538 25.3788 26.4151C25.2967 26.2923 25.2529 26.1478 25.2529 26C25.2529 25.8019 25.3316 25.6119 25.4718 25.4718C25.6119 25.3316 25.8019 25.2529 26 25.2529Z" fill="#2F2F2F"/>
<path fill-rule="evenodd" clip-rule="evenodd" d="M30.4688 25.2529C30.6166 25.2529 30.761 25.2967 30.8839 25.3788C31.0067 25.4609 31.1025 25.5776 31.159 25.7141C31.2156 25.8507 31.2304 26.0009 31.2016 26.1458C31.1727 26.2907 31.1016 26.4239 30.9971 26.5283C30.8926 26.6328 30.7595 26.704 30.6146 26.7328C30.4696 26.7616 30.3194 26.7468 30.1829 26.6903C30.0464 26.6337 29.9297 26.538 29.8476 26.4151C29.7655 26.2923 29.7217 26.1478 29.7217 26C29.7217 25.8019 29.8004 25.6119 29.9405 25.4718C30.0806 25.3316 30.2707 25.2529 30.4688 25.2529Z" fill="#2F2F2F"/>
<path fill-rule="evenodd" clip-rule="evenodd" d="M21.5313 28.2344C21.6791 28.2344 21.8235 28.2782 21.9464 28.3603C22.0692 28.4424 22.165 28.5591 22.2215 28.6956C22.2781 28.8321 22.2929 28.9823 22.2641 29.1272C22.2352 29.2722 22.1641 29.4053 22.0596 29.5098C21.9551 29.6143 21.822 29.6854 21.6771 29.7143C21.5321 29.7431 21.3819 29.7283 21.2454 29.6717C21.1089 29.6152 20.9922 29.5194 20.9101 29.3966C20.828 29.2737 20.7842 29.1293 20.7842 28.9815C20.7842 28.8834 20.8035 28.7862 20.8411 28.6956C20.8786 28.6049 20.9336 28.5226 21.003 28.4532C21.0724 28.3838 21.1547 28.3288 21.2454 28.2912C21.336 28.2537 21.4332 28.2344 21.5313 28.2344Z" fill="#2F2F2F"/>
<path fill-rule="evenodd" clip-rule="evenodd" d="M26 28.2344C26.1478 28.2344 26.2923 28.2782 26.4151 28.3603C26.538 28.4424 26.6337 28.5591 26.6903 28.6956C26.7468 28.8321 26.7616 28.9823 26.7328 29.1272C26.704 29.2722 26.6328 29.4053 26.5283 29.5098C26.4239 29.6143 26.2907 29.6854 26.1458 29.7143C26.0009 29.7431 25.8507 29.7283 25.7141 29.6717C25.5776 29.6152 25.4609 29.5194 25.3788 29.3966C25.2967 29.2737 25.2529 29.1293 25.2529 28.9815C25.2529 28.7833 25.3316 28.5933 25.4718 28.4532C25.6119 28.3131 25.8019 28.2344 26 28.2344Z" fill="#2F2F2F"/>
<path fill-rule="evenodd" clip-rule="evenodd" d="M30.4688 28.2344C30.6166 28.2344 30.761 28.2782 30.8839 28.3603C31.0067 28.4424 31.1025 28.5591 31.159 28.6956C31.2156 28.8321 31.2304 28.9823 31.2016 29.1272C31.1727 29.2722 31.1016 29.4053 30.9971 29.5098C30.8926 29.6143 30.7595 29.6854 30.6146 29.7143C30.4696 29.7431 30.3194 29.7283 30.1829 29.6717C30.0464 29.6152 29.9297 29.5194 29.8476 29.3966C29.7655 29.2737 29.7217 29.1293 29.7217 28.9815C29.7217 28.7833 29.8004 28.5933 29.9405 28.4532C30.0806 28.3131 30.2707 28.2344 30.4688 28.2344Z" fill="#2F2F2F"/>
<path fill-rule="evenodd" clip-rule="evenodd" d="M21.5313 31.2158C21.6791 31.2158 21.8235 31.2596 21.9464 31.3417C22.0692 31.4238 22.165 31.5405 22.2215 31.677C22.2781 31.8135 22.2929 31.9638 22.2641 32.1087C22.2352 32.2536 22.1641 32.3867 22.0596 32.4912C21.9551 32.5957 21.822 32.6669 21.6771 32.6957C21.5321 32.7245 21.3819 32.7097 21.2454 32.6532C21.1089 32.5966 20.9922 32.5009 20.9101 32.378C20.828 32.2552 20.7842 32.1107 20.7842 31.9629C20.7842 31.8648 20.8035 31.7677 20.8411 31.677C20.8786 31.5864 20.9336 31.504 21.003 31.4346C21.0724 31.3653 21.1547 31.3102 21.2454 31.2727C21.336 31.2351 21.4332 31.2158 21.5313 31.2158Z" fill="#2F2F2F"/>
<path fill-rule="evenodd" clip-rule="evenodd" d="M26 31.2158C26.1478 31.2158 26.2923 31.2596 26.4151 31.3417C26.538 31.4238 26.6337 31.5405 26.6903 31.677C26.7468 31.8135 26.7616 31.9638 26.7328 32.1087C26.704 32.2536 26.6328 32.3867 26.5283 32.4912C26.4239 32.5957 26.2907 32.6669 26.1458 32.6957C26.0009 32.7245 25.8507 32.7097 25.7141 32.6532C25.5776 32.5966 25.4609 32.5009 25.3788 32.378C25.2967 32.2552 25.2529 32.1107 25.2529 31.9629C25.2529 31.7648 25.3316 31.5748 25.4718 31.4346C25.6119 31.2945 25.8019 31.2158 26 31.2158Z" fill="#2F2F2F"/>
<path fill-rule="evenodd" clip-rule="evenodd" d="M30.4688 31.2158C30.6166 31.2158 30.761 31.2596 30.8839 31.3417C31.0067 31.4238 31.1025 31.5405 31.159 31.677C31.2156 31.8135 31.2304 31.9638 31.2016 32.1087C31.1727 32.2536 31.1016 32.3867 30.9971 32.4912C30.8926 32.5957 30.7595 32.6669 30.6146 32.6957C30.4696 32.7245 30.3194 32.7097 30.1829 32.6532C30.0464 32.5966 29.9297 32.5009 29.8476 32.378C29.7655 32.2552 29.7217 32.1107 29.7217 31.9629C29.7217 31.7648 29.8004 31.5748 29.9405 31.4346C30.0806 31.2945 30.2707 31.2158 30.4688 31.2158Z" fill="#2F2F2F"/>
<path d="M36.0826 17.4116C35.7378 17.0648 35.3276 16.79 34.8757 16.603C34.4238 16.416 33.9393 16.3206 33.4503 16.3224H31.956V14.8281H30.4688V16.3154H21.5313V14.8281H20.044V16.3154H18.5498C18.0604 16.3154 17.5759 16.4119 17.1239 16.5993C16.672 16.7868 16.2614 17.0616 15.9157 17.4079C15.57 17.7542 15.296 18.1653 15.1094 18.6176C14.9228 19.07 14.8272 19.5547 14.8281 20.044V33.4502C14.8281 34.4373 15.2202 35.3839 15.9182 36.0818C16.6161 36.7798 17.5627 37.1719 18.5498 37.1719H33.4503C34.4373 37.1719 35.3839 36.7798 36.0818 36.0818C36.7798 35.3839 37.1719 34.4373 37.1719 33.4502V20.044C37.1736 19.555 37.0782 19.0704 36.8912 18.6186C36.7043 18.1667 36.4294 17.7564 36.0826 17.4116ZM16.9717 18.459C17.1784 18.2508 17.4242 18.0856 17.6951 17.9729C17.9659 17.8602 18.2564 17.8024 18.5498 17.8026H20.044V19.2969H21.5313V17.8096H30.4688V19.2969H31.956V17.8096H33.4433C34.0359 17.8096 34.6042 18.045 35.0232 18.4641C35.4422 18.8831 35.6776 19.4514 35.6776 20.044V21.5313H16.3154V20.044C16.3142 19.7495 16.3716 19.4577 16.4843 19.1855C16.597 18.9134 16.7627 18.6664 16.9717 18.459ZM35.0283 35.0283C34.8216 35.2365 34.5758 35.4017 34.3049 35.5144C34.0341 35.627 33.7436 35.6849 33.4503 35.6846H18.5498C17.9572 35.6846 17.3888 35.4492 16.9698 35.0302C16.5508 34.6112 16.3154 34.0428 16.3154 33.4502V23.0185H35.6846V33.4502C35.6849 33.7436 35.627 34.0341 35.5144 34.3049C35.4017 34.5758 35.2365 34.8216 35.0283 35.0283Z" fill="#2F2F2F"/>
</svg>
