<svg width="52" height="52" viewBox="0 0 52 52" fill="none" xmlns="http://www.w3.org/2000/svg">
<rect x="0.65" y="0.65" width="50.7" height="50.7" rx="25.35" fill="white"/>
<rect x="0.65" y="0.65" width="50.7" height="50.7" rx="25.35" stroke="#DEDEDE" stroke-width="1.3"/>
<g clip-path="url(#clip0_874_17103)">
<path d="M23.3352 30.16C23.1708 30.1591 23.0101 30.1115 22.8716 30.023C22.7331 29.9344 22.6226 29.8084 22.5529 29.6595C22.4831 29.5107 22.457 29.3451 22.4776 29.182C22.4981 29.019 22.5644 28.865 22.6689 28.7381C23.0753 28.2503 23.584 27.8578 24.159 27.5885C24.734 27.3191 25.3612 27.1795 25.9961 27.1795C26.631 27.1795 27.2582 27.3191 27.8332 27.5885C28.4081 27.8578 28.9169 28.2503 29.3233 28.7381C29.4566 28.9163 29.5165 29.1388 29.4907 29.3598C29.4649 29.5808 29.3554 29.7835 29.1846 29.9262C29.0138 30.0689 28.7948 30.1406 28.5727 30.1267C28.3507 30.1127 28.1424 30.0142 27.9908 29.8513C27.7468 29.5594 27.4417 29.3246 27.097 29.1635C26.7523 29.0024 26.3765 28.919 25.9961 28.919C25.6156 28.919 25.2398 29.0024 24.8952 29.1635C24.5505 29.3246 24.2454 29.5594 24.0014 29.8513C23.9196 29.9482 23.8176 30.0261 23.7025 30.0794C23.5874 30.1328 23.462 30.1603 23.3352 30.16ZM29.9895 27.3163C29.8626 27.3171 29.737 27.2898 29.6219 27.2364C29.5067 27.1831 29.4047 27.1049 29.3233 27.0075C28.9169 26.5197 28.4081 26.1272 27.8332 25.8579C27.2582 25.5885 26.631 25.4489 25.9961 25.4489C25.3612 25.4489 24.734 25.5885 24.159 25.8579C23.584 26.1272 23.0753 26.5197 22.6689 27.0075C22.5173 27.1704 22.309 27.269 22.0869 27.2829C21.8649 27.2969 21.6459 27.2251 21.4751 27.0825C21.3043 26.9398 21.1948 26.7371 21.169 26.5161C21.1432 26.295 21.2031 26.0725 21.3364 25.8944C21.9052 25.2106 22.6175 24.6604 23.4228 24.2828C24.2281 23.9052 25.1067 23.7095 25.9961 23.7095C26.8855 23.7095 27.764 23.9052 28.5693 24.2828C29.3746 24.6604 30.087 25.2106 30.6558 25.8944C30.7602 26.0213 30.8266 26.1752 30.8471 26.3383C30.8677 26.5014 30.8415 26.6669 30.7718 26.8158C30.7021 26.9646 30.5915 27.0906 30.4531 27.1792C30.3146 27.2678 30.1539 27.3153 29.9895 27.3163Z" fill="#2F2F2F"/>
<path fill-rule="evenodd" clip-rule="evenodd" d="M26.0002 30.875C26.1722 30.875 26.3403 30.926 26.4832 31.0215C26.6262 31.117 26.7376 31.2528 26.8034 31.4117C26.8692 31.5705 26.8864 31.7453 26.8529 31.914C26.8194 32.0826 26.7366 32.2375 26.615 32.3591C26.4934 32.4807 26.3385 32.5635 26.1698 32.597C26.0012 32.6306 25.8264 32.6134 25.6675 32.5476C25.5087 32.4818 25.3729 32.3703 25.2774 32.2274C25.1818 32.0844 25.1309 31.9163 25.1309 31.7444C25.1309 31.5138 25.2225 31.2927 25.3855 31.1296C25.5485 30.9666 25.7697 30.875 26.0002 30.875Z" fill="#2F2F2F"/>
<path d="M38.6665 21.3039L29.729 14.292C28.6608 13.4491 27.3399 12.9907 25.9793 12.9907C24.6187 12.9907 23.2977 13.4491 22.2296 14.292L13.2921 21.3039C13.1114 21.4463 12.9945 21.6546 12.9671 21.883C12.9397 22.1115 13.004 22.3415 13.1458 22.5226C13.2895 22.7015 13.4976 22.817 13.7254 22.8443C13.9532 22.8716 14.1827 22.8087 14.3646 22.6689L23.3021 15.657C24.0648 15.0553 25.0079 14.7281 25.9793 14.7281C26.9507 14.7281 27.8938 15.0553 28.6565 15.657L37.594 22.6689C37.7759 22.8087 38.0054 22.8716 38.2332 22.8443C38.461 22.817 38.669 22.7015 38.8127 22.5226C38.9546 22.3415 39.0188 22.1115 38.9914 21.883C38.964 21.6546 38.8472 21.4463 38.6665 21.3039Z" fill="#2F2F2F"/>
<path d="M32.0691 38.9999H19.9304C18.7818 38.9999 17.6803 38.5437 16.8682 37.7315C16.056 36.9194 15.5998 35.8179 15.5998 34.6693V25.1306C15.5881 25.0099 15.6017 24.8881 15.6399 24.773C15.678 24.6579 15.7399 24.5521 15.8213 24.4623C15.9028 24.3725 16.0022 24.3008 16.1131 24.2517C16.2239 24.2026 16.3438 24.1772 16.4651 24.1772C16.5863 24.1772 16.7062 24.2026 16.8171 24.2517C16.928 24.3008 17.0273 24.3725 17.1088 24.4623C17.1903 24.5521 17.2521 24.6579 17.2903 24.773C17.3284 24.8881 17.3421 25.0099 17.3304 25.1306V34.6693C17.3304 35.3589 17.6043 36.0202 18.0919 36.5078C18.5795 36.9954 19.2408 37.2693 19.9304 37.2693H32.0691C32.7587 37.2693 33.42 36.9954 33.9076 36.5078C34.3952 36.0202 34.6691 35.3589 34.6691 34.6693V25.1306C34.6574 25.0099 34.6711 24.8881 34.7093 24.773C34.7474 24.6579 34.8092 24.5521 34.8907 24.4623C34.9722 24.3725 35.0716 24.3008 35.1824 24.2517C35.2933 24.2026 35.4132 24.1772 35.5345 24.1772C35.6557 24.1772 35.7756 24.2026 35.8865 24.2517C35.9973 24.3008 36.0967 24.3725 36.1782 24.4623C36.2597 24.5521 36.3215 24.6579 36.3596 24.773C36.3978 24.8881 36.4115 25.0099 36.3998 25.1306V34.6693C36.3998 35.8179 35.9435 36.9194 35.1314 37.7315C34.3192 38.5437 33.2177 38.9999 32.0691 38.9999Z" fill="#2F2F2F"/>
</g>
<defs>
<clipPath id="clip0_874_17103">
<rect width="26" height="26" fill="white" transform="translate(13 13)"/>
</clipPath>
</defs>
</svg>
