<svg width="52" height="52" viewBox="0 0 52 52" fill="none" xmlns="http://www.w3.org/2000/svg">
<rect x="0.65" y="0.65" width="50.7" height="50.7" rx="25.35" fill="white"/>
<rect x="0.65" y="0.65" width="50.7" height="50.7" rx="25.35" stroke="#DEDEDE" stroke-width="1.3"/>
<path d="M33.9841 37.1719H18.0157C16.9585 37.1699 15.9452 36.7491 15.1977 36.0016C14.4502 35.254 14.0293 34.2407 14.0273 33.1836V23.613C14.0273 22.5546 14.4473 21.5393 15.195 20.7902C15.9428 20.041 16.9572 19.6192 18.0157 19.6172H33.9841C35.0425 19.6192 36.057 20.041 36.8047 20.7902C37.5525 21.5393 37.9724 22.5546 37.9724 23.613V33.1836C37.9704 34.2407 37.5496 35.254 36.8021 36.0016C36.0545 36.7491 35.0412 37.1699 33.9841 37.1719ZM18.0157 21.2185C17.3806 21.2185 16.7716 21.4708 16.3225 21.9198C15.8735 22.3689 15.6212 22.978 15.6212 23.613V33.1836C15.6212 33.8186 15.8735 34.4277 16.3225 34.8767C16.7716 35.3258 17.3806 35.5781 18.0157 35.5781H33.9841C34.6191 35.5781 35.2282 35.3258 35.6772 34.8767C36.1263 34.4277 36.3786 33.8186 36.3786 33.1836V23.613C36.3786 22.978 36.1263 22.3689 35.6772 21.9198C35.2282 21.4708 34.6191 21.2185 33.9841 21.2185H18.0157Z" fill="#2F2F2F"/>
<path d="M29.9881 18.8165C29.883 18.8165 29.7789 18.7958 29.6817 18.7555C29.5846 18.7153 29.4963 18.6563 29.422 18.582C29.3476 18.5076 29.2887 18.4194 29.2484 18.3222C29.2082 18.2251 29.1875 18.121 29.1875 18.0158V17.2226C29.1875 17.0116 29.1042 16.809 28.9556 16.6591C28.8071 16.5092 28.6053 16.4239 28.3943 16.422H23.6053C23.3929 16.422 23.1893 16.5063 23.0391 16.6565C22.889 16.8066 22.8046 17.0103 22.8046 17.2226V18.0158C22.8154 18.127 22.8028 18.2391 22.7677 18.3451C22.7325 18.4511 22.6756 18.5486 22.6006 18.6313C22.5255 18.7139 22.434 18.78 22.3319 18.8252C22.2298 18.8704 22.1194 18.8938 22.0077 18.8938C21.896 18.8938 21.7856 18.8704 21.6835 18.8252C21.5814 18.78 21.4899 18.7139 21.4148 18.6313C21.3398 18.5486 21.2829 18.4511 21.2477 18.3451C21.2126 18.2391 21.2 18.127 21.2108 18.0158V17.2226C21.2108 16.5876 21.4631 15.9785 21.9121 15.5295C22.3612 15.0804 22.9702 14.8281 23.6053 14.8281H28.3943C29.0294 14.8281 29.6384 15.0804 30.0875 15.5295C30.5365 15.9785 30.7888 16.5876 30.7888 17.2226V18.0158C30.7888 18.121 30.7681 18.2251 30.7279 18.3222C30.6876 18.4194 30.6286 18.5076 30.5543 18.582C30.4799 18.6563 30.3917 18.7153 30.2945 18.7555C30.1974 18.7958 30.0933 18.8165 29.9881 18.8165Z" fill="#2F2F2F"/>
<path d="M26.0007 28.7385C25.2263 28.7312 24.4618 28.563 23.7558 28.2447L18.5179 25.9325C18.3194 25.8461 18.1634 25.6845 18.0841 25.4831C18.0048 25.2818 18.0087 25.0571 18.0951 24.8587C18.1814 24.6602 18.343 24.5042 18.5444 24.4249C18.7458 24.3456 18.9704 24.3496 19.1689 24.4359L24.4068 26.7631C24.917 26.9893 25.4688 27.1062 26.0269 27.1062C26.5849 27.1062 27.1368 26.9893 27.6469 26.7631L32.8849 24.4359C32.9832 24.3931 33.0889 24.3702 33.196 24.3683C33.3032 24.3664 33.4096 24.3856 33.5094 24.4249C33.6091 24.4642 33.7001 24.5227 33.7772 24.5971C33.8543 24.6715 33.9159 24.7604 33.9587 24.8587C34.0014 24.9569 34.0244 25.0627 34.0263 25.1698C34.0282 25.277 34.0089 25.3834 33.9697 25.4831C33.9304 25.5828 33.8719 25.6738 33.7975 25.7509C33.7231 25.828 33.6342 25.8897 33.5359 25.9325L28.2455 28.2447C27.5396 28.563 26.7751 28.7312 26.0007 28.7385Z" fill="#2F2F2F"/>
</svg>
