<svg width="32" height="32" viewBox="0 0 32 32" fill="none" xmlns="http://www.w3.org/2000/svg">
<g clip-path="url(#clip0_40000690_4022)">
<path d="M25.3012 14.1022C23.3995 14.1022 21.6371 13.4937 20.1986 12.4612V19.9147C20.1986 23.6371 17.1703 26.6653 13.4479 26.6653C12.0094 26.6653 10.6757 26.2117 9.57918 25.4419C7.83831 24.2197 6.69727 22.1986 6.69727 19.9147C6.69727 16.1923 9.72556 13.1639 13.4479 13.1639C13.7568 13.1639 14.0596 13.1893 14.3576 13.2299V14.0987V16.9742C14.0697 16.8839 13.7653 16.8316 13.4479 16.8316C11.748 16.8316 10.3649 18.2147 10.3649 19.9147C10.3649 21.0985 11.0365 22.1271 12.0178 22.6435C12.4457 22.8687 12.9318 22.9977 13.4479 22.9977C15.1087 22.9977 16.4634 21.6767 16.5251 20.0307L16.531 5.33203H20.1986C20.1986 5.64999 20.2293 5.9607 20.2852 6.26266C20.5439 7.66011 21.3733 8.85899 22.5225 9.6082C23.3227 10.13 24.2768 10.4345 25.3012 10.4345L25.3012 14.1022Z" fill="white"/>
</g>
<defs>
<clipPath id="clip0_40000690_4022">
<rect width="21.3333" height="21.3333" fill="white" transform="translate(5.33203 5.33203)"/>
</clipPath>
</defs>
</svg>
