<svg width="79" height="151" viewBox="0 0 79 151" fill="none" xmlns="http://www.w3.org/2000/svg">
<path d="M39.5124 20.7471C31.1348 18.9928 24.8291 14.3931 19.8633 6.82349C28.7037 8.99214 35.0646 13.5297 39.5124 20.7471Z" fill="url(#paint0_linear_40000653_19214)"/>
<path d="M46.2258 87.8721C51.682 95.1378 53.4224 102.797 52.4141 111.859C46.7991 104.524 45.2658 96.8091 46.2258 87.8721Z" fill="url(#paint1_linear_40000653_19214)"/>
<path d="M64.0236 126.521C56.6198 131.563 48.9259 132.868 40.6035 131.169C47.5791 126.376 55.2385 124.884 64.0236 126.521Z" fill="url(#paint2_linear_40000653_19214)"/>
<path d="M51.9736 9.36523C55.1298 17.4183 55.0539 25.1467 52.1048 33.0823C48.5755 28.9177 48.1888 15.6847 51.9736 9.36523Z" fill="url(#paint3_linear_40000653_19214)"/>
<path d="M77.927 58.7817C76.1865 67.0005 70.4679 75.1226 64.3349 78.2375C64.1208 72.7744 71.0826 62.2281 77.927 58.7817Z" fill="url(#paint4_linear_40000653_19214)"/>
<path d="M55.4328 45.2861C46.7098 44.9408 39.4579 42.0746 33.4492 36.052C38.0144 34.3323 50.4324 38.9666 55.4328 45.2861Z" fill="url(#paint5_linear_40000653_19214)"/>
<path d="M45.7628 121.058C41.7984 113.433 41.2804 105.691 43.4215 97.5688C47.4342 101.319 48.8569 115.229 45.7628 121.058Z" fill="url(#paint6_linear_40000653_19214)"/>
<path d="M41.1217 0C45.5212 7.67317 46.6815 15.3325 44.8651 23.6135C40.3137 19.1864 38.8011 6.77532 41.1217 0Z" fill="url(#paint7_linear_40000653_19214)"/>
<path d="M18.9922 23.6202C25.8918 20.6297 36.7973 21.7278 42.8405 25.8856C34.5872 28.51 26.9416 27.3636 18.9922 23.6202Z" fill="url(#paint8_linear_40000653_19214)"/>
<path d="M54.6167 137.765C46.978 141.577 39.1736 141.791 30.5957 138.76C38.8559 135.127 46.6534 134.968 54.6167 137.765Z" fill="url(#paint9_linear_40000653_19214)"/>
<path d="M59.937 89.9991C52.9752 84.8813 49.1006 78.4375 47.4707 70.2947C52.3536 71.4343 59.9025 82.7472 59.937 89.9991Z" fill="url(#paint10_linear_40000653_19214)"/>
<path d="M57.0089 100.967C51.3594 96.498 46.8977 85.8965 47.8439 79.5217C52.7959 82.5744 57.3612 93.0793 57.0089 100.967Z" fill="url(#paint11_linear_40000653_19214)"/>
<path d="M34.4864 113.053C36.1232 122.121 34.2032 129.705 29.3548 137.399C27.8699 128.358 29.417 120.705 34.4864 113.053Z" fill="url(#paint12_linear_40000653_19214)"/>
<path d="M57.4831 43.5109C55.5354 35.3474 56.4609 27.619 61.1021 19.78C63.3398 28.6342 61.7997 36.266 57.4831 43.5109Z" fill="url(#paint13_linear_40000653_19214)"/>
<path d="M38.1179 129.601C35.4519 121.245 35.9423 113.475 39.4439 105.753C42.7453 110.843 42.0062 124.449 38.1179 129.601Z" fill="url(#paint14_linear_40000653_19214)"/>
<path d="M58.9946 56.0536C50.3199 54.4858 43.8071 50.2176 38.7031 43.5182C44.5046 42.8552 55.3065 49.4648 58.9946 56.0536Z" fill="url(#paint15_linear_40000653_19214)"/>
<path d="M63.8238 66.6343C63.0848 59.5482 69.0865 48.3527 74.446 45.2585C73.6656 53.7122 70.2814 60.6809 63.8238 66.6343Z" fill="url(#paint16_linear_40000653_19214)"/>
<path d="M26.2188 28.89C35.3009 27.8402 42.8428 29.7257 50.219 34.9816C41.206 36.2247 33.6916 34.2288 26.2188 28.89Z" fill="url(#paint17_linear_40000653_19214)"/>
<path d="M45.8809 60.7981C51.8412 62.2347 59.3624 70.8817 61.614 78.7758C53.7819 74.9082 48.8921 68.9547 45.8809 60.7981Z" fill="url(#paint18_linear_40000653_19214)"/>
<path d="M54.7695 112.28C58.6441 106.437 68.631 101.001 75.3165 101.091C72.6091 106.534 61.5241 112.57 54.7695 112.28Z" fill="url(#paint19_linear_40000653_19214)"/>
<path d="M42.7812 51.509C50.4751 53.505 59.4398 61.3301 60.8488 67.2007C52.6438 64.5002 47.015 59.2098 42.7812 51.509Z" fill="url(#paint20_linear_40000653_19214)"/>
<path d="M70.6682 114.545C64.0586 120.236 56.7999 122.715 48.4844 122.515C51.4473 117.639 63.6028 113.164 70.6682 114.545Z" fill="url(#paint21_linear_40000653_19214)"/>
<path d="M62.3965 90.1445C65.9119 82.2365 71.1816 76.504 78.8893 72.9333C77.9915 79.6741 68.2601 88.8598 62.3965 90.1445Z" fill="url(#paint22_linear_40000653_19214)"/>
<path d="M78.1889 87.333C76.2965 92.9757 66.9313 100.241 59.9004 101.526C61.2264 96.0076 72.2562 87.6783 78.1889 87.333Z" fill="url(#paint23_linear_40000653_19214)"/>
<path d="M68.431 32.6677C69.9366 39.001 66.6698 49.6578 61.7524 54.451C59.7287 49.0293 63.5757 36.5009 68.431 32.6677Z" fill="url(#paint24_linear_40000653_19214)"/>
<path d="M0.00690275 149.775C9.78657 147.772 18.9654 144.257 27.4121 138.911C27.5709 139.105 27.7367 139.291 27.8955 139.485C27.6607 139.934 27.5502 140.569 27.1842 140.804C19.2278 145.922 10.5601 149.257 1.2708 150.991C0.925475 151.053 0.524892 150.784 0.145032 150.666C0.0966857 150.369 0.0483458 150.072 0 149.775H0.00690275Z" fill="url(#paint25_linear_40000653_19214)"/>
<defs>
<linearGradient id="paint0_linear_40000653_19214" x1="19.8564" y1="13.7853" x2="39.5124" y2="13.7853" gradientUnits="userSpaceOnUse">
<stop offset="0.04" stop-color="#D8AF42"/>
<stop offset="0.15" stop-color="#D7B04C"/>
<stop offset="0.22" stop-color="#D1AB48"/>
<stop offset="0.33" stop-color="#D4B24F"/>
<stop offset="0.44" stop-color="#EDD772"/>
<stop offset="0.52" stop-color="#F0DC78"/>
<stop offset="0.65" stop-color="#F5ED86"/>
<stop offset="0.77" stop-color="#F3E880"/>
<stop offset="0.89" stop-color="#EBCF66"/>
<stop offset="1" stop-color="#B99331"/>
</linearGradient>
<linearGradient id="paint1_linear_40000653_19214" x1="45.9565" y1="99.8687" x2="52.6834" y2="99.8687" gradientUnits="userSpaceOnUse">
<stop offset="0.04" stop-color="#D8AF42"/>
<stop offset="0.15" stop-color="#D7B04C"/>
<stop offset="0.22" stop-color="#D1AB48"/>
<stop offset="0.33" stop-color="#D4B24F"/>
<stop offset="0.44" stop-color="#EDD772"/>
<stop offset="0.52" stop-color="#F0DC78"/>
<stop offset="0.65" stop-color="#F5ED86"/>
<stop offset="0.77" stop-color="#F3E880"/>
<stop offset="0.89" stop-color="#EBCF66"/>
<stop offset="1" stop-color="#B99331"/>
</linearGradient>
<linearGradient id="paint2_linear_40000653_19214" x1="40.6035" y1="128.876" x2="64.0236" y2="128.876" gradientUnits="userSpaceOnUse">
<stop offset="0.04" stop-color="#D8AF42"/>
<stop offset="0.15" stop-color="#D7B04C"/>
<stop offset="0.22" stop-color="#D1AB48"/>
<stop offset="0.33" stop-color="#D4B24F"/>
<stop offset="0.44" stop-color="#EDD772"/>
<stop offset="0.52" stop-color="#F0DC78"/>
<stop offset="0.65" stop-color="#F5ED86"/>
<stop offset="0.77" stop-color="#F3E880"/>
<stop offset="0.89" stop-color="#EBCF66"/>
<stop offset="1" stop-color="#B99331"/>
</linearGradient>
<linearGradient id="paint3_linear_40000653_19214" x1="49.2938" y1="21.2238" x2="54.3287" y2="21.2238" gradientUnits="userSpaceOnUse">
<stop offset="0.04" stop-color="#D8AF42"/>
<stop offset="0.15" stop-color="#D7B04C"/>
<stop offset="0.22" stop-color="#D1AB48"/>
<stop offset="0.33" stop-color="#D4B24F"/>
<stop offset="0.44" stop-color="#EDD772"/>
<stop offset="0.52" stop-color="#F0DC78"/>
<stop offset="0.65" stop-color="#F5ED86"/>
<stop offset="0.77" stop-color="#F3E880"/>
<stop offset="0.89" stop-color="#EBCF66"/>
<stop offset="1" stop-color="#B99331"/>
</linearGradient>
<linearGradient id="paint4_linear_40000653_19214" x1="64.328" y1="68.5062" x2="77.927" y2="68.5062" gradientUnits="userSpaceOnUse">
<stop offset="0.04" stop-color="#D8AF42"/>
<stop offset="0.15" stop-color="#D7B04C"/>
<stop offset="0.22" stop-color="#D1AB48"/>
<stop offset="0.33" stop-color="#D4B24F"/>
<stop offset="0.44" stop-color="#EDD772"/>
<stop offset="0.52" stop-color="#F0DC78"/>
<stop offset="0.65" stop-color="#F5ED86"/>
<stop offset="0.77" stop-color="#F3E880"/>
<stop offset="0.89" stop-color="#EBCF66"/>
<stop offset="1" stop-color="#B99331"/>
</linearGradient>
<linearGradient id="paint5_linear_40000653_19214" x1="33.4492" y1="40.486" x2="55.4328" y2="40.486" gradientUnits="userSpaceOnUse">
<stop offset="0.04" stop-color="#D8AF42"/>
<stop offset="0.15" stop-color="#D7B04C"/>
<stop offset="0.22" stop-color="#D1AB48"/>
<stop offset="0.33" stop-color="#D4B24F"/>
<stop offset="0.44" stop-color="#EDD772"/>
<stop offset="0.52" stop-color="#F0DC78"/>
<stop offset="0.65" stop-color="#F5ED86"/>
<stop offset="0.77" stop-color="#F3E880"/>
<stop offset="0.89" stop-color="#EBCF66"/>
<stop offset="1" stop-color="#B99331"/>
</linearGradient>
<linearGradient id="paint6_linear_40000653_19214" x1="42.1783" y1="109.31" x2="47.4411" y2="109.31" gradientUnits="userSpaceOnUse">
<stop offset="0.04" stop-color="#D8AF42"/>
<stop offset="0.15" stop-color="#D7B04C"/>
<stop offset="0.22" stop-color="#D1AB48"/>
<stop offset="0.33" stop-color="#D4B24F"/>
<stop offset="0.44" stop-color="#EDD772"/>
<stop offset="0.52" stop-color="#F0DC78"/>
<stop offset="0.65" stop-color="#F5ED86"/>
<stop offset="0.77" stop-color="#F3E880"/>
<stop offset="0.89" stop-color="#EBCF66"/>
<stop offset="1" stop-color="#B99331"/>
</linearGradient>
<linearGradient id="paint7_linear_40000653_19214" x1="40.0443" y1="11.8033" x2="45.6939" y2="11.8033" gradientUnits="userSpaceOnUse">
<stop offset="0.04" stop-color="#D8AF42"/>
<stop offset="0.15" stop-color="#D7B04C"/>
<stop offset="0.22" stop-color="#D1AB48"/>
<stop offset="0.33" stop-color="#D4B24F"/>
<stop offset="0.44" stop-color="#EDD772"/>
<stop offset="0.52" stop-color="#F0DC78"/>
<stop offset="0.65" stop-color="#F5ED86"/>
<stop offset="0.77" stop-color="#F3E880"/>
<stop offset="0.89" stop-color="#EBCF66"/>
<stop offset="1" stop-color="#B99331"/>
</linearGradient>
<linearGradient id="paint8_linear_40000653_19214" x1="18.9922" y1="24.6147" x2="42.8405" y2="24.6147" gradientUnits="userSpaceOnUse">
<stop offset="0.04" stop-color="#D8AF42"/>
<stop offset="0.15" stop-color="#D7B04C"/>
<stop offset="0.22" stop-color="#D1AB48"/>
<stop offset="0.33" stop-color="#D4B24F"/>
<stop offset="0.44" stop-color="#EDD772"/>
<stop offset="0.52" stop-color="#F0DC78"/>
<stop offset="0.65" stop-color="#F5ED86"/>
<stop offset="0.77" stop-color="#F3E880"/>
<stop offset="0.89" stop-color="#EBCF66"/>
<stop offset="1" stop-color="#B99331"/>
</linearGradient>
<linearGradient id="paint9_linear_40000653_19214" x1="30.5957" y1="138.338" x2="54.6167" y2="138.338" gradientUnits="userSpaceOnUse">
<stop offset="0.04" stop-color="#D8AF42"/>
<stop offset="0.15" stop-color="#D7B04C"/>
<stop offset="0.22" stop-color="#D1AB48"/>
<stop offset="0.33" stop-color="#D4B24F"/>
<stop offset="0.44" stop-color="#EDD772"/>
<stop offset="0.52" stop-color="#F0DC78"/>
<stop offset="0.65" stop-color="#F5ED86"/>
<stop offset="0.77" stop-color="#F3E880"/>
<stop offset="0.89" stop-color="#EBCF66"/>
<stop offset="1" stop-color="#B99331"/>
</linearGradient>
<linearGradient id="paint10_linear_40000653_19214" x1="47.4707" y1="80.1503" x2="59.937" y2="80.1503" gradientUnits="userSpaceOnUse">
<stop offset="0.04" stop-color="#D8AF42"/>
<stop offset="0.15" stop-color="#D7B04C"/>
<stop offset="0.22" stop-color="#D1AB48"/>
<stop offset="0.33" stop-color="#D4B24F"/>
<stop offset="0.44" stop-color="#EDD772"/>
<stop offset="0.52" stop-color="#F0DC78"/>
<stop offset="0.65" stop-color="#F5ED86"/>
<stop offset="0.77" stop-color="#F3E880"/>
<stop offset="0.89" stop-color="#EBCF66"/>
<stop offset="1" stop-color="#B99331"/>
</linearGradient>
<linearGradient id="paint11_linear_40000653_19214" x1="47.7127" y1="90.2407" x2="57.0297" y2="90.2407" gradientUnits="userSpaceOnUse">
<stop offset="0.04" stop-color="#D8AF42"/>
<stop offset="0.15" stop-color="#D7B04C"/>
<stop offset="0.22" stop-color="#D1AB48"/>
<stop offset="0.33" stop-color="#D4B24F"/>
<stop offset="0.44" stop-color="#EDD772"/>
<stop offset="0.52" stop-color="#F0DC78"/>
<stop offset="0.65" stop-color="#F5ED86"/>
<stop offset="0.77" stop-color="#F3E880"/>
<stop offset="0.89" stop-color="#EBCF66"/>
<stop offset="1" stop-color="#B99331"/>
</linearGradient>
<linearGradient id="paint12_linear_40000653_19214" x1="28.8161" y1="125.222" x2="35.0596" y2="125.222" gradientUnits="userSpaceOnUse">
<stop offset="0.04" stop-color="#D8AF42"/>
<stop offset="0.15" stop-color="#D7B04C"/>
<stop offset="0.22" stop-color="#D1AB48"/>
<stop offset="0.33" stop-color="#D4B24F"/>
<stop offset="0.44" stop-color="#EDD772"/>
<stop offset="0.52" stop-color="#F0DC78"/>
<stop offset="0.65" stop-color="#F5ED86"/>
<stop offset="0.77" stop-color="#F3E880"/>
<stop offset="0.89" stop-color="#EBCF66"/>
<stop offset="1" stop-color="#B99331"/>
</linearGradient>
<linearGradient id="paint13_linear_40000653_19214" x1="56.5231" y1="31.6455" x2="62.1243" y2="31.6455" gradientUnits="userSpaceOnUse">
<stop offset="0.04" stop-color="#D8AF42"/>
<stop offset="0.15" stop-color="#D7B04C"/>
<stop offset="0.22" stop-color="#D1AB48"/>
<stop offset="0.33" stop-color="#D4B24F"/>
<stop offset="0.44" stop-color="#EDD772"/>
<stop offset="0.52" stop-color="#F0DC78"/>
<stop offset="0.65" stop-color="#F5ED86"/>
<stop offset="0.77" stop-color="#F3E880"/>
<stop offset="0.89" stop-color="#EBCF66"/>
<stop offset="1" stop-color="#B99331"/>
</linearGradient>
<linearGradient id="paint14_linear_40000653_19214" x1="36.4189" y1="117.681" x2="41.5297" y2="117.681" gradientUnits="userSpaceOnUse">
<stop offset="0.04" stop-color="#D8AF42"/>
<stop offset="0.15" stop-color="#D7B04C"/>
<stop offset="0.22" stop-color="#D1AB48"/>
<stop offset="0.33" stop-color="#D4B24F"/>
<stop offset="0.44" stop-color="#EDD772"/>
<stop offset="0.52" stop-color="#F0DC78"/>
<stop offset="0.65" stop-color="#F5ED86"/>
<stop offset="0.77" stop-color="#F3E880"/>
<stop offset="0.89" stop-color="#EBCF66"/>
<stop offset="1" stop-color="#B99331"/>
</linearGradient>
<linearGradient id="paint15_linear_40000653_19214" x1="38.71" y1="49.7617" x2="58.9946" y2="49.7617" gradientUnits="userSpaceOnUse">
<stop offset="0.04" stop-color="#D8AF42"/>
<stop offset="0.15" stop-color="#D7B04C"/>
<stop offset="0.22" stop-color="#D1AB48"/>
<stop offset="0.33" stop-color="#D4B24F"/>
<stop offset="0.44" stop-color="#EDD772"/>
<stop offset="0.52" stop-color="#F0DC78"/>
<stop offset="0.65" stop-color="#F5ED86"/>
<stop offset="0.77" stop-color="#F3E880"/>
<stop offset="0.89" stop-color="#EBCF66"/>
<stop offset="1" stop-color="#B99331"/>
</linearGradient>
<linearGradient id="paint16_linear_40000653_19214" x1="63.7616" y1="55.9499" x2="74.446" y2="55.9499" gradientUnits="userSpaceOnUse">
<stop offset="0.04" stop-color="#D8AF42"/>
<stop offset="0.15" stop-color="#D7B04C"/>
<stop offset="0.22" stop-color="#D1AB48"/>
<stop offset="0.33" stop-color="#D4B24F"/>
<stop offset="0.44" stop-color="#EDD772"/>
<stop offset="0.52" stop-color="#F0DC78"/>
<stop offset="0.65" stop-color="#F5ED86"/>
<stop offset="0.77" stop-color="#F3E880"/>
<stop offset="0.89" stop-color="#EBCF66"/>
<stop offset="1" stop-color="#B99331"/>
</linearGradient>
<linearGradient id="paint17_linear_40000653_19214" x1="26.2188" y1="31.9703" x2="50.219" y2="31.9703" gradientUnits="userSpaceOnUse">
<stop offset="0.04" stop-color="#D8AF42"/>
<stop offset="0.15" stop-color="#D7B04C"/>
<stop offset="0.22" stop-color="#D1AB48"/>
<stop offset="0.33" stop-color="#D4B24F"/>
<stop offset="0.44" stop-color="#EDD772"/>
<stop offset="0.52" stop-color="#F0DC78"/>
<stop offset="0.65" stop-color="#F5ED86"/>
<stop offset="0.77" stop-color="#F3E880"/>
<stop offset="0.89" stop-color="#EBCF66"/>
<stop offset="1" stop-color="#B99331"/>
</linearGradient>
<linearGradient id="paint18_linear_40000653_19214" x1="45.8809" y1="69.7835" x2="61.614" y2="69.7835" gradientUnits="userSpaceOnUse">
<stop offset="0.04" stop-color="#D8AF42"/>
<stop offset="0.15" stop-color="#D7B04C"/>
<stop offset="0.22" stop-color="#D1AB48"/>
<stop offset="0.33" stop-color="#D4B24F"/>
<stop offset="0.44" stop-color="#EDD772"/>
<stop offset="0.52" stop-color="#F0DC78"/>
<stop offset="0.65" stop-color="#F5ED86"/>
<stop offset="0.77" stop-color="#F3E880"/>
<stop offset="0.89" stop-color="#EBCF66"/>
<stop offset="1" stop-color="#B99331"/>
</linearGradient>
<linearGradient id="paint19_linear_40000653_19214" x1="54.7695" y1="106.692" x2="75.3165" y2="106.692" gradientUnits="userSpaceOnUse">
<stop offset="0.04" stop-color="#D8AF42"/>
<stop offset="0.15" stop-color="#D7B04C"/>
<stop offset="0.22" stop-color="#D1AB48"/>
<stop offset="0.33" stop-color="#D4B24F"/>
<stop offset="0.44" stop-color="#EDD772"/>
<stop offset="0.52" stop-color="#F0DC78"/>
<stop offset="0.65" stop-color="#F5ED86"/>
<stop offset="0.77" stop-color="#F3E880"/>
<stop offset="0.89" stop-color="#EBCF66"/>
<stop offset="1" stop-color="#B99331"/>
</linearGradient>
<linearGradient id="paint20_linear_40000653_19214" x1="42.7812" y1="59.348" x2="60.8488" y2="59.348" gradientUnits="userSpaceOnUse">
<stop offset="0.04" stop-color="#D8AF42"/>
<stop offset="0.15" stop-color="#D7B04C"/>
<stop offset="0.22" stop-color="#D1AB48"/>
<stop offset="0.33" stop-color="#D4B24F"/>
<stop offset="0.44" stop-color="#EDD772"/>
<stop offset="0.52" stop-color="#F0DC78"/>
<stop offset="0.65" stop-color="#F5ED86"/>
<stop offset="0.77" stop-color="#F3E880"/>
<stop offset="0.89" stop-color="#EBCF66"/>
<stop offset="1" stop-color="#B99331"/>
</linearGradient>
<linearGradient id="paint21_linear_40000653_19214" x1="48.4775" y1="118.413" x2="70.6682" y2="118.413" gradientUnits="userSpaceOnUse">
<stop offset="0.04" stop-color="#D8AF42"/>
<stop offset="0.15" stop-color="#D7B04C"/>
<stop offset="0.22" stop-color="#D1AB48"/>
<stop offset="0.33" stop-color="#D4B24F"/>
<stop offset="0.44" stop-color="#EDD772"/>
<stop offset="0.52" stop-color="#F0DC78"/>
<stop offset="0.65" stop-color="#F5ED86"/>
<stop offset="0.77" stop-color="#F3E880"/>
<stop offset="0.89" stop-color="#EBCF66"/>
<stop offset="1" stop-color="#B99331"/>
</linearGradient>
<linearGradient id="paint22_linear_40000653_19214" x1="62.3965" y1="81.5389" x2="78.8893" y2="81.5389" gradientUnits="userSpaceOnUse">
<stop offset="0.04" stop-color="#D8AF42"/>
<stop offset="0.15" stop-color="#D7B04C"/>
<stop offset="0.22" stop-color="#D1AB48"/>
<stop offset="0.33" stop-color="#D4B24F"/>
<stop offset="0.44" stop-color="#EDD772"/>
<stop offset="0.52" stop-color="#F0DC78"/>
<stop offset="0.65" stop-color="#F5ED86"/>
<stop offset="0.77" stop-color="#F3E880"/>
<stop offset="0.89" stop-color="#EBCF66"/>
<stop offset="1" stop-color="#B99331"/>
</linearGradient>
<linearGradient id="paint23_linear_40000653_19214" x1="59.9004" y1="94.4329" x2="78.1889" y2="94.4329" gradientUnits="userSpaceOnUse">
<stop offset="0.04" stop-color="#D8AF42"/>
<stop offset="0.15" stop-color="#D7B04C"/>
<stop offset="0.22" stop-color="#D1AB48"/>
<stop offset="0.33" stop-color="#D4B24F"/>
<stop offset="0.44" stop-color="#EDD772"/>
<stop offset="0.52" stop-color="#F0DC78"/>
<stop offset="0.65" stop-color="#F5ED86"/>
<stop offset="0.77" stop-color="#F3E880"/>
<stop offset="0.89" stop-color="#EBCF66"/>
<stop offset="1" stop-color="#B99331"/>
</linearGradient>
<linearGradient id="paint24_linear_40000653_19214" x1="61.1998" y1="43.5593" x2="68.8039" y2="43.5593" gradientUnits="userSpaceOnUse">
<stop offset="0.04" stop-color="#D8AF42"/>
<stop offset="0.15" stop-color="#D7B04C"/>
<stop offset="0.22" stop-color="#D1AB48"/>
<stop offset="0.33" stop-color="#D4B24F"/>
<stop offset="0.44" stop-color="#EDD772"/>
<stop offset="0.52" stop-color="#F0DC78"/>
<stop offset="0.65" stop-color="#F5ED86"/>
<stop offset="0.77" stop-color="#F3E880"/>
<stop offset="0.89" stop-color="#EBCF66"/>
<stop offset="1" stop-color="#B99331"/>
</linearGradient>
<linearGradient id="paint25_linear_40000653_19214" x1="0.00690655" y1="144.955" x2="27.8955" y2="144.955" gradientUnits="userSpaceOnUse">
<stop offset="0.04" stop-color="#D8AF42"/>
<stop offset="0.15" stop-color="#D7B04C"/>
<stop offset="0.22" stop-color="#D1AB48"/>
<stop offset="0.33" stop-color="#D4B24F"/>
<stop offset="0.44" stop-color="#EDD772"/>
<stop offset="0.52" stop-color="#F0DC78"/>
<stop offset="0.65" stop-color="#F5ED86"/>
<stop offset="0.77" stop-color="#F3E880"/>
<stop offset="0.89" stop-color="#EBCF66"/>
<stop offset="1" stop-color="#B99331"/>
</linearGradient>
</defs>
</svg>
