<svg width="24" height="24" viewBox="0 0 24 24" fill="none" xmlns="http://www.w3.org/2000/svg">
<path d="M11.7339 4.91016H4.71016C4.33741 4.91016 4.03516 5.21241 4.03516 5.58516C4.03516 5.95791 4.33741 6.26016 4.71016 6.26016H11.7332C12.1059 6.26016 12.4082 5.95791 12.4082 5.58516C12.4082 5.21241 12.1067 4.91016 11.7339 4.91016Z" fill="#D50040"/>
<path d="M8.11291 7.86328H4.71016C4.33741 7.86328 4.03516 8.16553 4.03516 8.53828C4.03516 8.91103 4.33741 9.21328 4.71016 9.21328H8.11291C8.48566 9.21328 8.78791 8.91103 8.78791 8.53828C8.78791 8.16553 8.48566 7.86328 8.11291 7.86328Z" fill="#D50040"/>
<path d="M18.8856 15.4217C19.3322 15.4217 19.6941 15.0597 19.6941 14.6132C19.6941 14.1667 19.3322 13.8047 18.8856 13.8047C18.4391 13.8047 18.0771 14.1667 18.0771 14.6132C18.0771 15.0597 18.4391 15.4217 18.8856 15.4217Z" fill="#2F2F2F"/>
<path d="M14.9688 14.6132C14.9688 15.0594 15.3302 15.4217 15.7765 15.4217C16.2227 15.4217 16.585 15.0602 16.585 14.6132C16.585 14.1662 16.2235 13.8047 15.7765 13.8047C15.3302 13.8047 14.9688 14.1669 14.9688 14.6132Z" fill="#2F2F2F"/>
<path d="M12.6669 15.4217C13.1134 15.4217 13.4754 15.0597 13.4754 14.6132C13.4754 14.1667 13.1134 13.8047 12.6669 13.8047C12.2204 13.8047 11.8584 14.1667 11.8584 14.6132C11.8584 15.0597 12.2204 15.4217 12.6669 15.4217Z" fill="#2F2F2F"/>
<path d="M20.6107 8.70703H17.5657C17.1929 8.70703 16.8907 9.00928 16.8907 9.38203C16.8907 9.75478 17.1929 10.057 17.5657 10.057H20.6114C21.2812 10.057 21.8257 10.6023 21.8257 11.272V17.9545C21.8257 18.6243 21.2804 19.1688 20.6114 19.1688H18.2632C18.0802 19.1688 17.9054 19.2438 17.7787 19.3743C17.6519 19.5048 17.5829 19.6825 17.5889 19.8655L17.6489 21.4938L14.7307 19.3038C14.6144 19.216 14.4719 19.168 14.3257 19.168H10.9507C10.2772 19.168 9.72891 18.6228 9.72891 17.9538V16.0428C9.72891 15.67 9.42666 15.3678 9.05391 15.3678C8.68116 15.3678 8.37891 15.67 8.37891 16.0428V17.956C8.37891 19.3705 9.53316 20.521 10.9514 20.521H14.1014L16.8337 22.5708C17.0744 22.756 17.3602 22.8505 17.6482 22.8505C17.8589 22.8505 18.0704 22.8003 18.2677 22.6975C18.7349 22.4553 19.0124 21.9783 18.9914 21.4585L18.9614 20.521H20.6122C22.0267 20.521 23.1772 19.3705 23.1772 17.956V11.2735C23.1757 9.85903 22.0252 8.70703 20.6107 8.70703Z" fill="#2F2F2F"/>
<path d="M13.0517 12.9656C14.4669 12.9656 15.6189 11.8136 15.6189 10.3976V3.71959C15.6189 2.30434 14.4669 1.15234 13.0517 1.15234H3.39245C1.9772 1.15234 0.825195 2.30434 0.825195 3.71959V10.3976C0.825195 11.8136 1.9772 12.9656 3.3932 12.9656H5.0372L5.0072 13.9038C4.99145 14.4266 5.2697 14.9013 5.7332 15.1421C5.9312 15.2448 6.1442 15.2951 6.3557 15.2951C6.6407 15.2951 6.92344 15.2036 7.16344 15.0236L9.90169 12.9656H13.0517ZM9.27019 11.7506L6.3557 13.9473L6.4082 12.3123C6.4142 12.1293 6.34595 11.9523 6.21845 11.8211C6.09095 11.6898 5.91695 11.6156 5.73395 11.6156H3.39245C2.72045 11.6156 2.1752 11.0696 2.1752 10.3983V3.71959C2.1752 3.04834 2.7212 2.50309 3.39245 2.50309H13.0517C13.7229 2.50309 14.2682 3.04909 14.2682 3.71959V10.3976C14.2682 11.0696 13.7222 11.6148 13.0517 11.6148H9.67595C9.5297 11.6148 9.38794 11.6628 9.27019 11.7506Z" fill="#2F2F2F"/>
</svg>
