<svg fill="none" height="512" viewBox="0 0 24 24" width="512" xmlns="http://www.w3.org/2000/svg"><path clip-rule="evenodd" d="m12 .25c-2.92842 0-5.34555 2.18916-5.70413 5.02023-1.36549.05655-2.40103.21821-3.26637.69595-1.10527.61019-1.97802 1.56661-2.485077 2.7205-.015616.03553-.030884.07126-.045801.10716-.305128.7344-.386449 1.53666-.361628 2.50126.024431.9493.15545 2.1284.32295 3.6359l.007398.0666c.13686 1.2318.244384 2.1995.392317 2.976.150931.7923.353371 1.4427.709631 2.0255.58806.9619 1.44595 1.7298 2.46697 2.208.61855.2897 1.28733.4191 2.0914.4816.78811.0613 1.76179.0613 3.00111.0613h5.74243c1.2393 0 2.213 0 3.0011-.0613.8041-.0625 1.4729-.1919 2.0914-.4816 1.0211-.4782 1.879-1.2461 2.467-2.208.3563-.5828.5587-1.2332.7096-2.0255.148-.7765.2555-1.7441.3923-2.9758l.0075-.0667c.1675-1.5074.2985-2.6867.3229-3.636.0248-.9646-.0565-1.76686-.3616-2.50126-.0394-.09483-.0813-.18838-.1255-.28059-.5162-1.07625-1.356-1.96772-2.4054-2.54707-.8688-.47963-1.9009-.63154-3.265-.68507-.3538-2.83634-2.7733-5.03111-5.7055-5.03111zm-3.64653 4.99722c-.18396-.00097-.36289-.00191-.53659-.0023.35629-1.987 2.09361-3.49492 4.18312-3.49492 2.0921 0 3.8312 1.5117 4.1845 3.50239-.414-.00239-.8596-.00239-1.3392-.00239h-5.68496c-.27858 0-.54772-.00142-.80687-.00278zm-1.33922 1.50264c.40003-.00759.82565-.00532 1.30503-.00275.26267.0014.54148.00289.84106.00289h5.67936c.8244 0 1.5298.00003 2.1463.01157 1.7358.03249 2.613.16086 3.2595.51778.6175.34089 1.1368.82798 1.5154 1.41378l-3.3415 3.34147c-1.6817 1.6817-2.8907 2.8884-3.9335 3.6841-1.0255.7824-1.8016 1.0963-2.6072 1.0963s-1.5818-.3139-2.60728-1.0963c-1.04281-.7956-2.25183-2.0024-3.93349-3.6841l-3.19144-3.19142c.38446-.65278.93851-1.19424 1.60798-1.56383.64706-.35723 1.53765-.49677 3.25978-.52949zm15.31585 3.49544c.0326.2862.0436.617.0334 1.0112-.0226.878-.1459 1.9938-.3182 3.5441-.1411 1.2699-.2427 2.1798-.3785 2.8923-.134.7035-.2917 1.157-.5159 1.5238-.4346.711-1.0687 1.2786-1.8234 1.632-.3893.1824-.8575.289-1.5714.3445-.7232.0563-1.6388.0568-2.9164.0568h-5.67936c-1.27768 0-2.1932-.0005-2.91641-.0568-.71392-.0555-1.1821-.1621-1.57142-.3445-.75466-.3534-1.38876-.921-1.82341-1.632-.22423-.3668-.38194-.8203-.51594-1.5238-.13575-.7125-.23737-1.6224-.37847-2.8923-.17225-1.5503-.2956-2.6661-.31819-3.5441-.00762-.2961-.00334-.5564.01308-.7889l2.66826 2.6683c1.63227 1.6322 2.91145 2.9114 4.04371 3.7753 1.15893.8843 2.25165 1.4038 3.51715 1.4038 1.2654 0 2.3582-.5195 3.5171-1.4038 1.1322-.8639 2.4114-2.1431 4.0437-3.7753z" fill="#000" fill-rule="evenodd"/></svg>