<svg fill="none" height="24" viewBox="0 0 24 24" width="24" xmlns="http://www.w3.org/2000/svg"><g clip-rule="evenodd" fill="rgb(0,0,0)" fill-rule="evenodd"><path d="m13.001 15.5411c-.414 0-.75-.336-.75-.75v-12.041c0-.414.336-.75.75-.75s.75.336.75.75v12.041c0 .414-.336.75-.75.75z"/><path d="m13.001 15.5411c-.199 0-.391-.079-.531-.221l-2.91595-2.927c-.292-.294-.29101-.769.002-1.061.294-.292.76795-.292 1.05995.002l2.385 2.395 2.385-2.395c.292-.294.766-.294 1.06-.002.293.292.294.767.002 1.061l-2.916 2.927c-.14.142-.332.221-.531.221z"/><path d="m18.5752 20.4766h-11.13996c-2.445 0-4.435-1.989-4.435-4.435v-4.885c0-2.44 1.985-4.424 4.426-4.424h.941c.414 0 .75.336.75.75s-.336.75-.75.75h-.941c-1.614 0-2.926 1.311-2.926 2.924v4.885c0 1.619 1.316 2.935 2.935 2.935h11.13996c1.612 0 2.925-1.313 2.925-2.925v-4.884c0-1.619-1.317-2.935-2.934-2.935h-.932c-.414 0-.75-.336-.75-.75s.336-.75.75-.75h.932c2.445 0 4.434 1.99 4.434 4.435v4.884c0 2.44-1.986 4.425-4.425 4.425z"/></g></svg>