<svg width="24" height="24" viewBox="0 0 24 24" fill="none" xmlns="http://www.w3.org/2000/svg">
<path d="M17.1983 3.86244C16.2552 3.09022 15.1524 2.53693 13.9696 2.24248C12.7868 1.94804 11.5533 1.91976 10.3583 2.15971C8.82166 2.47474 7.40799 3.22485 6.28566 4.32066C5.16334 5.41648 4.37966 6.81181 4.02799 8.34046C3.67631 9.8691 3.77147 11.4666 4.30211 12.9427C4.83276 14.4188 5.77653 15.7112 7.021 16.6661C8.44184 17.706 9.65159 19.0071 10.5855 20.4997L11.2219 21.5579C11.3027 21.6923 11.417 21.8035 11.5535 21.8807C11.69 21.958 11.8442 21.9985 12.001 21.9985C12.1578 21.9985 12.312 21.958 12.4485 21.8807C12.5851 21.8035 12.6993 21.6923 12.7801 21.5579L13.3901 20.5415C14.2034 19.1119 15.3123 17.8722 16.6428 16.9052C17.6861 16.1874 18.5483 15.237 19.1614 14.1289C19.7745 13.0209 20.1217 11.7855 20.1757 10.5203C20.2296 9.25512 19.9888 7.99468 19.4723 6.83847C18.9557 5.68225 18.1776 4.66189 17.1992 3.85789L17.1983 3.86244ZM12.0001 13.8179C11.2809 13.8179 10.5778 13.6046 9.97984 13.2051C9.38184 12.8055 8.91576 12.2376 8.64053 11.5731C8.3653 10.9087 8.29329 10.1775 8.4336 9.47212C8.57391 8.76673 8.92024 8.11879 9.42879 7.61023C9.93735 7.10168 10.5853 6.75535 11.2907 6.61504C11.9961 6.47473 12.7272 6.54674 13.3917 6.82197C14.0561 7.0972 14.6241 7.56328 15.0236 8.16128C15.4232 8.75927 15.6365 9.46233 15.6365 10.1815C15.6365 11.146 15.2533 12.0709 14.5714 12.7528C13.8894 13.4348 12.9645 13.8179 12.0001 13.8179Z" fill="black"/>
</svg>
