<svg width="24" height="24" viewBox="0 0 24 24" fill="none" xmlns="http://www.w3.org/2000/svg">
<path d="M12.0025 2H11.9975C6.48375 2 2 6.485 2 12C2 14.1875 2.705 16.215 3.90375 17.8613L2.6575 21.5763L6.50125 20.3475C8.0825 21.395 9.96875 22 12.0025 22C17.5162 22 22 17.5137 22 12C22 6.48625 17.5162 2 12.0025 2Z" fill="#4CAF50"/>
<path d="M17.8207 16.1217C17.5795 16.803 16.622 17.368 15.8582 17.533C15.3357 17.6442 14.6532 17.733 12.3557 16.7805C9.41695 15.563 7.52445 12.5767 7.37695 12.383C7.2357 12.1892 6.18945 10.8017 6.18945 9.36672C6.18945 7.93172 6.9182 7.23297 7.21195 6.93297C7.4532 6.68672 7.85195 6.57422 8.23445 6.57422C8.3582 6.57422 8.46945 6.58047 8.56945 6.58547C8.8632 6.59797 9.0107 6.61547 9.20445 7.07922C9.4457 7.66047 10.0332 9.09547 10.1032 9.24297C10.1745 9.39047 10.2457 9.59047 10.1457 9.78422C10.052 9.98422 9.96945 10.073 9.82195 10.243C9.67445 10.413 9.53445 10.543 9.38695 10.7255C9.25195 10.8842 9.09945 11.0542 9.26945 11.348C9.43945 11.6355 10.027 12.5942 10.892 13.3642C12.0082 14.358 12.9132 14.6755 13.237 14.8105C13.4782 14.9105 13.7657 14.8867 13.942 14.6992C14.1657 14.458 14.442 14.058 14.7232 13.6642C14.9232 13.3817 15.1757 13.3467 15.4407 13.4467C15.7107 13.5405 17.1395 14.2467 17.4332 14.393C17.727 14.5405 17.9207 14.6105 17.992 14.7342C18.062 14.858 18.062 15.4392 17.8207 16.1217Z" fill="#FAFAFA"/>
</svg>
