<svg width="24" height="24" viewBox="0 0 24 24" fill="none" xmlns="http://www.w3.org/2000/svg">
<path d="M18.6688 20H5.33125C4.44825 19.9983 3.6019 19.6468 2.97753 19.0225C2.35315 18.3981 2.00165 17.5517 2 16.6687L2 7.33125C2.00165 6.44825 2.35315 5.6019 2.97753 4.97753C3.6019 4.35315 4.44825 4.00165 5.33125 4H18.6688C19.5517 4.00165 20.3981 4.35315 21.0225 4.97753C21.6468 5.6019 21.9983 6.44825 22 7.33125V16.6687C21.9983 17.5517 21.6468 18.3981 21.0225 19.0225C20.3981 19.6468 19.5517 19.9983 18.6688 20ZM5.33125 5.33125C4.80082 5.33125 4.29211 5.54196 3.91704 5.91704C3.54196 6.29211 3.33125 6.80082 3.33125 7.33125V16.6687C3.33125 17.1992 3.54196 17.7079 3.91704 18.083C4.29211 18.458 4.80082 18.6687 5.33125 18.6687H18.6688C19.1992 18.6687 19.7079 18.458 20.083 18.083C20.458 17.7079 20.6688 17.1992 20.6688 16.6687V7.33125C20.6688 6.80082 20.458 6.29211 20.083 5.91704C19.7079 5.54196 19.1992 5.33125 18.6688 5.33125H5.33125Z" fill="black"/>
<path d="M11.9994 11.7506C11.0268 11.7506 10.0785 11.4469 9.2869 10.8818L6.28065 8.73808C6.13313 8.6353 6.03247 8.47814 6.00082 8.30115C5.96917 8.12416 6.00913 7.94185 6.1119 7.79433C6.21467 7.6468 6.37184 7.54614 6.54883 7.51449C6.72582 7.48285 6.90813 7.5228 7.05565 7.62558L10.0619 9.76933C10.6284 10.1731 11.3068 10.3901 12.0025 10.3901C12.6982 10.3901 13.3766 10.1731 13.9432 9.76933L16.9432 7.62558C17.0876 7.53437 17.2616 7.50193 17.4292 7.53492C17.5969 7.56791 17.7456 7.66383 17.8447 7.80298C17.9439 7.94213 17.986 8.11396 17.9625 8.28321C17.939 8.45245 17.8515 8.60626 17.7182 8.71308L14.7119 10.8568C13.9233 11.4308 12.9747 11.7433 11.9994 11.7506Z" fill="black"/>
</svg>
