<svg width="32" height="32" viewBox="0 0 32 32" fill="none" xmlns="http://www.w3.org/2000/svg">
<g clip-path="url(#clip0_40000690_4012)">
<path d="M15.9987 7.25395C18.8468 7.25395 19.1842 7.26482 20.309 7.31611C21.4712 7.36916 22.6691 7.63441 23.516 8.48124C24.3709 9.33616 24.628 10.5223 24.6812 11.6884C24.7326 12.8132 24.7434 13.1505 24.7434 15.9987C24.7434 18.8468 24.7325 19.1842 24.6812 20.3089C24.6285 21.4652 24.3579 22.6741 23.5161 23.5159C22.6607 24.3713 21.4761 24.6279 20.3089 24.6812C19.1843 24.7326 18.847 24.7434 15.9987 24.7434C13.1503 24.7434 12.813 24.7325 11.6884 24.6812C10.541 24.6289 9.31632 24.351 8.48136 23.5161C7.63095 22.6657 7.36899 21.4685 7.31607 20.3089C7.26474 19.1841 7.25391 18.8468 7.25391 15.9987C7.25391 13.1505 7.26478 12.8132 7.31607 11.6884C7.36866 10.5362 7.64261 9.31999 8.4812 8.48136C9.33449 7.62803 10.5245 7.3692 11.6884 7.31607C12.8132 7.26482 13.1506 7.25395 15.9987 7.25395ZM15.9987 5.33203C13.1018 5.33203 12.7386 5.34428 11.6008 5.3962C9.95132 5.47149 8.31461 5.93007 7.12232 7.12228C5.92557 8.31903 5.47141 9.95257 5.3962 11.6009C5.34428 12.7386 5.33203 13.1018 5.33203 15.9987C5.33203 18.8956 5.34428 19.2588 5.3962 20.3966C5.47136 22.0434 5.93245 23.6852 7.12228 24.875C8.31757 26.0704 9.95445 26.526 11.6008 26.6012C12.7386 26.6531 13.1018 26.6654 15.9987 26.6654C18.8956 26.6654 19.2588 26.6531 20.3966 26.6012C22.0443 26.526 23.6841 26.066 24.8751 24.8751C26.0723 23.6779 26.526 22.0452 26.6012 20.3966C26.6531 19.2588 26.6654 18.8956 26.6654 15.9987C26.6654 13.1018 26.6531 12.7386 26.6012 11.6008C26.526 9.95224 26.0665 8.31378 24.8751 7.12236C23.6815 5.92874 22.04 5.4712 20.3965 5.3962C19.2588 5.34428 18.8956 5.33203 15.9987 5.33203Z" fill="white"/>
<path d="M15.999 10.5195C12.9739 10.5195 10.5215 12.9719 10.5215 15.997C10.5215 19.0222 12.9739 21.4745 15.999 21.4745C19.0241 21.4745 21.4765 19.0222 21.4765 15.997C21.4765 12.9719 19.0241 10.5195 15.999 10.5195ZM15.999 19.5526C14.0353 19.5526 12.4434 17.9607 12.4434 15.997C12.4434 14.0334 14.0353 12.4415 15.999 12.4415C17.9627 12.4415 19.5545 14.0334 19.5545 15.997C19.5545 17.9607 17.9627 19.5526 15.999 19.5526Z" fill="white"/>
<path d="M21.6941 11.5834C22.401 11.5834 22.9741 11.0104 22.9741 10.3034C22.9741 9.59651 22.401 9.02344 21.6941 9.02344C20.9871 9.02344 20.4141 9.59651 20.4141 10.3034C20.4141 11.0104 20.9871 11.5834 21.6941 11.5834Z" fill="white"/>
</g>
<defs>
<clipPath id="clip0_40000690_4012">
<rect width="21.3333" height="21.3333" fill="white" transform="translate(5.33203 5.33203)"/>
</clipPath>
</defs>
</svg>
