<svg width="447" height="382" viewBox="0 0 447 382" fill="none" xmlns="http://www.w3.org/2000/svg">
<g clip-path="url(#clip0_40000573_18186)">
<path opacity="0.25" d="M138.478 309.8C136.488 309.96 134.528 310.6 132.788 311.7L76.3981 347.3C69.0281 351.95 59.2681 347.89 57.3781 339.37L1.79806 89.2802C0.658055 84.1702 2.80806 78.8802 7.19806 76.0002L64.9681 38.2002C66.2181 37.3902 67.5681 36.8202 68.9681 36.4902L73.3981 53.9102C70.9081 53.5202 68.3081 54.0502 66.1181 55.4902L22.9181 83.7502C19.3081 86.1202 17.5281 90.4902 18.4681 94.7102L68.1281 318.22C69.6881 325.25 77.7381 328.6 83.8281 324.76L124.718 298.94C127.788 297.01 131.188 295.7 134.728 295.09L138.468 309.81L138.478 309.8Z" fill="#DEDEDE"/>
<path opacity="0.25" d="M291.089 297.299L254.099 341.989C251.509 345.119 247.629 346.749 243.699 346.529L239.199 329.059C242.609 329.419 246.039 328.069 248.289 325.349L283.029 283.379C283.749 283.359 284.479 283.329 285.199 283.289L290.199 295.629C290.439 296.229 290.739 296.789 291.089 297.299Z" fill="#DEDEDE"/>
<path opacity="0.25" d="M302.911 18.4009C300.601 18.5109 298.361 19.3809 296.561 20.9509L195.361 109.361C192.111 112.201 188.271 114.221 184.151 115.301L180.391 100.691C182.211 100.211 183.941 99.3109 185.441 98.0009L292.271 4.68086C294.271 2.92086 296.741 1.89086 299.301 1.63086L302.911 18.4109V18.4009Z" fill="#DEDEDE"/>
<path opacity="0.26" d="M134.739 295.091C131.199 295.701 127.809 297.011 124.729 298.941L83.8394 324.761C77.7494 328.601 69.6994 325.251 68.1394 318.231L56.2294 264.661L54.1394 255.301L36.1694 174.391L33.8194 163.841L18.4594 94.7209C17.5194 90.5009 19.2994 86.1309 22.9094 83.7609L66.1094 55.5009C68.2994 54.0609 70.8994 53.5409 73.3894 53.9209L93.5294 133.101L96.5194 144.871L114.409 215.171L117.299 226.521L134.729 295.091H134.739Z" fill="#DEDEDE"/>
<path opacity="0.26" d="M327.728 133.79C323.718 131.03 319.468 128.63 315.048 126.62C310.918 124.74 306.638 123.21 302.248 122.04C297.628 120.79 292.888 119.96 288.088 119.54C284.348 119.22 280.568 119.15 276.768 119.35C273.348 119.53 269.918 119.92 266.498 120.55C263.298 121.13 260.098 121.91 256.918 122.89C254.688 123.58 252.468 124.37 250.268 125.26C229.518 133.66 214.078 149.6 205.818 168.64C203.938 172.96 202.428 177.43 201.328 182.02L199.008 173L188.988 134.1L184.148 115.31C188.268 114.23 192.098 112.21 195.348 109.38L251.318 60.4802L257.908 54.7202L296.558 20.9602C298.358 19.3902 300.598 18.5202 302.908 18.4102L319.618 96.0901L322.088 107.54L325.978 125.62L327.738 133.79H327.728Z" fill="#DEDEDE"/>
<path opacity="0.26" d="M283.03 283.379L248.29 325.349C246.04 328.079 242.61 329.419 239.2 329.059L220.59 256.779C236.55 274.189 259.42 283.919 283.03 283.369V283.379Z" fill="#DEDEDE"/>
<path opacity="0.5" d="M243.708 346.53C242.488 346.47 241.258 346.22 240.068 345.79L143.848 310.52C142.108 309.89 140.278 309.65 138.478 309.8L134.738 295.08C136.308 294.8 137.898 294.66 139.508 294.66C142.768 294.66 145.978 295.23 149.038 296.35L236.708 328.47C237.528 328.77 238.368 328.97 239.208 329.05L243.708 346.53Z" fill="#DEDEDE"/>
<path opacity="0.5" d="M239.198 329.06C238.358 328.98 237.518 328.78 236.698 328.48L149.038 296.36C145.978 295.24 142.768 294.67 139.508 294.67C137.898 294.67 136.308 294.81 134.738 295.09L117.308 226.52L114.418 215.17L111.408 203.37L97.9684 150.51L96.5284 144.87L93.5384 133.1L73.3984 53.9199C74.8684 54.1399 76.2884 54.6799 77.5684 55.5399L102.128 71.8799L115.588 80.8299L161.818 111.58C166.368 114.61 171.678 116.21 177.148 116.21C179.528 116.21 181.888 115.91 184.158 115.31L188.998 134.1L199.018 173L201.338 182.02C201.238 182.41 201.148 182.79 201.068 183.17C200.258 186.7 199.688 190.3 199.358 193.93C198.208 206.54 199.968 219.59 205.048 232.13C208.838 241.49 214.158 249.75 220.598 256.78L239.208 329.06H239.198Z" fill="#DEDEDE"/>
<path opacity="0.5" d="M184.15 115.301C181.88 115.891 179.53 116.201 177.14 116.201C171.67 116.201 166.36 114.601 161.81 111.571L77.5705 55.5205C76.2905 54.6605 74.8705 54.1205 73.4105 53.9005L68.9805 36.4805C72.3105 35.6805 75.9005 36.2805 78.8605 38.2405L170.18 98.9905C173.26 101.041 176.98 101.581 180.4 100.681L184.16 115.291L184.15 115.301Z" fill="#DEDEDE"/>
<path opacity="0.5" d="M428.569 254.359L356.749 233.119C358.689 228.479 360.219 223.669 361.299 218.729L412.029 233.729C419.599 235.959 426.799 229.279 425.139 221.569L413.619 168.059L411.129 156.509L405.859 132.069L403.359 120.449L388.749 52.6191C387.979 49.0591 385.419 46.1691 381.989 44.9791L306.829 18.9491C305.549 18.5091 304.229 18.3291 302.929 18.3891L299.309 1.60906C301.099 1.42906 302.929 1.63906 304.699 2.24906L393.789 33.1091C397.949 34.5491 401.049 38.0491 401.979 42.3491L444.469 239.619C446.479 248.969 437.749 257.059 428.579 254.349L428.569 254.359Z" fill="#DEDEDE"/>
<path d="M69.7096 350.769C67.8796 350.769 66.0296 350.409 64.2696 349.669C59.9696 347.879 56.9296 344.249 55.9196 339.709L0.329588 89.5995C-0.940412 83.9095 1.48959 77.9395 6.37959 74.7395L64.1496 36.9395C65.5396 36.0295 67.0496 35.3895 68.6296 35.0195L70.0596 34.6895L75.4096 55.7295L73.1696 55.3795C70.9796 55.0395 68.7696 55.5295 66.9396 56.7295L23.7296 84.9995C20.6496 87.0195 19.1196 90.7795 19.9196 94.3795L69.5796 317.889C70.2096 320.759 72.1296 323.049 74.8496 324.179C77.5596 325.309 80.5396 325.059 83.0096 323.489L123.91 297.669C127.16 295.619 130.71 294.259 134.46 293.599L135.83 293.359L140.35 311.139L138.58 311.289C136.81 311.429 135.08 312.009 133.56 312.969L77.1696 348.569C74.8596 350.029 72.2796 350.759 69.6796 350.759L69.7096 350.769ZM67.9096 38.3795C67.1796 38.6595 66.4696 39.0195 65.7996 39.4595L8.01959 77.2595C4.17959 79.7795 2.26959 84.4795 3.25959 88.9495L58.8396 339.049C59.6396 342.619 62.0296 345.479 65.4096 346.889C68.7896 348.299 72.4996 347.979 75.5996 346.029L131.98 310.429C133.4 309.539 134.97 308.899 136.61 308.549L133.63 296.829C130.77 297.489 128.04 298.609 125.52 300.209L84.6296 326.029C81.3096 328.119 77.3296 328.459 73.7096 326.949C70.0896 325.439 67.5196 322.379 66.6596 318.549L16.9996 95.0495C15.9296 90.2395 17.9796 85.1995 22.0996 82.5095L65.2996 54.2395C67.1396 53.0295 69.2696 52.3595 71.4396 52.2995L67.9096 38.3895V38.3695V38.3795Z" fill="#DEDEDE"/>
<path d="M244.401 348.05C244.141 348.05 243.881 348.05 243.621 348.03L242.531 347.97L237.211 327.34L239.361 327.56C242.331 327.88 245.231 326.68 247.131 324.39L282.311 281.9L282.991 281.88C283.711 281.86 284.421 281.83 285.131 281.79L286.201 281.74L291.601 295.06C291.801 295.56 292.051 296.02 292.341 296.45L292.981 297.39L292.261 298.26L255.271 342.95C252.591 346.18 248.591 348.05 244.421 348.05H244.401ZM241.151 330.59L244.881 345.04C247.991 344.9 250.951 343.46 252.961 341.04L289.271 297.16C289.111 296.84 288.961 296.52 288.821 296.18L284.221 284.83C284.061 284.83 283.911 284.84 283.761 284.85L249.451 326.3C247.361 328.83 244.361 330.35 241.151 330.58V330.59Z" fill="#DEDEDE"/>
<path d="M183.08 117.14L178.57 99.62L180.01 99.24C181.66 98.8 183.15 98 184.45 96.87L291.28 3.55C293.5 1.61 296.21 0.43 299.14 0.14L300.48 0L304.74 19.82L302.98 19.91C300.98 20 299.05 20.78 297.55 22.09L196.35 110.5C192.97 113.45 188.89 115.62 184.53 116.76L183.07 117.14H183.08ZM182.19 101.68L185.22 113.42C188.58 112.32 191.73 110.55 194.37 108.23L295.58 19.82C297.15 18.45 299.07 17.52 301.1 17.11L298.13 3.32C296.33 3.72 294.66 4.56 293.25 5.79L186.41 99.12C185.14 100.23 183.72 101.09 182.18 101.67L182.19 101.68Z" fill="#DEDEDE"/>
<path d="M245.669 348.14L243.629 348.03C242.239 347.96 240.869 347.68 239.549 347.2L143.319 311.94C141.799 311.38 140.209 311.17 138.589 311.3L137.329 311.4L132.879 293.9L134.469 293.62C136.119 293.32 137.809 293.18 139.509 293.18C142.939 293.18 146.319 293.78 149.559 294.96L237.219 327.08C237.909 327.33 238.629 327.5 239.349 327.57L240.399 327.67L245.669 348.14ZM139.639 308.26C141.249 308.27 142.829 308.56 144.359 309.12L240.579 344.38C240.949 344.52 241.319 344.63 241.699 344.72L238.009 330.39C237.399 330.27 236.779 330.1 236.189 329.89L148.529 297.77C145.629 296.71 142.599 296.18 139.519 296.18C138.539 296.18 137.569 296.23 136.609 296.34L139.649 308.27L139.639 308.26Z" fill="#DEDEDE"/>
<path d="M177.15 117.7C171.38 117.7 165.79 116.01 160.99 112.82L76.7502 56.7696C75.6602 56.0496 74.4702 55.5796 73.1902 55.3796L72.2102 55.2296L67.1602 35.3696L68.6402 35.0196C72.4202 34.1196 76.4501 34.8296 79.7001 36.9896L171.01 97.7396C173.66 99.4996 176.94 100.04 180.01 99.2196L181.47 98.8296L185.99 116.35L184.54 116.73C182.13 117.36 179.65 117.68 177.16 117.68L177.15 117.7ZM74.6301 52.6196C75.9801 52.9496 77.2402 53.4996 78.4002 54.2796L162.64 110.33C166.95 113.19 171.96 114.71 177.14 114.71C178.88 114.71 180.61 114.54 182.31 114.2L179.29 102.46C175.84 102.99 172.28 102.22 169.34 100.26L78.0201 39.5096C75.9001 38.0996 73.3402 37.4696 70.8302 37.7096L74.6301 52.6296V52.6196Z" fill="#DEDEDE"/>
<path d="M432.189 256.39C430.839 256.39 429.489 256.2 428.139 255.8L354.709 234.09L355.359 232.54C357.279 227.96 358.779 223.2 359.829 218.41L360.169 216.84L412.439 232.3C415.479 233.2 418.689 232.45 421.009 230.29C423.329 228.13 424.329 224.99 423.659 221.9L387.259 52.9501C386.599 49.9301 384.379 47.4201 381.469 46.4101L306.309 20.3801C305.229 20.0001 304.109 19.8501 302.979 19.9001L301.709 19.9601L297.469 0.300065L299.139 0.130065C301.189 -0.0699352 303.219 0.160065 305.159 0.840065L394.249 31.7001C398.869 33.3001 402.389 37.2601 403.419 42.0401L445.909 239.32C446.969 244.23 445.399 249.21 441.709 252.62C439.049 255.08 435.659 256.39 432.169 256.39H432.189ZM428.989 252.93C432.779 254.05 436.779 253.12 439.679 250.42C442.579 247.73 443.819 243.82 442.989 239.95L400.489 42.6701C399.669 38.9101 396.909 35.7801 393.269 34.5301L304.189 3.68006C303.199 3.33006 302.179 3.13006 301.139 3.08006L304.119 16.9201C305.199 16.9801 306.269 17.1901 307.299 17.5501L382.459 43.5801C386.359 44.9301 389.319 48.2801 390.199 52.3201L404.559 118.97L404.819 120.16L426.599 221.27C427.489 225.42 426.169 229.62 423.059 232.5C419.949 235.38 415.659 236.39 411.599 235.19L362.399 220.64C361.469 224.54 360.249 228.41 358.759 232.17L428.999 252.94L428.989 252.93Z" fill="#DEDEDE"/>
<path opacity="0.5" d="M412.018 233.741L361.288 218.741C364.688 203.151 363.598 186.421 357.148 170.511C352.078 158.001 344.288 147.421 334.718 139.191L328.378 136.831L327.728 133.801L325.968 125.631L322.078 107.551L319.608 96.1009L302.898 18.4209C304.198 18.3509 305.518 18.5309 306.798 18.9809L381.958 45.0109C385.388 46.2009 387.948 49.0909 388.718 52.6509L403.328 120.481L405.828 132.101L411.098 156.541L413.588 168.091L425.108 221.601C426.768 229.311 419.568 235.991 411.998 233.761L412.018 233.741Z" fill="#DEDEDE"/>
<path d="M78.3113 327.88C76.7713 327.88 75.2113 327.57 73.7213 326.95C70.1013 325.44 67.5213 322.38 66.6713 318.55L17.0113 95.0403C15.9413 90.2303 17.9913 85.1903 22.1013 82.5003L65.3113 54.2403C67.7613 52.6303 70.7213 51.9803 73.6413 52.4303L74.6213 52.5803L136.601 296.29L135.001 296.56C131.641 297.14 128.451 298.37 125.531 300.21L84.6413 326.02C82.6913 327.25 80.5213 327.88 78.3113 327.88ZM71.8113 55.2803C70.0913 55.2803 68.4013 55.7803 66.9513 56.7303L23.7413 85.0003C20.6613 87.0203 19.1313 90.7803 19.9313 94.3803L55.6113 254.95L69.6013 317.89C70.2413 320.75 72.1613 323.05 74.8713 324.17C77.5813 325.3 80.5613 325.05 83.0313 323.48L123.931 297.67C126.711 295.91 129.721 294.66 132.891 293.92L112.961 215.53L95.0813 145.22L92.0913 133.45L72.2113 55.2803C72.0813 55.2803 71.9413 55.2803 71.8113 55.2803Z" fill="#DEDEDE"/>
<path d="M201.378 188.2L182.328 114.22L183.768 113.84C187.678 112.82 191.338 110.87 194.368 108.23L256.938 53.5701L295.578 19.8201C297.588 18.0601 300.168 17.0201 302.838 16.8901L304.108 16.8301L304.368 18.0701L329.988 137.16L326.878 135.02C322.958 132.32 318.778 129.95 314.438 127.98C310.378 126.13 306.158 124.62 301.878 123.48C297.358 122.26 292.678 121.43 287.978 121.03C284.308 120.71 280.568 120.65 276.878 120.84C273.528 121.01 270.138 121.41 266.788 122.02C263.618 122.59 260.448 123.36 257.388 124.32C255.198 125 252.988 125.78 250.858 126.65C231.168 134.62 215.678 149.74 207.218 169.23C205.368 173.46 203.888 177.87 202.808 182.36L201.398 188.2H201.378ZM185.968 116.34L201.398 176.22C202.278 173.44 203.298 170.71 204.458 168.04C213.228 147.83 229.298 132.14 249.718 123.87C251.938 122.98 254.218 122.16 256.488 121.46C259.668 120.48 262.938 119.68 266.238 119.08C269.708 118.44 273.228 118.03 276.708 117.86C280.548 117.66 284.428 117.72 288.228 118.05C293.108 118.47 297.958 119.33 302.648 120.59C307.088 121.78 311.478 123.35 315.668 125.26C319.048 126.79 322.338 128.56 325.488 130.53L301.718 20.0501C300.178 20.3501 298.728 21.0501 297.538 22.0801L252.298 61.6001L196.328 110.5C193.318 113.12 189.758 115.12 185.948 116.34H185.968Z" fill="#DEDEDE"/>
<path d="M240.301 330.62C239.881 330.62 239.461 330.6 239.041 330.55L238.011 330.44L217.641 251.35L221.691 255.78C237.401 272.92 259.761 282.43 282.991 281.89L286.271 281.82L249.431 326.33C247.161 329.08 243.811 330.64 240.291 330.64L240.301 330.62ZM223.441 261.83L240.381 327.62C242.981 327.6 245.451 326.44 247.131 324.39L279.821 284.89C258.761 284.57 238.631 276.31 223.431 261.83H223.441Z" fill="#DEDEDE"/>
<path d="M241.191 330.75L239.061 330.55C238.101 330.46 237.131 330.23 236.181 329.89L148.521 297.77C145.611 296.71 142.581 296.17 139.501 296.17C137.981 296.17 136.471 296.31 134.991 296.57L133.611 296.81L71.3906 52.0703L73.6306 52.4103C75.3506 52.6803 76.9506 53.3003 78.4006 54.2703L116.421 79.5703L162.651 110.32C166.951 113.18 171.971 114.7 177.151 114.7C179.391 114.7 181.621 114.42 183.771 113.85L185.221 113.47L202.871 182L202.781 182.37C202.691 182.75 202.601 183.11 202.521 183.48C201.721 186.97 201.161 190.53 200.841 194.06C199.661 206.9 201.541 219.52 206.421 231.57C210.061 240.55 215.191 248.69 221.681 255.77L221.941 256.04L222.041 256.41L241.191 330.76V330.75ZM139.511 293.16C142.941 293.16 146.321 293.76 149.561 294.94L237.141 327.03L219.241 257.51C212.631 250.24 207.391 241.89 203.661 232.69C198.601 220.2 196.651 207.1 197.871 193.79C198.211 190.12 198.791 186.44 199.611 182.83C199.671 182.56 199.731 182.29 199.801 182.02L183.081 117.09C181.141 117.49 179.161 117.69 177.161 117.69C171.391 117.69 165.801 116 161.001 112.81L101.321 73.1103L76.7606 56.7703C76.3606 56.5003 75.9506 56.2803 75.5206 56.0803L94.7206 131.59L95.0106 132.72L135.871 293.39C137.081 293.24 138.301 293.16 139.521 293.16H139.511Z" fill="#DEDEDE"/>
<path d="M415.008 235.671C413.868 235.671 412.728 235.511 411.598 235.181L359.528 219.791L359.828 218.421C363.288 202.551 361.888 186.181 355.758 171.081C350.928 159.151 343.588 148.871 333.948 140.501L327.088 137.941L318.158 96.4106L301.078 17.0006L302.838 16.9106C304.358 16.8306 305.868 17.0506 307.308 17.5506L382.468 43.5806C386.368 44.9306 389.328 48.2806 390.208 52.3206L404.828 120.151L426.608 221.261C427.498 225.411 426.178 229.611 423.068 232.491C420.818 234.571 417.958 235.671 415.018 235.671H415.008ZM412.448 232.301C415.488 233.201 418.688 232.451 421.018 230.291C423.348 228.131 424.328 224.991 423.668 221.891L401.888 120.781L387.278 52.9506C386.628 49.9306 384.398 47.4206 381.488 46.4106L306.328 20.3806C305.828 20.2006 305.308 20.0806 304.798 20.0006L329.688 135.711L335.508 137.881L335.708 138.061C345.818 146.771 353.508 157.511 358.548 169.961C364.718 185.191 366.278 201.661 363.048 217.701L412.458 232.311L412.448 232.301Z" fill="#DEDEDE"/>
<path opacity="0.5" d="M166.77 184.331L178.16 241.171C178.67 243.691 176.27 245.811 173.82 245.011L118.04 226.671C117.8 226.591 117.55 226.541 117.3 226.521C116.56 226.451 115.82 226.631 115.19 227.031L56.2203 264.651L54.1403 255.291L113.59 215.561C113.85 215.401 114.12 215.261 114.41 215.161C115.08 214.941 115.82 214.941 116.51 215.161L160.06 229.481C162.5 230.291 164.9 228.161 164.4 225.631L154 173.771C153.8 172.741 153.11 171.861 152.16 171.411L96.5403 144.861L96.4503 144.821C95.5103 144.371 94.4003 144.381 93.4703 144.871L36.1703 174.381L33.8203 163.831L93.2903 133.211C93.3803 133.171 93.4503 133.131 93.5303 133.101C94.4003 132.741 95.3903 132.761 96.2603 133.171L119.02 144.031C121.68 145.301 124.56 142.771 123.66 139.981L102.25 73.4909C102.07 72.9309 102.03 72.3809 102.13 71.8809L115.59 80.8309L138.57 152.191C138.85 153.071 139.48 153.791 140.31 154.191L200.95 183.121C200.95 183.121 201.02 183.151 201.06 183.171C200.25 186.701 199.68 190.301 199.35 193.931L171.5 180.651C169.01 179.461 166.23 181.631 166.77 184.341V184.331Z" fill="#DEDEDE"/>
<path opacity="0.5" d="M276.778 119.351C273.358 119.531 269.928 119.921 266.508 120.551L251.328 60.4809L257.918 54.7109C258.478 55.1309 258.908 55.7409 259.118 56.4809L276.778 119.351Z" fill="#DEDEDE"/>
<path opacity="0.5" d="M405.852 132.079C405.502 132.099 405.132 132.049 404.752 131.939L323.442 107.649C323.002 107.509 322.532 107.489 322.092 107.539C321.502 107.609 320.942 107.829 320.462 108.189L302.822 121.509C302.612 121.669 302.422 121.849 302.262 122.029C297.642 120.779 292.902 119.949 288.102 119.529L318.372 96.6593C318.752 96.3793 319.172 96.1693 319.622 96.0693C320.182 95.9293 320.782 95.9493 321.342 96.1193L403.352 120.449L405.852 132.069V132.079Z" fill="#DEDEDE"/>
<path opacity="0.5" d="M413.611 168.069C413.031 168.189 412.401 168.159 411.771 167.919L334.721 139.189L328.381 136.829L327.731 133.799C323.721 131.039 319.471 128.639 315.051 126.629L325.971 125.629L327.021 125.529C327.521 125.479 328.031 125.549 328.501 125.729L411.111 156.529L413.601 168.079L413.611 168.069Z" fill="#DEDEDE"/>
<path opacity="0.26" d="M111.411 203.36C110.601 203.43 109.811 203.72 109.131 204.21L65.2905 235.95C62.5905 237.9 58.7805 236.44 58.0805 233.18L46.5905 179.4C46.1505 177.34 47.1605 175.25 49.0405 174.31L95.7705 150.97C96.4605 150.63 97.2205 150.46 97.9705 150.49L111.421 203.35L111.411 203.36Z" fill="#DEDEDE"/>
<path opacity="0.5" d="M138.361 214.18L113.641 203.71C112.921 203.41 112.161 203.29 111.411 203.37L97.9609 150.51C98.6109 150.53 99.2709 150.69 99.8809 150.99L136.361 169.22C137.681 169.89 138.611 171.15 138.851 172.62L144.711 209.21C145.281 212.78 141.701 215.59 138.361 214.18Z" fill="#DEDEDE"/>
<path opacity="0.5" d="M138.469 242.53L204.409 260.6C205.919 261.01 207.089 262.21 207.459 263.72L217.489 304.15C218.339 307.58 214.939 310.52 211.669 309.19L146.599 282.72C145.439 282.25 144.539 281.29 144.139 280.11L133.239 248.07C132.129 244.79 135.129 241.6 138.469 242.52V242.53Z" fill="#DEDEDE"/>
<path opacity="0.26" d="M256.928 122.889C254.698 123.579 252.478 124.369 250.278 125.259C229.528 133.659 214.088 149.599 205.828 168.639L201.348 172.109C200.658 172.639 199.848 172.949 199.008 172.999L188.988 134.099C189.888 134.039 190.758 133.689 191.478 133.089L243.348 89.2995C245.838 87.1895 249.688 88.5095 250.358 91.7095L256.928 122.899V122.889Z" fill="#DEDEDE"/>
<path opacity="0.5" d="M199.008 172.99C198.248 173.04 197.478 172.9 196.778 172.55L148.458 148.52C147.468 148.03 146.698 147.17 146.318 146.13L134.518 113.75C133.158 110.01 137.158 106.57 140.648 108.48L186.618 133.57C187.358 133.98 188.178 134.15 188.988 134.09L199.008 172.99Z" fill="#DEDEDE"/>
<path opacity="0.26" d="M332.06 36.6294L375.34 51.0594C376.86 51.5694 378.02 52.8194 378.4 54.3794L388.71 97.0394C389.57 100.599 386.18 103.709 382.71 102.559L331.38 85.4494C329.83 84.9394 328.66 83.6494 328.31 82.0494L320.46 47.1094C318.93 40.2894 325.43 34.4094 332.06 36.6194V36.6294Z" fill="#DEDEDE"/>
<path opacity="0.5" d="M358.04 375.319L346.95 379.809C342.37 381.669 337.17 379.459 335.31 374.889L304.73 299.389L332.39 288.189L362.98 363.689C364.83 368.259 362.63 373.469 358.05 375.329L358.04 375.319Z" fill="#DEDEDE"/>
<path d="M335.271 287.019L332.381 288.189L304.721 299.389L301.831 300.559C297.251 302.409 292.051 300.209 290.191 295.629L285.191 283.289C294.121 282.849 303.131 280.919 311.891 277.369C320.651 273.819 328.461 268.939 335.181 263.039L340.181 275.369C342.031 279.949 339.821 285.159 335.251 287.009L335.271 287.019Z" fill="#DEDEDE"/>
<path d="M343.59 381.97C342.21 381.97 340.83 381.7 339.52 381.14C336.95 380.06 334.96 378.04 333.92 375.45L302.77 298.55L333.21 286.23L364.37 363.11C366.53 368.45 363.95 374.55 358.62 376.71L347.52 381.2C346.26 381.71 344.93 381.97 343.6 381.97H343.59ZM306.68 300.21L336.7 374.32C337.44 376.16 338.86 377.6 340.69 378.38C342.52 379.16 344.54 379.17 346.38 378.42L357.47 373.92C361.27 372.38 363.11 368.03 361.57 364.23L331.55 290.13L306.67 300.21H306.68Z" fill="#DEDEDE"/>
<path d="M298.479 302.719C297.099 302.719 295.719 302.439 294.419 301.889C291.849 300.799 289.859 298.779 288.819 296.199L283.039 281.909L285.149 281.799C294.129 281.349 302.949 279.399 311.359 275.989C319.759 272.579 327.459 267.849 334.219 261.919L335.799 260.529L341.599 274.809C343.759 280.149 341.179 286.239 335.849 288.399L302.419 301.939C301.159 302.449 299.829 302.709 298.499 302.709L298.479 302.719ZM287.379 284.659L291.599 295.059C292.349 296.899 293.759 298.339 295.589 299.119C297.419 299.899 299.439 299.909 301.289 299.169L334.719 285.629C338.519 284.089 340.359 279.749 338.829 275.939L334.609 265.539C327.989 271.059 320.549 275.499 312.489 278.769C304.419 282.039 295.989 284.019 287.399 284.669H287.389L287.379 284.659Z" fill="#DEDEDE"/>
<path opacity="0.75" d="M357.15 170.51C340.13 128.5 292.29 108.24 250.28 125.26C208.27 142.28 188.02 190.12 205.04 232.13C218.51 265.38 251.29 285 285.21 283.29C294.14 282.85 303.15 280.92 311.91 277.37C320.67 273.82 328.48 268.94 335.2 263.04C360.74 240.66 370.62 203.75 357.15 170.51ZM318.21 245C317.93 245.24 317.64 245.48 317.35 245.72C317.06 245.96 316.77 246.2 316.47 246.42C316.2 246.64 315.92 246.85 315.64 247.06C315.59 247.1 315.54 247.14 315.49 247.17C315.23 247.37 314.97 247.56 314.7 247.75C314.68 247.77 314.65 247.79 314.62 247.81C314.35 248.01 314.08 248.2 313.81 248.38C313.77 248.42 313.73 248.44 313.69 248.47C313.41 248.67 313.12 248.87 312.82 249.06C312.82 249.06 312.8 249.08 312.79 249.08C312.56 249.24 312.32 249.39 312.07 249.55C311.95 249.63 311.83 249.71 311.71 249.78C311.44 249.94 311.19 250.11 310.91 250.27C310.9 250.28 310.88 250.3 310.85 250.3C310.6 250.45 310.35 250.6 310.1 250.75C309.7 250.99 309.29 251.22 308.89 251.44C308.64 251.59 308.38 251.72 308.12 251.86C307.97 251.95 307.81 252.02 307.66 252.1C306.71 252.6 305.74 253.07 304.76 253.51C304.05 253.83 303.33 254.14 302.6 254.44C302.24 254.59 301.86 254.74 301.5 254.88C301.18 255 300.87 255.11 300.55 255.23C300.48 255.26 300.4 255.29 300.32 255.32C300.09 255.4 299.87 255.48 299.64 255.56C299.41 255.64 299.17 255.72 298.93 255.8C298.76 255.85 298.59 255.91 298.42 255.96C298.04 256.08 297.66 256.2 297.28 256.31C296.91 256.42 296.54 256.53 296.18 256.62C295.32 256.86 294.45 257.08 293.58 257.27C293.36 257.32 293.15 257.37 292.94 257.41C292.64 257.48 292.34 257.54 292.04 257.6C291.97 257.61 291.9 257.63 291.83 257.64C291.5 257.7 291.16 257.77 290.83 257.82C289.94 257.97 289.06 258.1 288.17 258.22C287.86 258.26 287.57 258.3 287.26 258.33C287.15 258.34 287.04 258.35 286.94 258.36C286.64 258.39 286.34 258.42 286.04 258.45C285.95 258.45 285.86 258.47 285.77 258.47C285.5 258.49 285.23 258.52 284.96 258.53C284.92 258.53 284.88 258.54 284.85 258.54C260.85 260.12 237.51 246.36 227.99 222.86C216.1 193.52 230.25 160.12 259.58 148.23C288.91 136.35 322.32 150.5 334.2 179.83C343.72 203.33 336.53 229.46 318.2 245.02L318.21 245Z" fill="#DEDEDE"/>
<path d="M357.15 170.51C340.13 128.5 292.29 108.24 250.28 125.26C208.27 142.28 188.02 190.12 205.04 232.13C218.51 265.38 251.29 285 285.21 283.29C294.14 282.85 303.15 280.92 311.91 277.37C320.67 273.82 328.48 268.94 335.2 263.04C360.74 240.66 370.62 203.75 357.15 170.51ZM318.21 245C317.93 245.24 317.64 245.48 317.35 245.72C317.06 245.96 316.77 246.2 316.47 246.42C316.2 246.64 315.92 246.85 315.64 247.06C315.59 247.1 315.54 247.14 315.49 247.17C315.23 247.37 314.97 247.56 314.7 247.75C314.68 247.77 314.65 247.79 314.62 247.81C314.35 248.01 314.08 248.2 313.81 248.38C313.77 248.42 313.73 248.44 313.69 248.47C313.41 248.67 313.12 248.87 312.82 249.06C312.82 249.06 312.8 249.08 312.79 249.08C312.56 249.24 312.32 249.39 312.07 249.55C311.95 249.63 311.83 249.71 311.71 249.78C311.44 249.94 311.19 250.11 310.91 250.27C310.9 250.28 310.88 250.3 310.85 250.3C310.6 250.45 310.35 250.6 310.1 250.75C309.7 250.99 309.29 251.22 308.89 251.44C308.64 251.59 308.38 251.72 308.12 251.86C307.97 251.95 307.81 252.02 307.66 252.1C306.71 252.6 305.74 253.07 304.76 253.51C304.05 253.83 303.33 254.14 302.6 254.44C302.24 254.59 301.86 254.74 301.5 254.88C301.18 255 300.87 255.11 300.55 255.23C300.48 255.26 300.4 255.29 300.32 255.32C300.09 255.4 299.87 255.48 299.64 255.56C299.41 255.64 299.17 255.72 298.93 255.8C298.76 255.85 298.59 255.91 298.42 255.96C298.04 256.08 297.66 256.2 297.28 256.31C296.91 256.42 296.54 256.53 296.18 256.62C295.32 256.86 294.45 257.08 293.58 257.27C293.36 257.32 293.15 257.37 292.94 257.41C292.64 257.48 292.34 257.54 292.04 257.6C291.97 257.61 291.9 257.63 291.83 257.64C291.5 257.7 291.16 257.77 290.83 257.82C289.94 257.97 289.06 258.1 288.17 258.22C287.86 258.26 287.57 258.3 287.26 258.33C287.15 258.34 287.04 258.35 286.94 258.36C286.64 258.39 286.34 258.42 286.04 258.45C285.95 258.45 285.86 258.47 285.77 258.47C285.5 258.49 285.23 258.52 284.96 258.53C284.92 258.53 284.88 258.54 284.85 258.54C260.85 260.12 237.51 246.36 227.99 222.86C216.1 193.52 230.25 160.12 259.58 148.23C288.91 136.35 322.32 150.5 334.2 179.83C343.72 203.33 336.53 229.46 318.2 245.02L318.21 245Z" fill="#DEDEDE"/>
<path opacity="0.26" d="M318.21 245C313.67 248.86 308.44 252.07 302.62 254.43C296.79 256.79 290.8 258.12 284.86 258.52C260.86 260.1 237.52 246.34 228 222.84C216.11 193.5 230.26 160.1 259.59 148.21C288.92 136.33 322.33 150.48 334.21 179.81C343.73 203.31 336.54 229.44 318.21 245Z" fill="#DEDEDE"/>
<path opacity="0.75" d="M312.671 220.62C314.271 222.23 314.271 224.82 312.671 226.43L304.131 234.97C302.531 236.57 299.931 236.57 298.321 234.97L280.811 217.45L263.301 234.97C261.701 236.57 259.101 236.57 257.491 234.97L248.961 226.43C247.351 224.82 247.351 222.22 248.961 220.62L266.471 203.11L248.961 185.59C247.351 183.98 247.351 181.39 248.961 179.78L257.491 171.25C259.101 169.64 261.701 169.64 263.301 171.25L280.811 188.76L298.321 171.25C299.921 169.64 302.531 169.64 304.131 171.25L312.671 179.78C314.271 181.39 314.271 183.98 312.671 185.59L295.161 203.11L312.671 220.62Z" fill="#DEDEDE"/>
<path d="M301.22 237.681C299.79 237.681 298.34 237.131 297.25 236.041L280.8 219.591L264.35 236.041C262.17 238.231 258.61 238.231 256.42 236.041L247.89 227.501C246.83 226.451 246.24 225.041 246.24 223.541C246.24 222.041 246.83 220.631 247.89 219.571L264.33 203.121L247.88 186.671C246.82 185.621 246.23 184.211 246.23 182.711C246.23 181.211 246.81 179.801 247.88 178.741L256.41 170.211C257.47 169.141 258.88 168.561 260.38 168.561C261.88 168.561 263.28 169.151 264.34 170.211L280.79 186.651L297.24 170.201C298.3 169.141 299.71 168.551 301.21 168.551C302.71 168.551 304.12 169.141 305.18 170.201L313.71 178.731C315.89 180.921 315.89 184.481 313.71 186.671L297.26 203.121L313.71 219.571C315.89 221.751 315.89 225.311 313.71 227.501L305.17 236.041C304.08 237.141 302.64 237.681 301.2 237.681H301.22ZM280.81 215.341L299.38 233.911C300.4 234.931 302.06 234.931 303.07 233.911L311.61 225.371C312.62 224.351 312.62 222.701 311.61 221.681L293.03 203.111L311.61 184.531C312.62 183.521 312.62 181.861 311.61 180.841L303.08 172.311C302.58 171.821 301.93 171.541 301.23 171.541C300.53 171.541 299.88 171.811 299.39 172.311L280.82 190.881L262.24 172.311C261.75 171.821 261.09 171.541 260.4 171.541C259.71 171.541 259.05 171.821 258.55 172.311L250.02 180.841C249.52 181.331 249.25 181.991 249.25 182.691C249.25 183.391 249.52 184.041 250.01 184.531L268.58 203.111L250.01 221.681C249.52 222.171 249.24 222.831 249.24 223.531C249.24 224.231 249.51 224.881 250 225.371L258.53 233.911C259.55 234.921 261.2 234.921 262.22 233.911L280.79 215.331L280.81 215.341Z" fill="#DEDEDE"/>
<g opacity="0.5">
<path d="M145.09 347.011C148.74 347.011 151.7 344.051 151.7 340.401C151.7 336.751 148.74 333.791 145.09 333.791C141.44 333.791 138.48 336.751 138.48 340.401C138.48 344.051 141.44 347.011 145.09 347.011Z" fill="#DEDEDE"/>
<path d="M185.999 368.95C191.909 368.95 196.689 364.16 196.689 358.26C196.689 352.36 191.899 347.57 185.999 347.57C180.099 347.57 175.309 352.36 175.309 358.26C175.309 364.16 180.099 368.95 185.999 368.95Z" fill="#DEDEDE"/>
<path d="M168.851 78.2406C175.781 78.2406 181.401 72.6206 181.401 65.6906C181.401 58.7606 175.781 53.1406 168.851 53.1406C161.921 53.1406 156.301 58.7606 156.301 65.6906C156.301 72.6206 161.921 78.2406 168.851 78.2406Z" fill="#DEDEDE"/>
<path d="M200.939 65.3609C203.289 65.3609 205.189 63.4609 205.189 61.1209C205.189 58.7809 203.289 56.8809 200.939 56.8809C198.589 56.8809 196.699 58.7809 196.699 61.1209C196.699 63.4609 198.599 65.3609 200.939 65.3609Z" fill="#DEDEDE"/>
<path d="M372.792 272.77C375.852 272.77 378.342 270.29 378.342 267.22C378.342 264.15 375.862 261.67 372.792 261.67C369.722 261.67 367.242 264.15 367.242 267.22C367.242 270.29 369.722 272.77 372.792 272.77Z" fill="#DEDEDE"/>
<path d="M351.722 289.05C353.282 289.05 354.552 287.79 354.552 286.23C354.552 284.67 353.292 283.41 351.722 283.41C350.152 283.41 348.902 284.67 348.902 286.23C348.902 287.79 350.162 289.05 351.722 289.05Z" fill="#DEDEDE"/>
</g>
<path d="M131.518 281.659C130.828 281.659 130.208 281.179 130.058 280.489C129.378 277.499 115.538 223.759 102.148 171.789C90.7682 127.619 80.0182 85.8994 78.7082 80.5794C78.5082 79.7794 79.0082 78.9694 79.8082 78.7694C80.6082 78.5794 81.4182 79.0694 81.6182 79.8694C82.9282 85.1694 93.6682 126.879 105.048 171.039C118.438 223.029 132.288 276.789 132.978 279.829C133.158 280.639 132.658 281.439 131.848 281.619C131.738 281.649 131.628 281.659 131.518 281.659Z" fill="#DEDEDE"/>
<path d="M390.361 118.11C390.221 118.11 390.081 118.09 389.941 118.05L319.201 97.5299C318.401 97.2999 317.951 96.4599 318.181 95.6699C318.411 94.8699 319.241 94.4199 320.041 94.6499L390.781 115.17C391.581 115.4 392.041 116.24 391.801 117.03C391.611 117.68 391.011 118.12 390.361 118.12V118.11Z" fill="#DEDEDE"/>
<g opacity="0.25">
<path d="M354.91 237.181C357.27 236.751 359.7 236.521 362.17 236.481H368.06L356.75 233.131C356.17 234.501 355.56 235.851 354.92 237.181H354.91Z" fill="#DEDEDE"/>
</g>
</g>
<defs>
<clipPath id="clip0_40000573_18186">
<rect width="446.24" height="381.98" fill="white"/>
</clipPath>
</defs>
</svg>
