<svg width="24" height="24" viewBox="0 0 24 24" fill="none" xmlns="http://www.w3.org/2000/svg">
<path fill-rule="evenodd" clip-rule="evenodd" d="M12.0043 2.00604C17.5262 2.00604 22.0043 6.48417 22.0043 12.006C22.0043 17.5279 17.5262 22.006 12.0043 22.006C6.48246 22.006 2.00433 17.5279 2.00433 12.006C2.00433 6.48417 6.48246 2.00604 12.0043 2.00604ZM9.92771 15.2541L7.47946 12.8038C7.06237 12.3865 7.06228 11.7059 7.47946 11.2887C7.89673 10.8715 8.58033 10.8741 8.99456 11.2887L10.7206 13.016L15.0143 8.72232C15.4315 8.30505 16.1122 8.30505 16.5294 8.72232C16.9466 9.13951 16.946 9.82074 16.5294 10.2374L11.4769 15.2899C11.0602 15.7066 10.379 15.7072 9.96179 15.2899C9.95006 15.2782 9.93876 15.2663 9.92771 15.2541Z" fill="#009B77"/>
</svg>
