<svg width="24" height="24" viewBox="0 0 24 24" fill="none" xmlns="http://www.w3.org/2000/svg">
<path fill-rule="evenodd" clip-rule="evenodd" d="M15.103 5.50285C16.0402 4.56559 17.5597 4.56559 18.4971 5.50285C19.4343 6.4401 19.4343 7.95969 18.4971 8.89695L14.8971 12.4969C13.9597 13.4343 12.4402 13.4343 11.5029 12.4969C11.0343 12.0283 10.2745 12.0283 9.80589 12.4969C9.33726 12.9655 9.33726 13.7254 9.80589 14.194C11.6804 16.0685 14.7196 16.0685 16.5941 14.194L20.1941 10.594C22.0686 8.7195 22.0686 5.6803 20.1941 3.80578C18.3196 1.93128 15.2805 1.93128 13.4059 3.80578L11.6059 5.60578C11.1373 6.07442 11.1373 6.83421 11.6059 7.30285C12.0745 7.77147 12.8343 7.77147 13.303 7.30285L15.103 5.50285ZM9.10297 11.5028C10.0402 10.5656 11.5598 10.5656 12.4971 11.5028C12.9657 11.9715 13.7255 11.9715 14.1941 11.5028C14.6628 11.0342 14.6628 10.2744 14.1941 9.80578C12.3196 7.93127 9.28042 7.93127 7.40591 9.80578L3.80591 13.4058C1.9314 15.2803 1.9314 18.3195 3.80591 20.194C5.68043 22.0685 8.71962 22.0685 10.5941 20.194L12.3941 18.394C12.8628 17.9254 12.8628 17.1655 12.3941 16.6969C11.9255 16.2283 11.1657 16.2283 10.6971 16.6969L8.89707 18.4969C7.95981 19.4343 6.44023 19.4343 5.50297 18.4969C4.56571 17.5597 4.56571 16.0401 5.50297 15.1029L9.10297 11.5028Z" fill="#2F2F2F"/>
</svg>
