<svg width="48" height="48" viewBox="0 0 48 48" fill="none" xmlns="http://www.w3.org/2000/svg">
<path d="M24.1469 26.5379C24.8924 26.5379 25.4969 25.9334 25.4969 25.1879C25.4969 24.4424 24.8924 23.8379 24.1469 23.8379H12.5924C11.8469 23.8379 11.2424 24.4424 11.2424 25.1879C11.2424 25.9334 11.8469 26.5379 12.5924 26.5379H24.1469Z" fill="#D50040"/>
<path d="M44.9999 40.2843H43.0919V8.45129C43.0919 6.55229 41.5469 5.00879 39.6479 5.00879H20.4629C18.5639 5.00879 17.0189 6.55229 17.0189 8.45129V15.3513H8.3519C6.4529 15.3513 4.9079 16.8948 4.9079 18.7938V40.2858H2.9999C2.2544 40.2858 1.6499 40.8903 1.6499 41.6358C1.6499 42.3813 2.2544 42.9858 2.9999 42.9858H44.9999C45.7454 42.9858 46.3499 42.3813 46.3499 41.6358C46.3499 40.8903 45.7454 40.2843 44.9999 40.2843ZM19.7189 8.45129C19.7189 8.04179 20.0519 7.70879 20.4614 7.70879H39.6464C40.0559 7.70879 40.3889 8.04179 40.3889 8.45129V40.2858H31.8359V18.7923C31.8359 16.8933 30.2924 15.3498 28.3934 15.3498H19.7189V8.45129ZM7.6094 18.7923C7.6094 18.3828 7.9424 18.0498 8.3519 18.0498H28.3949C28.8029 18.0498 29.1359 18.3828 29.1359 18.7923V40.2843H23.6069V34.3863C23.6069 32.6763 22.2149 31.2843 20.5049 31.2843H16.2344C14.5229 31.2843 13.1309 32.6763 13.1309 34.3863V40.2843H7.6094V18.7923ZM20.9069 40.2843H15.8324V34.3863C15.8324 34.1643 16.0124 33.9843 16.2359 33.9843H20.5064C20.7269 33.9843 20.9084 34.1643 20.9084 34.3863V40.2843H20.9069Z" fill="#FFB700"/>
</svg>
