<svg width="48" height="48" viewBox="0 0 48 48" fill="none" xmlns="http://www.w3.org/2000/svg">
<path d="M42.0044 11.0344C40.7999 9.61539 39.0269 8.69439 37.0244 8.69439H32.0159V5.60439C32.0159 3.42339 30.2414 1.65039 28.0604 1.65039H19.9394C17.7584 1.65039 15.9839 3.42489 15.9839 5.60439V8.69289H10.9754C8.97295 8.69289 7.19995 9.61389 5.99545 11.0329C5.02045 12.1774 4.40845 13.6384 4.40845 15.2539V31.8139C4.40845 35.4364 7.35745 38.3839 10.9799 38.3839H12.1949C12.9404 38.3839 13.5449 37.7794 13.5449 37.0339C13.5449 36.2884 12.9404 35.6839 12.1949 35.6839H10.9799C8.84545 35.6839 7.10995 33.9469 7.10995 31.8139V22.8079C7.87195 23.2384 8.73745 23.5039 9.67345 23.5039H13.9664V24.4849C13.9664 25.2304 14.5709 25.8349 15.3164 25.8349C16.0619 25.8349 16.6664 25.2304 16.6664 24.4849V23.5054H31.3289V24.4864C31.3289 25.2319 31.9334 25.8364 32.6789 25.8364C33.4244 25.8364 34.0289 25.2319 34.0289 24.4864V23.5054H38.3219C39.2579 23.5054 40.1234 23.2399 40.8854 22.8094V31.8154C40.8854 33.9484 39.1499 35.6854 37.0154 35.6854H35.8004C35.0549 35.6854 34.4504 36.2899 34.4504 37.0354C34.4504 37.7809 35.0549 38.3854 35.8004 38.3854H37.0154C40.6379 38.3854 43.5869 35.4379 43.5869 31.8154V15.2554C43.5914 13.6399 42.9794 12.1774 42.0044 11.0344ZM18.6854 5.60439C18.6854 4.91289 19.2479 4.35039 19.9394 4.35039H28.0604C28.7519 4.35039 29.3144 4.91289 29.3144 5.60439V8.69289H18.6854V5.60439ZM40.8824 18.2479C40.8824 19.6579 39.7349 20.8054 38.3264 20.8054H34.0334V19.8244C34.0334 19.0789 33.4289 18.4744 32.6834 18.4744C31.9379 18.4744 31.3334 19.0789 31.3334 19.8244V20.8054H16.6709V19.8244C16.6709 19.0789 16.0664 18.4744 15.3209 18.4744C14.5754 18.4744 13.9709 19.0789 13.9709 19.8244V20.8054H9.67345C8.26495 20.8054 7.11745 19.6579 7.11745 18.2479V15.2524C7.11745 14.3344 7.45195 13.5019 7.98895 12.8389C8.69845 11.9689 9.76795 11.4004 10.9799 11.4004H37.0199C38.2319 11.4004 39.3014 11.9689 40.0124 12.8404C40.5479 13.5034 40.8839 14.3359 40.8839 15.2539V18.2479H40.8824Z" fill="#FFB700"/>
<path d="M23.9999 25.4346C19.3964 25.4346 15.6494 29.1831 15.6494 33.7911C15.6494 36.0921 16.6139 38.3121 18.2939 39.8826C18.6719 40.2366 18.8879 40.7571 18.8879 41.3106V42.3351C18.8879 44.5491 20.6909 46.3506 22.9064 46.3506H25.0979C27.3134 46.3506 29.1164 44.5491 29.1164 42.3351V41.3106C29.1164 40.7571 29.3324 40.2366 29.7089 39.8841C31.3904 38.3136 32.3549 36.0921 32.3549 33.7911C32.3504 29.1831 28.6034 25.4346 23.9999 25.4346ZM25.0949 43.6506H22.9049C22.2944 43.6506 21.8024 43.2246 21.6539 42.6591H26.3474C26.1989 43.2246 25.7069 43.6506 25.0949 43.6506ZM27.8609 37.9116C27.2684 38.4666 26.8379 39.1776 26.6069 39.9591H21.3899C21.1604 39.1776 20.7299 38.4651 20.1359 37.9101C18.9824 36.8316 18.3494 35.3691 18.3494 33.7896C18.3494 30.6696 20.8829 28.1331 23.9999 28.1331C27.1169 28.1331 29.6504 30.6711 29.6504 33.7896C29.6504 35.3706 29.0159 36.8331 27.8609 37.9116Z" fill="#D50040"/>
</svg>
