<svg width="24" height="24" viewBox="0 0 24 24" fill="none" xmlns="http://www.w3.org/2000/svg">
<path fill-rule="evenodd" clip-rule="evenodd" d="M12 3.28846C7.32683 3.28846 3.53846 7.07683 3.53846 11.75C3.53846 16.4232 7.32683 20.2115 12 20.2115C16.6732 20.2115 20.4615 16.4232 20.4615 11.75C20.4615 7.07683 16.6732 3.28846 12 3.28846ZM2 11.75C2 6.22717 6.47717 1.75 12 1.75C17.5228 1.75 22 6.22717 22 11.75C22 17.2728 17.5228 21.75 12 21.75C6.47717 21.75 2 17.2728 2 11.75Z" fill="black"/>
<path fill-rule="evenodd" clip-rule="evenodd" d="M11.9999 6.82715C12.4248 6.82715 12.7692 7.17152 12.7692 7.59638V11.4316L15.3131 13.9755C15.6135 14.2759 15.6135 14.763 15.3131 15.0634C15.0127 15.3638 14.5257 15.3638 14.2252 15.0634L11.456 12.2942C11.3118 12.1499 11.2307 11.9542 11.2307 11.7502V7.59638C11.2307 7.17152 11.5751 6.82715 11.9999 6.82715Z" fill="black"/>
</svg>
