<svg width="24" height="24" viewBox="0 0 24 24" fill="none" xmlns="http://www.w3.org/2000/svg">
<path fill-rule="evenodd" clip-rule="evenodd" d="M19.0774 4.89478C17.2063 3.02148 14.7179 1.98938 12.0669 1.98828C6.60425 1.98828 2.15845 6.43396 2.15625 11.8981C2.15552 13.6448 2.61182 15.3499 3.47913 16.8528L2.07312 21.9883L7.3269 20.6101C8.77454 21.3998 10.4043 21.8159 12.0629 21.8164H12.067C17.5291 21.8164 21.9753 17.3704 21.9774 11.906C21.9785 9.25781 20.9486 6.76794 19.0774 4.89478ZM12.0669 20.1427H12.0635C10.5854 20.1421 9.13586 19.7449 7.87097 18.9945L7.57031 18.8159L4.45264 19.6338L5.28479 16.5941L5.08887 16.2825C4.26428 14.9709 3.82886 13.4551 3.82959 11.8987C3.8313 7.35706 7.52661 3.66211 12.0702 3.66211C14.2704 3.66284 16.3386 4.52075 17.8938 6.07776C19.449 7.63477 20.3049 9.70435 20.3042 11.9054C20.3022 16.4474 16.6072 20.1427 12.0669 20.1427ZM16.5852 13.9734C16.3376 13.8494 15.1201 13.2505 14.8931 13.1677C14.6663 13.0851 14.501 13.0439 14.3361 13.2917C14.1709 13.5396 13.6964 14.0974 13.5519 14.2626C13.4073 14.4279 13.2631 14.4486 13.0154 14.3246C12.7677 14.2007 11.9698 13.9391 11.0239 13.0955C10.2878 12.4388 9.79089 11.6279 9.64636 11.3801C9.50208 11.1321 9.64514 11.011 9.755 10.8748C10.0231 10.5419 10.2915 10.1929 10.374 10.0277C10.4567 9.86243 10.4153 9.71777 10.3533 9.59387C10.2915 9.46997 9.79626 8.2511 9.58997 7.75513C9.38879 7.27246 9.18481 7.33765 9.03271 7.33008C8.88843 7.32288 8.72327 7.32141 8.55811 7.32141C8.39307 7.32141 8.12476 7.3833 7.89771 7.63135C7.67078 7.87927 7.03113 8.47827 7.03113 9.69714C7.03113 10.916 7.91846 12.0935 8.04224 12.2588C8.16602 12.4241 9.78845 14.9253 12.2725 15.9978C12.8633 16.2532 13.3245 16.4054 13.6842 16.5195C14.2775 16.708 14.8171 16.6814 15.2439 16.6177C15.7197 16.5465 16.7089 16.0186 16.9154 15.4402C17.1217 14.8617 17.1217 14.366 17.0597 14.2626C16.9979 14.1593 16.8328 14.0974 16.5852 13.9734Z" fill="#2F2F2F"/>
</svg>
